<?xml version="1.0" encoding="UTF-8"?>
<!DOCTYPE svg PUBLIC "-//W3C//DTD SVG 1.1//EN" "http://www.w3.org/Graphics/SVG/1.1/DTD/svg11.dtd">
<!-- Creator: CorelDRAW 2021 (64-Bit) -->
<svg xmlns="http://www.w3.org/2000/svg" xml:space="preserve" width="0.164012in" height="0.163996in" version="1.1" style="shape-rendering:geometricPrecision; text-rendering:geometricPrecision; image-rendering:optimizeQuality; fill-rule:evenodd; clip-rule:evenodd"
viewBox="0 0 0.4 0.4"
 xmlns:xlink="http://www.w3.org/1999/xlink"
 xmlns:xodm="http://www.corel.com/coreldraw/odm/2003">
 <defs>
  <style type="text/css">
   <![CDATA[
    .fil0 {fill:#4B4B4D}
   ]]>
  </style>
 </defs>
 <g id="Layer_x0020_1">
  <metadata id="CorelCorpID_0Corel-Layer"/>
  <g id="_2180535500976">
   <path className="fil0" d="M0.23 0.25c-0.03,-0.01 -0.07,-0.05 -0.08,-0.08 0.01,-0.01 0.02,-0.01 0.02,-0.03 -0,-0.02 -0.03,-0.05 -0.05,-0.06 -0.03,-0.01 -0.1,0.08 0.04,0.19 0.02,0.02 0.11,0.08 0.14,0.05 0.03,-0.03 0.01,-0.05 -0.01,-0.07 -0.03,-0.03 -0.03,-0.03 -0.06,0z"/>
   <path className="fil0" d="M0.17 0.02c0.11,-0.02 0.2,0.06 0.22,0.15 0.02,0.11 -0.06,0.2 -0.15,0.22 -0.11,0.02 -0.2,-0.06 -0.22,-0.15 -0.02,-0.1 0.04,-0.2 0.15,-0.22zm0.01 -0.01c-0.12,0.02 -0.19,0.12 -0.17,0.23 0.02,0.1 0.11,0.19 0.23,0.17 0.1,-0.02 0.19,-0.11 0.17,-0.23 -0.02,-0.1 -0.11,-0.19 -0.23,-0.17z"/>
  </g>
 </g>
</svg>
