<?xml version="1.0" encoding="UTF-8"?>
<!DOCTYPE svg PUBLIC "-//W3C//DTD SVG 1.1//EN" "http://www.w3.org/Graphics/SVG/1.1/DTD/svg11.dtd">
<!-- Creator: CorelDRAW 2021 (64-Bit) -->
<svg xmlns="http://www.w3.org/2000/svg" xml:space="preserve" width="5.76084in" height="0.462102in" version="1.1" style="shape-rendering:geometricPrecision; text-rendering:geometricPrecision; image-rendering:optimizeQuality; fill-rule:evenodd; clip-rule:evenodd"
viewBox="0 0 596.17 47.82"
 xmlns:xlink="http://www.w3.org/1999/xlink"
 xmlns:xodm="http://www.corel.com/coreldraw/odm/2003">
 <defs>
  <style type="text/css">
   <![CDATA[
    .fil1 {fill:#4B4B4D}
    .fil2 {fill:#4C4C4D}
    .fil0 {fill:#F79421}
   ]]>
  </style>
 </defs>
 <g id="Layer_x0020_1">
  <metadata id="CorelCorpID_0Corel-Layer"/>
  <g id="_2180988890464">
   <path class="fil0" d="M23.91 0c13.21,0 23.91,10.7 23.91,23.91 0.58,10.16 11.71,14.93 17.14,15.15l526.84 0c2.41,0 4.38,1.97 4.38,4.38l0 0c0,2.41 -1.97,4.38 -4.38,4.38l-567.89 -0c-13.21,0 -23.91,-10.7 -23.91,-23.91 0,-13.21 10.7,-23.91 23.91,-23.91zm0 8.76c8.37,0 15.15,6.78 15.15,15.15 0,8.37 -6.78,15.15 -15.15,15.15 -8.37,0 -15.15,-6.78 -15.15,-15.15 0,-8.37 6.78,-15.15 15.15,-15.15z"/>
   <path class="fil1" d="M72.16 31.46c0,0.22 -0,0.4 -0.02,0.55 -0.01,0.15 -0.04,0.28 -0.06,0.39 -0.02,0.11 -0.06,0.2 -0.1,0.28 -0.04,0.07 -0.11,0.16 -0.21,0.26 -0.09,0.1 -0.28,0.22 -0.55,0.38 -0.27,0.15 -0.6,0.3 -0.99,0.44 -0.39,0.14 -0.84,0.26 -1.34,0.35 -0.5,0.09 -1.05,0.14 -1.63,0.14 -1.14,0 -2.17,-0.18 -3.09,-0.53 -0.92,-0.35 -1.7,-0.88 -2.35,-1.58 -0.65,-0.7 -1.14,-1.57 -1.48,-2.62 -0.34,-1.05 -0.51,-2.27 -0.51,-3.66 0,-1.42 0.19,-2.68 0.57,-3.78 0.38,-1.1 0.91,-2.02 1.58,-2.77 0.68,-0.75 1.49,-1.31 2.44,-1.7 0.95,-0.39 1.99,-0.58 3.14,-0.58 0.46,0 0.91,0.04 1.34,0.12 0.43,0.07 0.83,0.18 1.19,0.3 0.37,0.12 0.69,0.27 0.99,0.43 0.29,0.17 0.5,0.31 0.61,0.42 0.11,0.12 0.19,0.22 0.24,0.29 0.04,0.08 0.08,0.18 0.1,0.29 0.03,0.12 0.05,0.26 0.06,0.43 0.01,0.16 0.02,0.36 0.02,0.6 0,0.26 -0.01,0.48 -0.03,0.66 -0.02,0.18 -0.05,0.33 -0.09,0.44 -0.04,0.11 -0.1,0.19 -0.15,0.24 -0.06,0.05 -0.13,0.08 -0.21,0.08 -0.13,0 -0.29,-0.07 -0.49,-0.22 -0.2,-0.15 -0.45,-0.32 -0.77,-0.5 -0.31,-0.18 -0.69,-0.35 -1.12,-0.5 -0.43,-0.15 -0.95,-0.22 -1.55,-0.22 -0.66,0 -1.25,0.14 -1.77,0.4 -0.52,0.27 -0.96,0.66 -1.32,1.16 -0.37,0.51 -0.64,1.11 -0.83,1.83 -0.19,0.71 -0.28,1.51 -0.28,2.41 0,0.98 0.1,1.83 0.3,2.54 0.2,0.71 0.49,1.31 0.86,1.77 0.37,0.46 0.82,0.81 1.35,1.03 0.53,0.23 1.12,0.34 1.78,0.34 0.6,0 1.12,-0.07 1.56,-0.21 0.44,-0.14 0.81,-0.3 1.12,-0.47 0.32,-0.17 0.57,-0.33 0.77,-0.46 0.2,-0.14 0.36,-0.21 0.47,-0.21 0.08,0 0.15,0.02 0.2,0.05 0.05,0.04 0.1,0.1 0.13,0.21 0.03,0.1 0.06,0.25 0.07,0.43 0.02,0.19 0.03,0.44 0.03,0.75zm132.73 -2.49c0,0.88 -0.16,1.65 -0.49,2.31 -0.33,0.66 -0.77,1.21 -1.33,1.65 -0.56,0.44 -1.21,0.77 -1.96,1 -0.75,0.22 -1.55,0.33 -2.4,0.33 -0.58,0 -1.11,-0.05 -1.61,-0.15 -0.49,-0.1 -0.93,-0.21 -1.31,-0.35 -0.38,-0.13 -0.7,-0.27 -0.95,-0.42 -0.26,-0.15 -0.44,-0.28 -0.55,-0.39 -0.11,-0.11 -0.19,-0.28 -0.24,-0.49 -0.05,-0.21 -0.07,-0.51 -0.07,-0.91 0,-0.27 0.01,-0.49 0.03,-0.67 0.02,-0.18 0.04,-0.33 0.08,-0.44 0.04,-0.11 0.09,-0.19 0.15,-0.24 0.07,-0.05 0.14,-0.07 0.23,-0.07 0.12,0 0.29,0.07 0.51,0.22 0.22,0.14 0.5,0.3 0.85,0.47 0.34,0.17 0.76,0.33 1.24,0.47 0.48,0.15 1.03,0.22 1.66,0.22 0.41,0 0.78,-0.05 1.11,-0.15 0.33,-0.1 0.61,-0.24 0.84,-0.42 0.23,-0.18 0.4,-0.4 0.52,-0.66 0.12,-0.26 0.18,-0.56 0.18,-0.88 0,-0.38 -0.1,-0.7 -0.31,-0.97 -0.21,-0.27 -0.48,-0.51 -0.81,-0.72 -0.33,-0.21 -0.71,-0.41 -1.13,-0.59 -0.42,-0.18 -0.85,-0.38 -1.3,-0.59 -0.45,-0.21 -0.88,-0.44 -1.3,-0.7 -0.42,-0.26 -0.8,-0.57 -1.13,-0.94 -0.33,-0.37 -0.6,-0.8 -0.81,-1.3 -0.21,-0.5 -0.31,-1.1 -0.31,-1.79 0,-0.8 0.15,-1.5 0.44,-2.11 0.29,-0.6 0.7,-1.1 1.2,-1.51 0.51,-0.4 1.1,-0.7 1.78,-0.9 0.68,-0.2 1.41,-0.29 2.17,-0.29 0.39,0 0.79,0.03 1.18,0.09 0.4,0.06 0.77,0.14 1.11,0.24 0.34,0.11 0.65,0.22 0.92,0.35 0.26,0.13 0.44,0.24 0.53,0.33 0.08,0.08 0.14,0.16 0.17,0.22 0.03,0.06 0.06,0.14 0.08,0.24 0.02,0.1 0.04,0.22 0.04,0.37 0.01,0.15 0.01,0.33 0.01,0.56 0,0.25 -0,0.46 -0.02,0.63 -0.01,0.17 -0.04,0.31 -0.07,0.43 -0.03,0.11 -0.07,0.19 -0.13,0.24 -0.06,0.05 -0.13,0.08 -0.23,0.08 -0.09,0 -0.24,-0.06 -0.45,-0.18 -0.21,-0.12 -0.46,-0.25 -0.76,-0.4 -0.3,-0.14 -0.65,-0.27 -1.05,-0.38 -0.4,-0.12 -0.83,-0.18 -1.3,-0.18 -0.37,0 -0.69,0.04 -0.97,0.14 -0.27,0.09 -0.5,0.22 -0.69,0.37 -0.18,0.16 -0.33,0.35 -0.41,0.57 -0.09,0.22 -0.14,0.46 -0.14,0.71 0,0.37 0.1,0.69 0.3,0.96 0.2,0.27 0.48,0.51 0.81,0.73 0.34,0.21 0.73,0.4 1.16,0.59 0.43,0.18 0.87,0.38 1.32,0.59 0.45,0.21 0.89,0.44 1.32,0.7 0.43,0.26 0.81,0.58 1.15,0.94 0.33,0.37 0.61,0.79 0.81,1.29 0.21,0.49 0.31,1.07 0.31,1.74zm-12.65 3.68c0,0.25 -0.01,0.46 -0.03,0.63 -0.02,0.17 -0.05,0.3 -0.1,0.4 -0.04,0.11 -0.1,0.18 -0.16,0.23 -0.06,0.05 -0.14,0.07 -0.21,0.07l-8.37 0c-0.28,0 -0.52,-0.08 -0.71,-0.25 -0.19,-0.17 -0.29,-0.44 -0.29,-0.82l0 -14.55c0,-0.38 0.1,-0.65 0.29,-0.82 0.19,-0.17 0.43,-0.25 0.71,-0.25l8.33 0c0.07,0 0.15,0.02 0.21,0.07 0.06,0.04 0.11,0.12 0.15,0.22 0.04,0.11 0.07,0.25 0.1,0.41 0.02,0.17 0.03,0.38 0.03,0.64 0,0.24 -0.01,0.44 -0.03,0.62 -0.02,0.17 -0.05,0.3 -0.1,0.4 -0.04,0.11 -0.1,0.18 -0.15,0.23 -0.06,0.05 -0.13,0.07 -0.21,0.07l-5.96 0 0 4.07 5.02 0c0.08,0 0.15,0.02 0.21,0.07 0.07,0.05 0.12,0.12 0.16,0.22 0.04,0.1 0.07,0.23 0.1,0.4 0.02,0.17 0.03,0.37 0.03,0.61 0,0.25 -0.01,0.46 -0.03,0.62 -0.02,0.16 -0.05,0.29 -0.1,0.39 -0.04,0.1 -0.1,0.17 -0.16,0.21 -0.06,0.04 -0.13,0.07 -0.21,0.07l-5.02 0 0 4.7 5.99 0c0.08,0 0.15,0.02 0.21,0.07 0.07,0.05 0.12,0.12 0.16,0.23 0.04,0.1 0.07,0.24 0.1,0.4 0.02,0.17 0.03,0.38 0.03,0.63zm-11.86 -13.97c0,0.25 -0.01,0.46 -0.03,0.64 -0.02,0.18 -0.05,0.32 -0.1,0.42 -0.04,0.11 -0.1,0.19 -0.16,0.24 -0.06,0.05 -0.14,0.08 -0.21,0.08l-4.17 0 0 13.46c0,0.08 -0.03,0.16 -0.08,0.23 -0.06,0.07 -0.15,0.12 -0.28,0.17 -0.13,0.04 -0.3,0.07 -0.52,0.1 -0.22,0.03 -0.49,0.04 -0.82,0.04 -0.33,0 -0.6,-0.01 -0.82,-0.04 -0.22,-0.03 -0.4,-0.06 -0.52,-0.1 -0.13,-0.04 -0.22,-0.1 -0.28,-0.17 -0.06,-0.07 -0.08,-0.15 -0.08,-0.23l0 -13.46 -4.17 0c-0.08,0 -0.16,-0.03 -0.22,-0.08 -0.06,-0.05 -0.11,-0.13 -0.15,-0.24 -0.04,-0.11 -0.07,-0.25 -0.1,-0.42 -0.02,-0.18 -0.03,-0.39 -0.03,-0.64 0,-0.26 0.01,-0.48 0.03,-0.66 0.02,-0.18 0.06,-0.33 0.1,-0.43 0.04,-0.11 0.1,-0.18 0.15,-0.23 0.06,-0.05 0.14,-0.07 0.22,-0.07l11.75 0c0.07,0 0.15,0.02 0.21,0.07 0.07,0.05 0.12,0.12 0.16,0.23 0.04,0.11 0.07,0.25 0.1,0.43 0.02,0.18 0.03,0.4 0.03,0.66zm-11.36 14.04c0.1,0.31 0.17,0.55 0.19,0.74 0.03,0.18 -0.01,0.32 -0.1,0.41 -0.1,0.09 -0.26,0.15 -0.51,0.17 -0.24,0.02 -0.57,0.03 -0.99,0.03 -0.44,0 -0.78,-0 -1.03,-0.02 -0.25,-0.01 -0.43,-0.04 -0.56,-0.08 -0.13,-0.04 -0.22,-0.09 -0.27,-0.16 -0.05,-0.07 -0.1,-0.16 -0.13,-0.27l-1.1 -3.35 -6.29 0 -1.05 3.26c-0.04,0.12 -0.08,0.22 -0.14,0.3 -0.05,0.08 -0.15,0.15 -0.27,0.19 -0.12,0.05 -0.3,0.08 -0.53,0.1 -0.23,0.02 -0.53,0.03 -0.9,0.03 -0.4,0 -0.7,-0.01 -0.93,-0.04 -0.22,-0.03 -0.38,-0.09 -0.46,-0.18 -0.09,-0.1 -0.12,-0.24 -0.09,-0.42 0.03,-0.18 0.09,-0.42 0.19,-0.72l5.14 -14.81c0.05,-0.15 0.11,-0.26 0.18,-0.35 0.07,-0.09 0.18,-0.16 0.33,-0.21 0.15,-0.05 0.36,-0.08 0.63,-0.09 0.26,-0.01 0.62,-0.02 1.06,-0.02 0.51,0 0.91,0 1.21,0.02 0.3,0.01 0.54,0.04 0.7,0.09 0.17,0.05 0.29,0.12 0.36,0.21 0.07,0.1 0.14,0.22 0.18,0.39l5.16 14.8zm-7.66 -12.25l-0.01 0 -2.32 7.1 4.68 0 -2.35 -7.1zm-8.45 10.99c0,0.22 -0,0.4 -0.02,0.55 -0.01,0.15 -0.04,0.28 -0.06,0.39 -0.02,0.11 -0.06,0.2 -0.1,0.28 -0.04,0.07 -0.11,0.16 -0.21,0.26 -0.09,0.1 -0.28,0.22 -0.55,0.38 -0.27,0.15 -0.6,0.3 -0.99,0.44 -0.39,0.14 -0.84,0.26 -1.34,0.35 -0.5,0.09 -1.05,0.14 -1.63,0.14 -1.14,0 -2.17,-0.18 -3.09,-0.53 -0.92,-0.35 -1.7,-0.88 -2.35,-1.58 -0.65,-0.7 -1.14,-1.57 -1.48,-2.62 -0.34,-1.05 -0.51,-2.27 -0.51,-3.66 0,-1.42 0.19,-2.68 0.57,-3.78 0.38,-1.1 0.91,-2.02 1.58,-2.77 0.68,-0.75 1.49,-1.31 2.44,-1.7 0.95,-0.39 1.99,-0.58 3.14,-0.58 0.46,0 0.91,0.04 1.34,0.12 0.43,0.07 0.83,0.18 1.19,0.3 0.37,0.12 0.69,0.27 0.99,0.43 0.29,0.17 0.5,0.31 0.61,0.42 0.11,0.12 0.19,0.22 0.24,0.29 0.04,0.08 0.08,0.18 0.1,0.29 0.03,0.12 0.05,0.26 0.06,0.43 0.01,0.16 0.02,0.36 0.02,0.6 0,0.26 -0.01,0.48 -0.03,0.66 -0.02,0.18 -0.05,0.33 -0.09,0.44 -0.04,0.11 -0.1,0.19 -0.15,0.24 -0.06,0.05 -0.13,0.08 -0.21,0.08 -0.13,0 -0.29,-0.07 -0.49,-0.22 -0.2,-0.15 -0.45,-0.32 -0.77,-0.5 -0.31,-0.18 -0.69,-0.35 -1.12,-0.5 -0.43,-0.15 -0.95,-0.22 -1.55,-0.22 -0.66,0 -1.25,0.14 -1.77,0.4 -0.52,0.27 -0.96,0.66 -1.32,1.16 -0.37,0.51 -0.64,1.11 -0.83,1.83 -0.19,0.71 -0.28,1.51 -0.28,2.41 0,0.98 0.1,1.83 0.3,2.54 0.2,0.71 0.49,1.31 0.86,1.77 0.37,0.46 0.82,0.81 1.35,1.03 0.53,0.23 1.12,0.34 1.78,0.34 0.6,0 1.12,-0.07 1.56,-0.21 0.44,-0.14 0.81,-0.3 1.12,-0.47 0.32,-0.17 0.57,-0.33 0.77,-0.46 0.2,-0.14 0.36,-0.21 0.47,-0.21 0.08,0 0.15,0.02 0.2,0.05 0.05,0.04 0.1,0.1 0.13,0.21 0.03,0.1 0.06,0.25 0.07,0.43 0.02,0.19 0.03,0.44 0.03,0.75zm-15.18 2.06c0,0.08 -0.03,0.16 -0.08,0.23 -0.06,0.07 -0.15,0.12 -0.28,0.17 -0.13,0.04 -0.3,0.07 -0.51,0.1 -0.22,0.03 -0.49,0.04 -0.83,0.04 -0.33,0 -0.6,-0.01 -0.82,-0.04 -0.22,-0.03 -0.4,-0.06 -0.52,-0.1 -0.13,-0.04 -0.22,-0.1 -0.28,-0.17 -0.06,-0.07 -0.08,-0.15 -0.08,-0.23l0 -15.77c0,-0.08 0.03,-0.16 0.08,-0.23 0.06,-0.07 0.15,-0.12 0.29,-0.17 0.13,-0.04 0.3,-0.07 0.52,-0.1 0.22,-0.03 0.49,-0.04 0.81,-0.04 0.33,0 0.61,0.01 0.83,0.04 0.21,0.03 0.39,0.06 0.51,0.1 0.13,0.04 0.22,0.1 0.28,0.17 0.06,0.07 0.08,0.15 0.08,0.23l0 15.77zm-6.15 -14.84c0,0.26 -0.01,0.48 -0.03,0.65 -0.02,0.18 -0.06,0.32 -0.11,0.42 -0.05,0.1 -0.1,0.18 -0.16,0.23 -0.06,0.05 -0.13,0.08 -0.21,0.08l-5.47 0 0 4.49 5.13 0c0.08,0 0.15,0.02 0.21,0.07 0.06,0.04 0.11,0.11 0.16,0.22 0.05,0.11 0.08,0.24 0.1,0.41 0.02,0.17 0.04,0.39 0.04,0.65 0,0.26 -0.01,0.47 -0.04,0.64 -0.02,0.17 -0.05,0.31 -0.1,0.43 -0.05,0.11 -0.1,0.19 -0.16,0.24 -0.06,0.05 -0.13,0.07 -0.21,0.07l-5.13 0 0 6.22c0,0.09 -0.03,0.18 -0.08,0.25 -0.05,0.07 -0.14,0.12 -0.28,0.17 -0.13,0.05 -0.31,0.08 -0.52,0.11 -0.22,0.03 -0.49,0.04 -0.83,0.04 -0.33,0 -0.6,-0.01 -0.82,-0.04 -0.22,-0.03 -0.4,-0.06 -0.52,-0.11 -0.13,-0.04 -0.22,-0.11 -0.28,-0.17 -0.06,-0.07 -0.08,-0.15 -0.08,-0.25l0 -15.13c0,-0.38 0.1,-0.65 0.29,-0.82 0.19,-0.17 0.43,-0.25 0.72,-0.25l7.87 0c0.07,0 0.15,0.02 0.21,0.07 0.06,0.05 0.11,0.12 0.16,0.23 0.05,0.11 0.08,0.25 0.11,0.43 0.02,0.18 0.03,0.4 0.03,0.66zm-13.01 14.84c0,0.08 -0.03,0.16 -0.08,0.23 -0.06,0.07 -0.15,0.12 -0.28,0.17 -0.13,0.04 -0.3,0.07 -0.51,0.1 -0.22,0.03 -0.49,0.04 -0.83,0.04 -0.33,0 -0.6,-0.01 -0.82,-0.04 -0.22,-0.03 -0.4,-0.06 -0.52,-0.1 -0.13,-0.04 -0.22,-0.1 -0.28,-0.17 -0.06,-0.07 -0.08,-0.15 -0.08,-0.23l0 -15.77c0,-0.08 0.03,-0.16 0.08,-0.23 0.06,-0.07 0.15,-0.12 0.29,-0.17 0.13,-0.04 0.3,-0.07 0.52,-0.1 0.22,-0.03 0.49,-0.04 0.81,-0.04 0.33,0 0.61,0.01 0.83,0.04 0.21,0.03 0.39,0.06 0.51,0.1 0.13,0.04 0.22,0.1 0.28,0.17 0.06,0.07 0.08,0.15 0.08,0.23l0 15.77zm-5.39 -14.84c0,0.25 -0.01,0.46 -0.03,0.64 -0.02,0.18 -0.05,0.32 -0.1,0.42 -0.04,0.11 -0.1,0.19 -0.16,0.24 -0.06,0.05 -0.14,0.08 -0.21,0.08l-4.17 0 0 13.46c0,0.08 -0.03,0.16 -0.08,0.23 -0.06,0.07 -0.15,0.12 -0.28,0.17 -0.13,0.04 -0.3,0.07 -0.52,0.1 -0.22,0.03 -0.49,0.04 -0.82,0.04 -0.33,0 -0.6,-0.01 -0.82,-0.04 -0.22,-0.03 -0.4,-0.06 -0.52,-0.1 -0.13,-0.04 -0.22,-0.1 -0.28,-0.17 -0.06,-0.07 -0.08,-0.15 -0.08,-0.23l0 -13.46 -4.17 0c-0.08,0 -0.16,-0.03 -0.22,-0.08 -0.06,-0.05 -0.11,-0.13 -0.15,-0.24 -0.04,-0.11 -0.07,-0.25 -0.1,-0.42 -0.02,-0.18 -0.03,-0.39 -0.03,-0.64 0,-0.26 0.01,-0.48 0.03,-0.66 0.02,-0.18 0.06,-0.33 0.1,-0.43 0.04,-0.11 0.1,-0.18 0.15,-0.23 0.06,-0.05 0.14,-0.07 0.22,-0.07l11.75 0c0.07,0 0.15,0.02 0.21,0.07 0.07,0.05 0.12,0.12 0.16,0.23 0.04,0.11 0.07,0.25 0.1,0.43 0.02,0.18 0.03,0.4 0.03,0.66zm-13.31 14.86c0,0.09 -0.02,0.17 -0.05,0.24 -0.04,0.07 -0.11,0.12 -0.24,0.16 -0.13,0.04 -0.32,0.07 -0.57,0.09 -0.25,0.02 -0.59,0.03 -1.02,0.03 -0.36,0 -0.65,-0.01 -0.86,-0.03 -0.22,-0.02 -0.39,-0.05 -0.51,-0.1 -0.12,-0.05 -0.21,-0.11 -0.26,-0.18 -0.05,-0.07 -0.09,-0.16 -0.13,-0.26l-1.51 -3.74c-0.18,-0.42 -0.36,-0.8 -0.53,-1.13 -0.17,-0.33 -0.37,-0.6 -0.58,-0.82 -0.21,-0.22 -0.46,-0.38 -0.74,-0.5 -0.27,-0.11 -0.59,-0.17 -0.96,-0.17l-1.06 0 0 6.38c0,0.08 -0.03,0.16 -0.08,0.23 -0.06,0.07 -0.15,0.13 -0.28,0.17 -0.13,0.04 -0.3,0.07 -0.51,0.1 -0.21,0.03 -0.49,0.04 -0.82,0.04 -0.33,0 -0.6,-0.01 -0.82,-0.04 -0.22,-0.03 -0.39,-0.06 -0.52,-0.1 -0.13,-0.04 -0.22,-0.1 -0.27,-0.17 -0.05,-0.07 -0.08,-0.15 -0.08,-0.23l0 -15.16c0,-0.38 0.1,-0.65 0.29,-0.82 0.19,-0.17 0.43,-0.25 0.71,-0.25l4.32 0c0.44,0 0.8,0.01 1.08,0.03 0.28,0.02 0.54,0.04 0.77,0.06 0.67,0.1 1.27,0.26 1.81,0.49 0.54,0.23 0.99,0.53 1.37,0.91 0.37,0.37 0.66,0.81 0.86,1.32 0.2,0.51 0.29,1.1 0.29,1.76 0,0.55 -0.07,1.07 -0.21,1.52 -0.15,0.46 -0.35,0.87 -0.63,1.23 -0.27,0.36 -0.61,0.67 -1.02,0.94 -0.4,0.27 -0.87,0.48 -1.38,0.65 0.25,0.12 0.48,0.26 0.7,0.44 0.22,0.17 0.43,0.38 0.62,0.63 0.19,0.25 0.38,0.52 0.55,0.84 0.17,0.31 0.34,0.67 0.5,1.07l1.41 3.3c0.13,0.33 0.22,0.56 0.26,0.72 0.04,0.15 0.07,0.27 0.07,0.36zm-4.38 -11.33c0,-0.55 -0.12,-1.02 -0.37,-1.39 -0.25,-0.38 -0.66,-0.65 -1.23,-0.8 -0.17,-0.04 -0.37,-0.07 -0.59,-0.1 -0.22,-0.03 -0.52,-0.04 -0.91,-0.04l-1.52 0 0 4.73 1.73 0c0.48,0 0.9,-0.06 1.26,-0.18 0.37,-0.11 0.66,-0.28 0.91,-0.49 0.24,-0.21 0.42,-0.46 0.54,-0.75 0.12,-0.29 0.18,-0.62 0.18,-0.98zm-11.01 10.44c0,0.25 -0.01,0.46 -0.03,0.63 -0.02,0.17 -0.05,0.3 -0.1,0.4 -0.04,0.11 -0.1,0.18 -0.16,0.23 -0.06,0.05 -0.14,0.07 -0.21,0.07l-8.37 0c-0.28,0 -0.52,-0.08 -0.71,-0.25 -0.19,-0.17 -0.29,-0.44 -0.29,-0.82l0 -14.55c0,-0.38 0.1,-0.65 0.29,-0.82 0.19,-0.17 0.43,-0.25 0.71,-0.25l8.33 0c0.07,0 0.15,0.02 0.21,0.07 0.06,0.04 0.11,0.12 0.15,0.22 0.04,0.11 0.07,0.25 0.1,0.41 0.02,0.17 0.03,0.38 0.03,0.64 0,0.24 -0.01,0.44 -0.03,0.62 -0.02,0.17 -0.05,0.3 -0.1,0.4 -0.04,0.11 -0.1,0.18 -0.15,0.23 -0.06,0.05 -0.13,0.07 -0.21,0.07l-5.96 0 0 4.07 5.02 0c0.08,0 0.15,0.02 0.21,0.07 0.07,0.05 0.12,0.12 0.16,0.22 0.04,0.1 0.07,0.23 0.1,0.4 0.02,0.17 0.03,0.37 0.03,0.61 0,0.25 -0.01,0.46 -0.03,0.62 -0.02,0.16 -0.05,0.29 -0.1,0.39 -0.04,0.1 -0.1,0.17 -0.16,0.21 -0.06,0.04 -0.13,0.07 -0.21,0.07l-5.02 0 0 4.7 5.99 0c0.08,0 0.15,0.02 0.21,0.07 0.07,0.05 0.12,0.12 0.16,0.23 0.04,0.1 0.07,0.24 0.1,0.4 0.02,0.17 0.03,0.38 0.03,0.63z"/>
   <g>
    <path class="fil2" d="M15.43 32.19l6.28 0.03 -0.04 -1.41 -5.94 -0.05 -0.02 -16.49 15.47 0.05 0.01 6.21 1.47 0.01c-0.2,-8.18 0.99,-7.74 -3.85,-7.74 -3.89,0 -7.78,0 -11.67,0 -2.76,-0 -2.89,0.16 -2.89,2.94l0 11.67c0,1.55 -0.52,4.64 1.18,4.79z"/>
    <path class="fil2" d="M31.91 28.55l1.13 2.11c-0.42,-0.06 -0.64,-0.21 -1.02,-0.13l-0.37 0.84 -1.03 -1.91 1.29 -0.9zm-5.97 -0.01c0.4,0.27 0.58,0.44 1.14,0.74l-0.93 1.62c-0.14,-0.19 -0.23,-0.48 -0.36,-0.71l-0.82 0.13 0.97 -1.77zm2.31 -5.55c1.59,-0.43 2.97,0.62 3.29,1.88 0.42,1.65 -0.63,2.94 -1.85,3.31 -3.38,1.02 -5.06,-4.22 -1.44,-5.19zm4.43 8.62c0.37,0.06 1.92,0.49 2.16,0.4 0.67,-0.24 -0.77,-2.22 -1.33,-3.37 -0.26,-0.53 -0.79,-1.04 -0.61,-1.64 0.47,-1.57 0.26,-2.92 -0.64,-3.97 -0.69,-0.81 -1.69,-1.68 -3.35,-1.66 -1.63,0.01 -2.81,0.88 -3.39,1.72 -0.96,1.39 -0.96,2.21 -0.55,3.97 0.12,0.5 -1.26,2.73 -1.59,3.3 -1.45,2.48 -0,1.46 1.79,1.22 0.14,0.62 0.49,1.58 0.75,2.07 0.63,0.02 0.62,-0.21 0.89,-0.76l1.69 -3.08 0.87 -0.01c0.1,0.43 1.74,3.41 2.03,3.89l0.53 -0.02 0.75 -2.05z"/>
    <polygon class="fil2" points="17.86,17.86 28.3,17.86 28.3,16.39 17.91,16.4 "/>
    <polygon class="fil2" points="17.86,21.47 26.26,21.47 26.27,21.05 26.28,20.44 26.28,20 25.85,20 17.97,20 "/>
    <polygon class="fil2" points="17.97,28.67 23.7,28.67 23.51,28.67 23.51,27.19 23.29,27.19 17.86,27.19 "/>
    <polygon class="fil2" points="17.87,25.05 23.5,25.05 23.51,23.61 17.87,23.61 "/>
    <path class="fil2" d="M23.51 23.61l-0.01 1.44 -5.64 -0c0.28,0.16 4.81,0.17 5.42,0.08 0.41,-0.06 0.05,0.01 0.22,-0.08 0.12,-0.29 0.12,-1.14 0.01,-1.44 -0.02,-0.01 -0.05,-0.03 -0.07,-0.03l-0.25 -0.06c-0.61,-0.06 -5.07,-0.05 -5.33,0.09l5.64 -0z"/>
    <path class="fil2" d="M15.43 32.19c0.22,0.19 5.78,0.21 6.37,0.07 0.02,-0.26 0.02,-0.5 0.02,-0.76 0,-0.34 0.09,-0.58 -0.14,-0.69l0.04 1.41 -6.28 -0.03z"/>
   </g>
  </g>
 </g>
</svg>
