<?xml version="1.0" encoding="UTF-8"?>
<!DOCTYPE svg PUBLIC "-//W3C//DTD SVG 1.1//EN" "http://www.w3.org/Graphics/SVG/1.1/DTD/svg11.dtd">
<!-- Creator: CorelDRAW 2021 (64-Bit) -->
<svg xmlns="http://www.w3.org/2000/svg" xml:space="preserve" width="2.33107in" height="0.462102in" version="1.1" style="shape-rendering:geometricPrecision; text-rendering:geometricPrecision; image-rendering:optimizeQuality; fill-rule:evenodd; clip-rule:evenodd"
viewBox="0 0 158.8 31.48"
 xmlns:xlink="http://www.w3.org/1999/xlink"
 xmlns:xodm="http://www.corel.com/coreldraw/odm/2003">
 <defs>
  <style type="text/css">
   <![CDATA[
    .fil0 {fill:#4C4C4D}
    .fil1 {fill:#F79421}
   ]]>
  </style>
 </defs>
 <g id="Layer_x0020_1">
  <metadata id="CorelCorpID_0Corel-Layer"/>
  <g id="_2390191623456">
   <path class="fil0" d="M15.74 0c8.69,0 15.74,7.05 15.74,15.74 0.38,6.69 7.71,9.83 11.28,9.98l113.15 0c1.59,0 2.88,1.3 2.88,2.88l0 0c0,1.59 -1.3,2.88 -2.88,2.88l-140.18 -0c-8.69,0 -15.74,-7.05 -15.74,-15.74 0,-8.69 7.05,-15.74 15.74,-15.74zm0 5.76c5.51,0 9.98,4.47 9.98,9.98 0,5.51 -4.47,9.98 -9.98,9.98 -5.51,0 -9.98,-4.47 -9.98,-9.98 0,-5.51 4.47,-9.98 9.98,-9.98z"/>
   <path class="fil0" d="M45.5 21.63c0,0.14 -0.01,0.26 -0.02,0.36 -0.01,0.1 -0.03,0.17 -0.06,0.23 -0.03,0.06 -0.06,0.1 -0.09,0.13 -0.04,0.03 -0.08,0.04 -0.12,0.04l-4.8 0c-0.16,0 -0.3,-0.05 -0.41,-0.14 -0.11,-0.1 -0.17,-0.25 -0.17,-0.47l0 -8.34c0,-0.22 0.06,-0.37 0.17,-0.47 0.11,-0.1 0.25,-0.14 0.41,-0.14l4.78 0c0.04,0 0.08,0.01 0.12,0.04 0.03,0.03 0.06,0.07 0.09,0.13 0.02,0.06 0.04,0.14 0.06,0.24 0.01,0.1 0.02,0.22 0.02,0.37 0,0.14 -0.01,0.25 -0.02,0.35 -0.01,0.1 -0.03,0.17 -0.06,0.23 -0.03,0.06 -0.06,0.1 -0.09,0.13 -0.04,0.03 -0.08,0.04 -0.12,0.04l-3.41 0 0 2.33 2.88 0c0.05,0 0.09,0.01 0.12,0.04 0.04,0.03 0.07,0.07 0.09,0.13 0.03,0.06 0.04,0.13 0.06,0.23 0.01,0.1 0.02,0.21 0.02,0.35 0,0.14 -0.01,0.26 -0.02,0.36 -0.01,0.09 -0.03,0.17 -0.06,0.22 -0.03,0.06 -0.06,0.1 -0.09,0.12 -0.04,0.03 -0.08,0.04 -0.12,0.04l-2.88 0 0 2.69 3.44 0c0.05,0 0.09,0.01 0.12,0.04 0.04,0.03 0.07,0.07 0.09,0.13 0.03,0.06 0.04,0.14 0.06,0.23 0.01,0.1 0.02,0.22 0.02,0.36zm66.81 0.08c0,0.11 -0.02,0.21 -0.06,0.31 -0.04,0.09 -0.09,0.16 -0.16,0.22 -0.07,0.06 -0.14,0.1 -0.23,0.13 -0.09,0.03 -0.18,0.04 -0.28,0.04l-0.83 0c-0.17,0 -0.32,-0.02 -0.45,-0.05 -0.12,-0.04 -0.24,-0.1 -0.35,-0.19 -0.11,-0.09 -0.21,-0.21 -0.31,-0.37 -0.1,-0.15 -0.21,-0.36 -0.33,-0.6l-2.37 -4.47c-0.14,-0.27 -0.28,-0.55 -0.42,-0.86 -0.14,-0.31 -0.27,-0.61 -0.38,-0.9l-0.02 0c0.02,0.36 0.04,0.71 0.05,1.06 0.01,0.35 0.02,0.72 0.02,1.09l0 5.01c0,0.05 -0.01,0.09 -0.04,0.13 -0.03,0.04 -0.08,0.07 -0.14,0.1 -0.07,0.03 -0.16,0.05 -0.27,0.06 -0.11,0.02 -0.26,0.02 -0.44,0.02 -0.17,0 -0.32,-0.01 -0.43,-0.02 -0.11,-0.02 -0.2,-0.04 -0.26,-0.06 -0.07,-0.03 -0.11,-0.06 -0.13,-0.1 -0.03,-0.04 -0.04,-0.09 -0.04,-0.13l0 -8.6c0,-0.23 0.07,-0.41 0.2,-0.52 0.13,-0.12 0.3,-0.17 0.5,-0.17l1.04 0c0.19,0 0.35,0.02 0.47,0.05 0.13,0.03 0.24,0.09 0.34,0.16 0.1,0.07 0.2,0.18 0.29,0.31 0.09,0.13 0.18,0.29 0.27,0.48l1.86 3.5c0.11,0.21 0.21,0.42 0.32,0.63 0.11,0.2 0.21,0.41 0.31,0.61 0.1,0.2 0.19,0.41 0.29,0.6 0.1,0.2 0.19,0.4 0.28,0.59l0.01 0c-0.02,-0.35 -0.03,-0.71 -0.04,-1.08 -0.01,-0.38 -0.01,-0.73 -0.01,-1.07l0 -4.49c0,-0.05 0.02,-0.09 0.05,-0.13 0.03,-0.04 0.08,-0.07 0.15,-0.1 0.07,-0.03 0.16,-0.05 0.28,-0.06 0.11,-0.01 0.26,-0.02 0.44,-0.02 0.17,0 0.31,0 0.42,0.02 0.11,0.01 0.2,0.03 0.26,0.06 0.06,0.03 0.11,0.07 0.13,0.1 0.03,0.04 0.04,0.08 0.04,0.13l0 8.6zm-9.53 -4.21c0,0.79 -0.1,1.5 -0.3,2.13 -0.2,0.63 -0.49,1.16 -0.88,1.59 -0.39,0.44 -0.87,0.77 -1.44,1 -0.58,0.23 -1.24,0.34 -1.99,0.34 -0.74,0 -1.39,-0.1 -1.95,-0.29 -0.55,-0.19 -1.02,-0.49 -1.39,-0.89 -0.37,-0.4 -0.65,-0.91 -0.83,-1.52 -0.18,-0.62 -0.28,-1.34 -0.28,-2.19 0,-0.77 0.1,-1.47 0.3,-2.09 0.2,-0.62 0.49,-1.14 0.88,-1.58 0.39,-0.43 0.87,-0.77 1.44,-1 0.58,-0.23 1.24,-0.35 2,-0.35 0.72,0 1.36,0.1 1.92,0.29 0.55,0.19 1.02,0.49 1.39,0.89 0.37,0.4 0.65,0.9 0.84,1.51 0.19,0.61 0.29,1.33 0.29,2.15zm-2.04 0.1c0,-0.5 -0.04,-0.96 -0.12,-1.37 -0.08,-0.41 -0.21,-0.76 -0.4,-1.06 -0.19,-0.29 -0.44,-0.52 -0.76,-0.68 -0.32,-0.16 -0.71,-0.24 -1.18,-0.24 -0.48,0 -0.88,0.09 -1.19,0.27 -0.32,0.18 -0.58,0.42 -0.78,0.72 -0.2,0.3 -0.34,0.65 -0.42,1.05 -0.08,0.4 -0.12,0.83 -0.12,1.28 0,0.52 0.04,0.99 0.12,1.41 0.08,0.42 0.21,0.77 0.4,1.07 0.19,0.3 0.44,0.52 0.75,0.68 0.32,0.15 0.71,0.23 1.19,0.23 0.48,0 0.88,-0.09 1.19,-0.27 0.32,-0.18 0.58,-0.42 0.78,-0.72 0.2,-0.31 0.34,-0.66 0.42,-1.07 0.08,-0.41 0.12,-0.84 0.12,-1.3zm-8.64 4.53c0,0.05 -0.02,0.09 -0.05,0.13 -0.03,0.04 -0.09,0.07 -0.16,0.1 -0.07,0.02 -0.17,0.04 -0.3,0.06 -0.12,0.02 -0.28,0.02 -0.47,0.02 -0.19,0 -0.34,-0.01 -0.47,-0.02 -0.13,-0.02 -0.23,-0.04 -0.3,-0.06 -0.07,-0.03 -0.13,-0.06 -0.16,-0.1 -0.03,-0.04 -0.05,-0.09 -0.05,-0.13l0 -9.04c0,-0.05 0.02,-0.09 0.05,-0.13 0.03,-0.04 0.09,-0.07 0.16,-0.1 0.08,-0.03 0.17,-0.04 0.3,-0.06 0.12,-0.02 0.28,-0.02 0.47,-0.02 0.19,0 0.35,0.01 0.47,0.02 0.12,0.02 0.22,0.03 0.3,0.06 0.07,0.03 0.13,0.06 0.16,0.1 0.03,0.04 0.05,0.09 0.05,0.13l0 9.04zm-3.09 -8.51c0,0.14 -0.01,0.26 -0.02,0.37 -0.01,0.1 -0.03,0.18 -0.06,0.24 -0.03,0.06 -0.06,0.11 -0.09,0.14 -0.04,0.03 -0.08,0.05 -0.12,0.05l-2.39 0 0 7.71c0,0.05 -0.02,0.09 -0.05,0.13 -0.03,0.04 -0.09,0.07 -0.16,0.1 -0.07,0.02 -0.17,0.04 -0.3,0.06 -0.13,0.02 -0.28,0.02 -0.47,0.02 -0.19,0 -0.34,-0.01 -0.47,-0.02 -0.13,-0.02 -0.23,-0.04 -0.3,-0.06 -0.07,-0.03 -0.13,-0.06 -0.16,-0.1 -0.03,-0.04 -0.05,-0.09 -0.05,-0.13l0 -7.71 -2.39 0c-0.05,0 -0.09,-0.02 -0.13,-0.05 -0.03,-0.03 -0.06,-0.07 -0.09,-0.14 -0.02,-0.06 -0.04,-0.14 -0.06,-0.24 -0.01,-0.1 -0.02,-0.22 -0.02,-0.37 0,-0.15 0,-0.27 0.02,-0.38 0.01,-0.1 0.03,-0.19 0.06,-0.25 0.03,-0.06 0.06,-0.11 0.09,-0.13 0.04,-0.03 0.08,-0.04 0.13,-0.04l6.74 0c0.04,0 0.08,0.01 0.12,0.04 0.04,0.03 0.07,0.07 0.09,0.13 0.03,0.06 0.04,0.14 0.06,0.25 0.01,0.1 0.02,0.23 0.02,0.38zm-6.51 8.05c0.06,0.18 0.1,0.32 0.11,0.42 0.02,0.1 -0,0.18 -0.06,0.23 -0.06,0.05 -0.15,0.08 -0.29,0.1 -0.14,0.01 -0.33,0.02 -0.57,0.02 -0.25,0 -0.45,-0 -0.59,-0.01 -0.14,-0.01 -0.25,-0.02 -0.32,-0.05 -0.07,-0.02 -0.12,-0.05 -0.15,-0.09 -0.03,-0.04 -0.06,-0.09 -0.07,-0.15l-0.63 -1.92 -3.61 0 -0.6 1.87c-0.02,0.07 -0.05,0.13 -0.08,0.17 -0.03,0.05 -0.08,0.08 -0.15,0.11 -0.07,0.03 -0.17,0.05 -0.3,0.06 -0.13,0.01 -0.3,0.02 -0.51,0.02 -0.23,0 -0.4,-0.01 -0.53,-0.02 -0.13,-0.02 -0.22,-0.05 -0.26,-0.11 -0.05,-0.06 -0.07,-0.14 -0.05,-0.24 0.02,-0.1 0.05,-0.24 0.11,-0.41l2.95 -8.49c0.03,-0.08 0.06,-0.15 0.1,-0.2 0.04,-0.05 0.1,-0.09 0.19,-0.12 0.09,-0.03 0.21,-0.05 0.36,-0.05 0.15,-0.01 0.35,-0.01 0.61,-0.01 0.29,0 0.52,0 0.69,0.01 0.17,0.01 0.31,0.03 0.4,0.05 0.1,0.03 0.16,0.07 0.21,0.12 0.04,0.06 0.08,0.13 0.11,0.22l2.96 8.48zm-4.39 -7.02l-0.01 0 -1.33 4.07 2.68 0 -1.34 -4.07zm-4.84 6.3c0,0.12 -0,0.23 -0.01,0.32 -0.01,0.09 -0.02,0.16 -0.04,0.22 -0.01,0.06 -0.03,0.12 -0.06,0.16 -0.03,0.04 -0.06,0.09 -0.12,0.15 -0.05,0.06 -0.16,0.13 -0.31,0.22 -0.16,0.09 -0.35,0.17 -0.57,0.25 -0.22,0.08 -0.48,0.15 -0.77,0.2 -0.29,0.05 -0.6,0.08 -0.94,0.08 -0.65,0 -1.24,-0.1 -1.77,-0.3 -0.53,-0.2 -0.98,-0.5 -1.34,-0.91 -0.37,-0.4 -0.65,-0.9 -0.85,-1.5 -0.2,-0.6 -0.3,-1.3 -0.3,-2.1 0,-0.81 0.11,-1.53 0.33,-2.16 0.22,-0.63 0.52,-1.16 0.91,-1.59 0.39,-0.43 0.86,-0.75 1.4,-0.97 0.54,-0.22 1.14,-0.33 1.8,-0.33 0.26,0 0.52,0.02 0.77,0.07 0.25,0.04 0.47,0.1 0.68,0.17 0.21,0.07 0.4,0.15 0.57,0.25 0.17,0.1 0.29,0.18 0.35,0.24 0.07,0.07 0.11,0.12 0.14,0.17 0.03,0.05 0.05,0.1 0.06,0.17 0.02,0.07 0.03,0.15 0.04,0.24 0.01,0.09 0.01,0.21 0.01,0.35 0,0.15 -0.01,0.27 -0.02,0.38 -0.01,0.1 -0.03,0.19 -0.05,0.25 -0.03,0.06 -0.06,0.11 -0.09,0.14 -0.04,0.03 -0.08,0.05 -0.12,0.05 -0.07,0 -0.17,-0.04 -0.28,-0.13 -0.11,-0.09 -0.26,-0.18 -0.44,-0.29 -0.18,-0.11 -0.39,-0.2 -0.64,-0.29 -0.25,-0.09 -0.54,-0.13 -0.89,-0.13 -0.38,0 -0.72,0.08 -1.01,0.23 -0.3,0.16 -0.55,0.38 -0.76,0.66 -0.21,0.29 -0.37,0.64 -0.48,1.05 -0.11,0.41 -0.16,0.87 -0.16,1.38 0,0.56 0.06,1.05 0.17,1.46 0.12,0.41 0.28,0.75 0.49,1.01 0.21,0.26 0.47,0.46 0.77,0.59 0.3,0.13 0.64,0.2 1.02,0.2 0.34,0 0.64,-0.04 0.89,-0.12 0.25,-0.08 0.46,-0.17 0.64,-0.27 0.18,-0.1 0.33,-0.19 0.44,-0.26 0.12,-0.08 0.2,-0.12 0.27,-0.12 0.05,0 0.09,0.01 0.12,0.03 0.03,0.02 0.06,0.06 0.08,0.12 0.02,0.06 0.03,0.14 0.04,0.25 0.01,0.11 0.02,0.25 0.02,0.43zm-8.7 -2.12c0,0.59 -0.09,1.11 -0.26,1.57 -0.17,0.46 -0.42,0.86 -0.76,1.18 -0.34,0.32 -0.75,0.57 -1.24,0.73 -0.49,0.17 -1.06,0.25 -1.7,0.25 -0.6,0 -1.14,-0.08 -1.62,-0.22 -0.48,-0.15 -0.88,-0.38 -1.21,-0.68 -0.33,-0.31 -0.58,-0.69 -0.76,-1.14 -0.17,-0.46 -0.26,-0.99 -0.26,-1.6l0 -5.82c0,-0.05 0.02,-0.09 0.05,-0.13 0.03,-0.04 0.08,-0.07 0.16,-0.1 0.08,-0.03 0.18,-0.04 0.3,-0.06 0.12,-0.02 0.28,-0.02 0.47,-0.02 0.18,0 0.34,0.01 0.46,0.02 0.12,0.02 0.22,0.03 0.3,0.06 0.07,0.03 0.13,0.06 0.16,0.1 0.03,0.04 0.05,0.09 0.05,0.13l0 5.65c0,0.38 0.05,0.71 0.14,0.99 0.09,0.28 0.23,0.51 0.4,0.69 0.17,0.18 0.38,0.32 0.63,0.41 0.24,0.09 0.52,0.14 0.82,0.14 0.31,0 0.58,-0.05 0.82,-0.14 0.24,-0.09 0.45,-0.23 0.62,-0.41 0.17,-0.18 0.3,-0.4 0.39,-0.67 0.09,-0.26 0.14,-0.57 0.14,-0.9l0 -5.76c0,-0.05 0.02,-0.09 0.05,-0.13 0.03,-0.04 0.08,-0.07 0.15,-0.1 0.07,-0.03 0.17,-0.04 0.3,-0.06 0.13,-0.02 0.28,-0.02 0.47,-0.02 0.19,0 0.34,0.01 0.46,0.02 0.12,0.02 0.22,0.03 0.29,0.06 0.07,0.03 0.13,0.06 0.15,0.1 0.03,0.04 0.05,0.09 0.05,0.13l0 5.74zm-9.39 -1.36c0,0.88 -0.11,1.63 -0.34,2.25 -0.23,0.62 -0.56,1.13 -0.99,1.53 -0.43,0.39 -0.95,0.68 -1.56,0.87 -0.61,0.18 -1.35,0.28 -2.19,0.28l-2.28 0c-0.16,0 -0.3,-0.05 -0.41,-0.14 -0.11,-0.1 -0.17,-0.25 -0.17,-0.47l0 -8.34c0,-0.22 0.06,-0.37 0.17,-0.47 0.11,-0.1 0.25,-0.14 0.41,-0.14l2.45 0c0.85,0 1.58,0.1 2.17,0.3 0.6,0.2 1.1,0.49 1.5,0.89 0.41,0.39 0.72,0.88 0.93,1.45 0.21,0.58 0.32,1.24 0.32,2zm-2.01 0.07c0,-0.45 -0.05,-0.87 -0.16,-1.26 -0.11,-0.39 -0.27,-0.72 -0.51,-1.01 -0.23,-0.29 -0.54,-0.51 -0.9,-0.67 -0.37,-0.16 -0.85,-0.24 -1.45,-0.24l-0.98 0 0 6.49 1.01 0c0.53,0 0.98,-0.07 1.34,-0.21 0.36,-0.14 0.67,-0.35 0.91,-0.62 0.24,-0.28 0.42,-0.62 0.54,-1.04 0.12,-0.41 0.18,-0.9 0.18,-1.45z"/>
   <g>
    <path class="fil1" d="M23.67 12.87c-0.09,-0.21 0.05,-0.07 -0.19,-0.22l-6.08 -2.19c-1.23,-0.44 -0.89,-0.46 -2.12,-0.02 -0.5,0.18 -6.21,2.09 -6.31,2.34 -0.19,0.47 1.49,0.62 1.83,0.95 -0.58,0.75 -0.68,1.02 -0.72,2.26 -0.79,0.58 -0.46,0.98 -0.08,1.45 -0.08,0.64 -0.27,1.19 -0.52,1.71 -0.24,0.5 -0.71,1.04 -0.83,1.31 0.17,0.13 0.79,0.65 1.13,0.58 0.88,-0.2 1.06,-1.64 1.05,-2.43 -0,-0.3 -0.01,-0.57 -0.04,-0.87 -0.05,-0.63 -0.01,-0.32 0.19,-0.68 0.12,-0.22 0.12,-0.52 -0.02,-0.73 -0.2,-0.3 -0.27,-0.09 -0.22,-0.63 0.05,-0.52 0.18,-0.95 0.41,-1.32 0.36,-0.57 0.41,-0.44 1.09,-0.2l3.87 1.38c0.39,0.14 0.91,-0.14 1.3,-0.28l5.09 -1.82c0.56,-0.2 1.06,-0.27 1.16,-0.6z"/>
    <path class="fil1" d="M12.08 15.58c0,0.84 0,1.69 0,2.53 0,1.17 -0.17,1.71 0.4,2.09 1.82,1.2 6.72,1.15 8.22,-0.03 0.35,-0.28 0.33,-0.32 0.33,-0.89l0 -3.69c-0.33,0.03 -1.85,0.58 -2.22,0.7 -0.58,0.2 -1.65,0.64 -2.26,0.64 -0.85,-0 -3.3,-1.11 -4.46,-1.36z"/>
   </g>
  </g>
 </g>
</svg>
