<?xml version="1.0" encoding="UTF-8"?>
<!DOCTYPE svg PUBLIC "-//W3C//DTD SVG 1.1//EN" "http://www.w3.org/Graphics/SVG/1.1/DTD/svg11.dtd">
<!-- Creator: CorelDRAW 2021 (64-Bit) -->
<svg xmlns="http://www.w3.org/2000/svg" xml:space="preserve" width="2.33107in" height="0.462102in" version="1.1" style="shape-rendering:geometricPrecision; text-rendering:geometricPrecision; image-rendering:optimizeQuality; fill-rule:evenodd; clip-rule:evenodd"
viewBox="0 0 158.8 31.48"
 xmlns:xlink="http://www.w3.org/1999/xlink"
 xmlns:xodm="http://www.corel.com/coreldraw/odm/2003">
 <defs>
  <style type="text/css">
   <![CDATA[
    .fil0 {fill:#4C4C4D}
    .fil1 {fill:#F79421}
   ]]>
  </style>
 </defs>
 <g id="Layer_x0020_1">
  <metadata id="CorelCorpID_0Corel-Layer"/>
  <g id="_2426591134176">
   <path class="fil0" d="M15.74 0c8.69,0 15.74,7.05 15.74,15.74 0.38,6.69 7.71,9.83 11.28,9.98l113.15 0c1.59,0 2.88,1.3 2.88,2.88l0 0c0,1.59 -1.3,2.88 -2.88,2.88l-140.18 -0c-8.69,0 -15.74,-7.05 -15.74,-15.74 0,-8.69 7.05,-15.74 15.74,-15.74zm0 5.76c5.51,0 9.98,4.47 9.98,9.98 0,5.51 -4.47,9.98 -9.98,9.98 -5.51,0 -9.98,-4.47 -9.98,-9.98 0,-5.51 4.47,-9.98 9.98,-9.98z"/>
   <path class="fil0" d="M45.87 21.48c0,0.16 -0.01,0.31 -0.02,0.42 -0.01,0.11 -0.04,0.21 -0.06,0.28 -0.03,0.08 -0.06,0.13 -0.1,0.16 -0.04,0.03 -0.09,0.05 -0.14,0.05l-4.93 0c-0.18,0 -0.33,-0.05 -0.46,-0.16 -0.12,-0.11 -0.19,-0.28 -0.19,-0.53l0 -9.78c0,-0.05 0.02,-0.1 0.05,-0.15 0.04,-0.04 0.1,-0.08 0.18,-0.11 0.08,-0.03 0.2,-0.05 0.34,-0.07 0.14,-0.02 0.32,-0.03 0.53,-0.03 0.22,0 0.39,0.01 0.53,0.03 0.14,0.02 0.25,0.04 0.33,0.07 0.08,0.03 0.14,0.07 0.18,0.11 0.04,0.05 0.05,0.1 0.05,0.15l0 8.66 3.38 0c0.05,0 0.1,0.01 0.14,0.05 0.04,0.03 0.08,0.08 0.1,0.15 0.03,0.07 0.05,0.16 0.06,0.28 0.01,0.11 0.02,0.25 0.02,0.42zm59.08 -3.29c0,0.26 -0.06,0.44 -0.17,0.57 -0.11,0.12 -0.27,0.18 -0.47,0.18l-4.52 0c0,0.32 0.04,0.6 0.11,0.86 0.07,0.26 0.19,0.47 0.35,0.65 0.16,0.18 0.37,0.32 0.63,0.41 0.26,0.09 0.56,0.14 0.93,0.14 0.37,0 0.69,-0.03 0.96,-0.08 0.28,-0.05 0.52,-0.11 0.72,-0.18 0.2,-0.07 0.37,-0.12 0.5,-0.18 0.13,-0.05 0.24,-0.08 0.32,-0.08 0.05,0 0.09,0.01 0.12,0.03 0.03,0.02 0.06,0.05 0.09,0.1 0.02,0.05 0.04,0.12 0.05,0.21 0.01,0.09 0.01,0.21 0.01,0.34 0,0.12 -0,0.23 -0.01,0.31 -0.01,0.09 -0.01,0.16 -0.03,0.22 -0.01,0.06 -0.03,0.11 -0.05,0.15 -0.02,0.04 -0.05,0.08 -0.09,0.12 -0.04,0.04 -0.13,0.09 -0.3,0.16 -0.16,0.07 -0.37,0.13 -0.62,0.2 -0.25,0.07 -0.53,0.12 -0.85,0.17 -0.32,0.05 -0.66,0.07 -1.03,0.07 -0.66,0 -1.24,-0.08 -1.73,-0.25 -0.49,-0.16 -0.91,-0.42 -1.24,-0.75 -0.33,-0.34 -0.58,-0.77 -0.74,-1.28 -0.16,-0.52 -0.24,-1.12 -0.24,-1.81 0,-0.66 0.09,-1.25 0.26,-1.78 0.17,-0.53 0.42,-0.98 0.75,-1.35 0.33,-0.37 0.72,-0.65 1.19,-0.84 0.47,-0.2 1,-0.29 1.59,-0.29 0.62,0 1.15,0.09 1.59,0.28 0.44,0.18 0.8,0.44 1.09,0.76 0.28,0.32 0.49,0.71 0.62,1.15 0.13,0.44 0.2,0.93 0.2,1.45l0 0.33zm-2.03 -0.6c0.02,-0.59 -0.1,-1.05 -0.35,-1.39 -0.25,-0.34 -0.64,-0.51 -1.17,-0.51 -0.27,0 -0.5,0.05 -0.7,0.15 -0.2,0.1 -0.36,0.23 -0.49,0.4 -0.13,0.17 -0.23,0.37 -0.3,0.6 -0.07,0.23 -0.11,0.48 -0.12,0.74l3.13 0zm-6.03 -2.38c0,0.27 -0.03,0.46 -0.09,0.59 -0.06,0.13 -0.13,0.19 -0.22,0.19l-0.87 0c0.12,0.13 0.21,0.28 0.26,0.45 0.05,0.17 0.08,0.35 0.08,0.53 0,0.43 -0.07,0.81 -0.22,1.15 -0.14,0.33 -0.35,0.62 -0.62,0.85 -0.27,0.23 -0.59,0.4 -0.97,0.52 -0.38,0.12 -0.8,0.18 -1.27,0.18 -0.24,0 -0.47,-0.03 -0.68,-0.09 -0.22,-0.06 -0.38,-0.12 -0.5,-0.2 -0.07,0.07 -0.13,0.16 -0.18,0.26 -0.05,0.1 -0.08,0.21 -0.08,0.33 0,0.16 0.07,0.3 0.21,0.4 0.14,0.1 0.34,0.16 0.59,0.17l1.81 0.07c0.42,0.02 0.8,0.08 1.13,0.18 0.33,0.1 0.61,0.25 0.83,0.43 0.22,0.18 0.4,0.41 0.52,0.67 0.12,0.26 0.18,0.56 0.18,0.89 0,0.37 -0.08,0.71 -0.24,1.03 -0.16,0.33 -0.4,0.61 -0.72,0.85 -0.32,0.24 -0.73,0.43 -1.21,0.56 -0.49,0.14 -1.05,0.21 -1.7,0.21 -0.63,0 -1.17,-0.05 -1.62,-0.15 -0.45,-0.1 -0.81,-0.24 -1.1,-0.41 -0.29,-0.18 -0.49,-0.39 -0.62,-0.64 -0.13,-0.25 -0.2,-0.52 -0.2,-0.81 0,-0.18 0.02,-0.36 0.07,-0.52 0.05,-0.17 0.12,-0.33 0.21,-0.48 0.09,-0.15 0.2,-0.3 0.34,-0.43 0.13,-0.14 0.28,-0.27 0.46,-0.4 -0.24,-0.13 -0.42,-0.3 -0.55,-0.52 -0.13,-0.22 -0.2,-0.46 -0.2,-0.72 0,-0.33 0.08,-0.62 0.22,-0.89 0.15,-0.27 0.35,-0.51 0.58,-0.73 -0.2,-0.19 -0.35,-0.43 -0.47,-0.7 -0.12,-0.27 -0.18,-0.61 -0.18,-1.01 0,-0.43 0.08,-0.82 0.23,-1.16 0.15,-0.34 0.36,-0.63 0.64,-0.86 0.27,-0.24 0.6,-0.41 0.97,-0.54 0.38,-0.12 0.79,-0.19 1.25,-0.19 0.23,0 0.46,0.01 0.67,0.04 0.21,0.03 0.41,0.07 0.59,0.11l2.35 0c0.09,0 0.17,0.06 0.23,0.18 0.06,0.12 0.09,0.33 0.09,0.62zm-2.69 1.76c0,-0.4 -0.11,-0.71 -0.33,-0.93 -0.22,-0.22 -0.53,-0.33 -0.94,-0.33 -0.2,0 -0.39,0.03 -0.54,0.11 -0.16,0.07 -0.28,0.16 -0.39,0.28 -0.1,0.12 -0.18,0.26 -0.23,0.42 -0.05,0.16 -0.07,0.32 -0.07,0.49 0,0.38 0.11,0.68 0.33,0.89 0.22,0.22 0.53,0.33 0.92,0.33 0.21,0 0.39,-0.03 0.55,-0.1 0.16,-0.07 0.28,-0.16 0.39,-0.28 0.11,-0.12 0.18,-0.25 0.24,-0.4 0.05,-0.15 0.08,-0.31 0.08,-0.48zm0.49 5.92c0,-0.25 -0.1,-0.44 -0.3,-0.57 -0.2,-0.13 -0.47,-0.21 -0.82,-0.22l-1.49 -0.04c-0.14,0.11 -0.26,0.21 -0.34,0.3 -0.09,0.1 -0.16,0.19 -0.21,0.28 -0.05,0.09 -0.09,0.17 -0.1,0.26 -0.02,0.08 -0.03,0.17 -0.03,0.26 0,0.28 0.14,0.49 0.42,0.63 0.28,0.14 0.68,0.22 1.18,0.22 0.32,0 0.58,-0.03 0.8,-0.1 0.22,-0.06 0.39,-0.15 0.52,-0.25 0.13,-0.1 0.23,-0.22 0.28,-0.35 0.05,-0.13 0.08,-0.27 0.08,-0.41zm-6.57 -0.74c0,0.08 -0.03,0.14 -0.08,0.18 -0.06,0.05 -0.14,0.08 -0.26,0.1 -0.12,0.02 -0.3,0.03 -0.53,0.03 -0.25,0 -0.43,-0.01 -0.54,-0.03 -0.11,-0.02 -0.2,-0.05 -0.24,-0.1 -0.05,-0.05 -0.07,-0.11 -0.07,-0.18l0 -0.59c-0.31,0.33 -0.65,0.58 -1.04,0.76 -0.39,0.18 -0.82,0.27 -1.3,0.27 -0.39,0 -0.75,-0.05 -1.08,-0.15 -0.33,-0.1 -0.61,-0.26 -0.85,-0.46 -0.24,-0.2 -0.43,-0.45 -0.56,-0.75 -0.13,-0.3 -0.2,-0.65 -0.2,-1.05 0,-0.43 0.09,-0.81 0.25,-1.13 0.17,-0.32 0.42,-0.58 0.76,-0.79 0.33,-0.21 0.75,-0.36 1.25,-0.46 0.5,-0.1 1.08,-0.15 1.73,-0.15l0.72 0 0 -0.45c0,-0.23 -0.02,-0.44 -0.07,-0.61 -0.05,-0.17 -0.12,-0.32 -0.23,-0.44 -0.11,-0.12 -0.25,-0.2 -0.43,-0.26 -0.18,-0.05 -0.4,-0.08 -0.67,-0.08 -0.35,0 -0.66,0.04 -0.93,0.12 -0.28,0.08 -0.52,0.16 -0.73,0.26 -0.21,0.09 -0.39,0.18 -0.53,0.26 -0.14,0.08 -0.26,0.12 -0.34,0.12 -0.06,0 -0.12,-0.02 -0.16,-0.06 -0.05,-0.04 -0.09,-0.1 -0.12,-0.17 -0.03,-0.07 -0.05,-0.16 -0.07,-0.27 -0.02,-0.11 -0.03,-0.22 -0.03,-0.35 0,-0.17 0.01,-0.31 0.04,-0.41 0.03,-0.1 0.08,-0.19 0.16,-0.27 0.08,-0.08 0.21,-0.17 0.41,-0.26 0.19,-0.1 0.42,-0.19 0.68,-0.27 0.26,-0.09 0.54,-0.15 0.85,-0.2 0.31,-0.05 0.63,-0.08 0.95,-0.08 0.58,0 1.08,0.06 1.49,0.17 0.41,0.11 0.75,0.29 1.02,0.53 0.27,0.24 0.46,0.54 0.58,0.91 0.12,0.37 0.18,0.81 0.18,1.32l0 4.99zm-2.06 -3.18l-0.8 0c-0.34,0 -0.62,0.03 -0.86,0.07 -0.24,0.05 -0.43,0.12 -0.58,0.23 -0.15,0.1 -0.26,0.22 -0.33,0.36 -0.07,0.14 -0.1,0.3 -0.1,0.49 0,0.31 0.1,0.56 0.3,0.73 0.2,0.18 0.47,0.27 0.82,0.27 0.29,0 0.56,-0.07 0.81,-0.22 0.25,-0.15 0.5,-0.37 0.75,-0.66l0 -1.26zm-6.36 3.16c0,0.05 -0.01,0.1 -0.04,0.14 -0.03,0.04 -0.07,0.08 -0.14,0.11 -0.07,0.03 -0.16,0.05 -0.28,0.06 -0.11,0.01 -0.26,0.02 -0.43,0.02 -0.18,0 -0.33,-0.01 -0.45,-0.02 -0.11,-0.01 -0.2,-0.04 -0.27,-0.06 -0.07,-0.03 -0.11,-0.06 -0.14,-0.11 -0.03,-0.04 -0.04,-0.09 -0.04,-0.14l0 -0.86c-0.41,0.44 -0.83,0.77 -1.25,0.99 -0.43,0.22 -0.87,0.33 -1.32,0.33 -0.51,0 -0.94,-0.08 -1.29,-0.25 -0.35,-0.16 -0.63,-0.39 -0.84,-0.68 -0.21,-0.29 -0.37,-0.62 -0.46,-1 -0.09,-0.38 -0.14,-0.85 -0.14,-1.42l0 -4.54c0,-0.05 0.01,-0.1 0.05,-0.14 0.03,-0.04 0.09,-0.08 0.17,-0.1 0.08,-0.03 0.19,-0.05 0.33,-0.06 0.14,-0.01 0.3,-0.02 0.51,-0.02 0.2,0 0.37,0.01 0.51,0.02 0.13,0.01 0.24,0.04 0.32,0.06 0.08,0.03 0.14,0.06 0.17,0.1 0.03,0.04 0.05,0.09 0.05,0.14l0 4.19c0,0.39 0.03,0.68 0.07,0.89 0.05,0.21 0.13,0.38 0.23,0.53 0.1,0.15 0.23,0.26 0.39,0.34 0.16,0.08 0.34,0.12 0.55,0.12 0.27,0 0.53,-0.1 0.8,-0.29 0.27,-0.19 0.56,-0.48 0.86,-0.85l0 -4.94c0,-0.05 0.01,-0.1 0.05,-0.14 0.03,-0.04 0.09,-0.08 0.17,-0.1 0.08,-0.03 0.19,-0.05 0.32,-0.06 0.13,-0.01 0.3,-0.02 0.51,-0.02 0.2,0 0.37,0.01 0.51,0.02 0.13,0.01 0.24,0.04 0.32,0.06 0.08,0.03 0.13,0.06 0.16,0.1 0.03,0.04 0.05,0.09 0.05,0.14l0 7.43zm-8.43 -6.91c0,0.27 -0.03,0.46 -0.09,0.59 -0.06,0.13 -0.13,0.19 -0.22,0.19l-0.87 0c0.12,0.13 0.21,0.28 0.26,0.45 0.05,0.17 0.08,0.35 0.08,0.53 0,0.43 -0.07,0.81 -0.22,1.15 -0.14,0.33 -0.35,0.62 -0.62,0.85 -0.27,0.23 -0.59,0.4 -0.97,0.52 -0.38,0.12 -0.8,0.18 -1.27,0.18 -0.24,0 -0.47,-0.03 -0.68,-0.09 -0.22,-0.06 -0.38,-0.12 -0.5,-0.2 -0.07,0.07 -0.13,0.16 -0.18,0.26 -0.05,0.1 -0.08,0.21 -0.08,0.33 0,0.16 0.07,0.3 0.21,0.4 0.14,0.1 0.34,0.16 0.59,0.17l1.81 0.07c0.42,0.02 0.8,0.08 1.13,0.18 0.33,0.1 0.61,0.25 0.83,0.43 0.22,0.18 0.4,0.41 0.52,0.67 0.12,0.26 0.18,0.56 0.18,0.89 0,0.37 -0.08,0.71 -0.24,1.03 -0.16,0.33 -0.4,0.61 -0.72,0.85 -0.32,0.24 -0.73,0.43 -1.21,0.56 -0.49,0.14 -1.05,0.21 -1.7,0.21 -0.63,0 -1.17,-0.05 -1.62,-0.15 -0.45,-0.1 -0.81,-0.24 -1.1,-0.41 -0.29,-0.18 -0.49,-0.39 -0.62,-0.64 -0.13,-0.25 -0.2,-0.52 -0.2,-0.81 0,-0.18 0.02,-0.36 0.07,-0.52 0.05,-0.17 0.12,-0.33 0.21,-0.48 0.09,-0.15 0.2,-0.3 0.34,-0.43 0.13,-0.14 0.28,-0.27 0.46,-0.4 -0.24,-0.13 -0.42,-0.3 -0.55,-0.52 -0.13,-0.22 -0.2,-0.46 -0.2,-0.72 0,-0.33 0.08,-0.62 0.22,-0.89 0.15,-0.27 0.35,-0.51 0.58,-0.73 -0.2,-0.19 -0.35,-0.43 -0.47,-0.7 -0.12,-0.27 -0.18,-0.61 -0.18,-1.01 0,-0.43 0.08,-0.82 0.23,-1.16 0.15,-0.34 0.36,-0.63 0.64,-0.86 0.27,-0.24 0.6,-0.41 0.97,-0.54 0.38,-0.12 0.79,-0.19 1.25,-0.19 0.23,0 0.46,0.01 0.67,0.04 0.21,0.03 0.41,0.07 0.59,0.11l2.35 0c0.09,0 0.17,0.06 0.23,0.18 0.06,0.12 0.09,0.33 0.09,0.62zm-2.69 1.76c0,-0.4 -0.11,-0.71 -0.33,-0.93 -0.22,-0.22 -0.53,-0.33 -0.94,-0.33 -0.2,0 -0.39,0.03 -0.54,0.11 -0.16,0.07 -0.28,0.16 -0.39,0.28 -0.1,0.12 -0.18,0.26 -0.23,0.42 -0.05,0.16 -0.07,0.32 -0.07,0.49 0,0.38 0.11,0.68 0.33,0.89 0.22,0.22 0.53,0.33 0.92,0.33 0.21,0 0.39,-0.03 0.55,-0.1 0.16,-0.07 0.28,-0.16 0.39,-0.28 0.11,-0.12 0.18,-0.25 0.24,-0.4 0.05,-0.15 0.08,-0.31 0.08,-0.48zm0.49 5.92c0,-0.25 -0.1,-0.44 -0.3,-0.57 -0.2,-0.13 -0.47,-0.21 -0.82,-0.22l-1.49 -0.04c-0.14,0.11 -0.26,0.21 -0.34,0.3 -0.09,0.1 -0.16,0.19 -0.21,0.28 -0.05,0.09 -0.09,0.17 -0.1,0.26 -0.02,0.08 -0.03,0.17 -0.03,0.26 0,0.28 0.14,0.49 0.42,0.63 0.28,0.14 0.68,0.22 1.18,0.22 0.32,0 0.58,-0.03 0.8,-0.1 0.22,-0.06 0.39,-0.15 0.52,-0.25 0.13,-0.1 0.23,-0.22 0.28,-0.35 0.05,-0.13 0.08,-0.27 0.08,-0.41zm-6.54 -0.77c0,0.05 -0.02,0.1 -0.05,0.14 -0.03,0.04 -0.09,0.08 -0.16,0.11 -0.08,0.03 -0.19,0.05 -0.32,0.06 -0.14,0.01 -0.3,0.02 -0.5,0.02 -0.21,0 -0.38,-0.01 -0.51,-0.02 -0.14,-0.01 -0.24,-0.04 -0.32,-0.06 -0.08,-0.03 -0.13,-0.06 -0.16,-0.11 -0.03,-0.04 -0.05,-0.09 -0.05,-0.14l0 -4.23c0,-0.36 -0.03,-0.64 -0.08,-0.85 -0.05,-0.21 -0.13,-0.38 -0.23,-0.53 -0.1,-0.15 -0.23,-0.26 -0.39,-0.34 -0.16,-0.08 -0.34,-0.12 -0.55,-0.12 -0.27,0 -0.53,0.1 -0.81,0.29 -0.27,0.19 -0.55,0.48 -0.85,0.85l0 4.93c0,0.05 -0.02,0.1 -0.05,0.14 -0.03,0.04 -0.09,0.08 -0.17,0.11 -0.08,0.03 -0.19,0.05 -0.32,0.06 -0.13,0.01 -0.3,0.02 -0.51,0.02 -0.2,0 -0.37,-0.01 -0.51,-0.02 -0.13,-0.01 -0.24,-0.04 -0.32,-0.06 -0.08,-0.03 -0.14,-0.06 -0.17,-0.11 -0.03,-0.04 -0.05,-0.09 -0.05,-0.14l0 -7.43c0,-0.05 0.01,-0.1 0.04,-0.14 0.03,-0.04 0.08,-0.08 0.15,-0.1 0.07,-0.03 0.16,-0.05 0.28,-0.06 0.11,-0.01 0.26,-0.02 0.43,-0.02 0.18,0 0.32,0.01 0.44,0.02 0.12,0.01 0.21,0.04 0.27,0.06 0.06,0.03 0.11,0.06 0.14,0.1 0.03,0.04 0.04,0.09 0.04,0.14l0 0.86c0.41,-0.44 0.83,-0.77 1.25,-0.99 0.42,-0.22 0.87,-0.33 1.33,-0.33 0.51,0 0.93,0.08 1.28,0.25 0.35,0.16 0.62,0.39 0.84,0.68 0.21,0.28 0.37,0.62 0.46,1 0.09,0.38 0.14,0.84 0.14,1.38l0 4.58zm-9.17 0.03c0,0.08 -0.03,0.14 -0.08,0.18 -0.06,0.05 -0.14,0.08 -0.26,0.1 -0.12,0.02 -0.3,0.03 -0.53,0.03 -0.25,0 -0.43,-0.01 -0.54,-0.03 -0.11,-0.02 -0.2,-0.05 -0.24,-0.1 -0.05,-0.05 -0.07,-0.11 -0.07,-0.18l0 -0.59c-0.31,0.33 -0.65,0.58 -1.04,0.76 -0.39,0.18 -0.82,0.27 -1.3,0.27 -0.39,0 -0.75,-0.05 -1.08,-0.15 -0.33,-0.1 -0.61,-0.26 -0.85,-0.46 -0.24,-0.2 -0.43,-0.45 -0.56,-0.75 -0.13,-0.3 -0.2,-0.65 -0.2,-1.05 0,-0.43 0.09,-0.81 0.25,-1.13 0.17,-0.32 0.42,-0.58 0.76,-0.79 0.33,-0.21 0.75,-0.36 1.25,-0.46 0.5,-0.1 1.08,-0.15 1.73,-0.15l0.72 0 0 -0.45c0,-0.23 -0.02,-0.44 -0.07,-0.61 -0.05,-0.17 -0.12,-0.32 -0.23,-0.44 -0.11,-0.12 -0.25,-0.2 -0.43,-0.26 -0.18,-0.05 -0.4,-0.08 -0.67,-0.08 -0.35,0 -0.66,0.04 -0.93,0.12 -0.28,0.08 -0.52,0.16 -0.73,0.26 -0.21,0.09 -0.39,0.18 -0.53,0.26 -0.14,0.08 -0.26,0.12 -0.34,0.12 -0.06,0 -0.12,-0.02 -0.16,-0.06 -0.05,-0.04 -0.09,-0.1 -0.12,-0.17 -0.03,-0.07 -0.05,-0.16 -0.07,-0.27 -0.02,-0.11 -0.03,-0.22 -0.03,-0.35 0,-0.17 0.01,-0.31 0.04,-0.41 0.03,-0.1 0.08,-0.19 0.16,-0.27 0.08,-0.08 0.21,-0.17 0.41,-0.26 0.19,-0.1 0.42,-0.19 0.68,-0.27 0.26,-0.09 0.54,-0.15 0.85,-0.2 0.31,-0.05 0.63,-0.08 0.95,-0.08 0.58,0 1.08,0.06 1.49,0.17 0.41,0.11 0.75,0.29 1.02,0.53 0.27,0.24 0.46,0.54 0.58,0.91 0.12,0.37 0.18,0.81 0.18,1.32l0 4.99zm-2.06 -3.18l-0.8 0c-0.34,0 -0.62,0.03 -0.86,0.07 -0.24,0.05 -0.43,0.12 -0.58,0.23 -0.15,0.1 -0.26,0.22 -0.33,0.36 -0.07,0.14 -0.1,0.3 -0.1,0.49 0,0.31 0.1,0.56 0.3,0.73 0.2,0.18 0.47,0.27 0.82,0.27 0.29,0 0.56,-0.07 0.81,-0.22 0.25,-0.15 0.5,-0.37 0.75,-0.66l0 -1.26z"/>
   <g>
    <path class="fil1" d="M17.32 19.44c-0.13,-0.43 0.09,-0.74 0.25,-1.14 0.13,-0.32 0.95,-2.45 1.09,-2.56 0.14,-0.1 0.36,-0.09 0.48,0.04 0.1,0.1 0.73,1.76 0.84,2.04 0.29,0.73 0.98,1.91 -0.1,1.67 -0.65,-1.05 0.18,-1.02 -1.38,-1.02 -0.64,0 -0.22,1.4 -1.19,0.96zm3.31 2.45c0.3,0.07 0.47,-0.1 0.66,-0.23 0.22,-0.16 0.38,-0.28 0.56,-0.44 1.27,-1.13 1.17,-1.26 1.17,-2.8 0,-3.87 0.28,-3.8 -2.09,-3.8 -1.29,0 -2.59,0 -3.88,0 -1.8,0 -2.31,-0.22 -2.31,1.62 0,0.72 -0.13,3.37 0.15,3.81 0.37,0.57 0.69,0.5 1.51,0.5l3.89 -0c0.78,0.04 0.2,0.85 0.35,1.35z"/>
    <path class="fil1" d="M11.15 17.25c0.23,-0.61 -0.61,-1.36 0.58,-1.35 0.75,0.01 1.5,0 2.25,0l0.08 -0.92c-0.48,-0.03 -0.8,-0.28 -1.05,-0.31 -0.01,-0 -2.25,0.78 -1.82,-0.2 0.09,-0.2 0.24,-0.21 0.48,-0.23 0.26,-0.02 0.43,-0.08 0.67,-0.11 -0.14,-0.27 -0.77,-1.01 -0.4,-1.33 0.54,-0.45 0.6,0.56 1.06,0.86 0.16,-0.28 0.35,-0.63 0.42,-1.08 -1.52,0 -2.48,0.23 -2.19,-0.66 0.38,-0.11 0.85,-0.08 1.32,-0.08l0.02 -0.81c0.64,-0.39 0.72,0.15 0.71,0.78 0.34,0.08 1.01,-0.06 1.25,0.1 0.12,0.08 0.21,0.27 0.11,0.47 -0.09,0.18 -0.25,0.18 -0.48,0.23 -0.19,1.1 -0.38,1 -0.58,1.52 1.6,0.29 0.7,0.14 1.53,-0.15 0.52,-0.18 1.35,-0.1 1.92,-0.09 0,-3.31 0.38,-3.93 -1.55,-3.92 -1.82,0 -3.65,-0 -5.47,-0 -1.07,0 -1.26,0.41 -1.25,1.45 0,0.92 0,1.84 0,2.76 -0,0.83 -0.07,1.27 0.77,2.01 0.42,0.37 1.18,1.17 1.6,1.04z"/>
    <path class="fil1" d="M18.64 17.68c0.06,0.03 0.1,0.06 0.22,0.05 0.44,-0.03 0.13,0.02 0.25,-0.12l-0.23 -0.54c-0.11,0.18 -0.21,0.41 -0.24,0.61z"/>
    <path class="fil1" d="M19.11 17.61c-0.12,0.15 0.19,0.09 -0.25,0.12 -0.12,0.01 -0.16,-0.02 -0.22,-0.05l-0.07 0.07 0.6 0.02 -0.05 -0.17z"/>
   </g>
  </g>
 </g>
</svg>
