<?xml version="1.0" encoding="UTF-8"?>
<!DOCTYPE svg PUBLIC "-//W3C//DTD SVG 1.1//EN" "http://www.w3.org/Graphics/SVG/1.1/DTD/svg11.dtd">
<!-- Creator: CorelDRAW 2021 (64-Bit) -->
<svg xmlns="http://www.w3.org/2000/svg" xml:space="preserve" width="0.180472in" height="0.180492in" version="1.1" style="shape-rendering:geometricPrecision; text-rendering:geometricPrecision; image-rendering:optimizeQuality; fill-rule:evenodd; clip-rule:evenodd"
viewBox="0 0 0.49 0.49"
 xmlns:xlink="http://www.w3.org/1999/xlink"
 xmlns:xodm="http://www.corel.com/coreldraw/odm/2003">
 <defs>
  <style type="text/css">
   <![CDATA[
    .fil0 {fill:#4C4C4D}
   ]]>
  </style>
 </defs>
 <g id="Layer_x0020_1">
  <metadata id="CorelCorpID_0Corel-Layer"/>
  <g id="_2180534446960">
   <path className="fil0" d="M0.21 0.02c0.13,-0.02 0.24,0.08 0.26,0.19 0.02,0.14 -0.08,0.25 -0.19,0.26 -0.14,0.02 -0.25,-0.08 -0.26,-0.19 -0.02,-0.14 0.08,-0.24 0.2,-0.26zm-0.21 0.26c0.02,0.12 0.13,0.23 0.28,0.21 0.12,-0.02 0.23,-0.13 0.21,-0.28 -0.02,-0.12 -0.13,-0.23 -0.28,-0.21 -0.12,0.02 -0.23,0.13 -0.21,0.28z"/>
   <path className="fil0" d="M0.2 0.26c0.01,0.01 0.03,0.03 0.04,0.03 0.01,-0 0.04,-0.03 0.05,-0.03 0.02,0.01 0.07,0.05 0.08,0.07l-0.25 0c0.01,-0.02 0.06,-0.06 0.08,-0.07zm-0.09 -0.07c0.01,0.01 0,-0 0.01,0.01l0.06 0.05c0,0 0,0 0,0 0,-0 0,0 0,0 -0.02,0.02 -0.05,0.05 -0.08,0.07l-0 -0.1 -0 -0.04zm0.2 0.06c0.01,-0.02 0.07,-0.06 0.07,-0.06 0.01,0.02 0,0.11 0,0.13l-0.08 -0.07zm-0.06 0.02c-0.02,-0.01 -0.06,-0.04 -0.07,-0.05 -0.02,-0.02 -0.05,-0.04 -0.07,-0.05 0,-0.02 0,-0.03 0.03,-0.03l0.22 0c0.03,0 0.02,0 0.03,0.03l-0.14 0.1zm-0.13 -0.14c-0.03,0.01 -0.02,0.05 -0.02,0.11 0,0.04 -0.01,0.1 0.03,0.1 0.02,0 0.24,0 0.25,-0 0.03,-0.01 0.02,-0.08 0.02,-0.11 0,-0.04 0.01,-0.1 -0.03,-0.1 -0.03,-0 -0.24,-0 -0.25,0z"/>
  </g>
 </g>
</svg>
