<?xml version="1.0" encoding="UTF-8"?>
<!DOCTYPE svg PUBLIC "-//W3C//DTD SVG 1.1//EN" "http://www.w3.org/Graphics/SVG/1.1/DTD/svg11.dtd">
<!-- Creator: CorelDRAW 2021 (64-Bit) -->
<svg xmlns="http://www.w3.org/2000/svg" xml:space="preserve" width="2.33107in" height="0.462102in" version="1.1" style="shape-rendering:geometricPrecision; text-rendering:geometricPrecision; image-rendering:optimizeQuality; fill-rule:evenodd; clip-rule:evenodd"
viewBox="0 0 158.8 31.48"
 xmlns:xlink="http://www.w3.org/1999/xlink"
 xmlns:xodm="http://www.corel.com/coreldraw/odm/2003">
 <defs>
  <style type="text/css">
   <![CDATA[
    .fil0 {fill:#4B4B4D}
    .fil1 {fill:#F79421}
   ]]>
  </style>
 </defs>
 <g id="Layer_x0020_1">
  <metadata id="CorelCorpID_0Corel-Layer"/>
  <g id="_2426788903136">
   <path class="fil0" d="M15.74 0c8.69,0 15.74,7.05 15.74,15.74 0.38,6.69 7.71,9.83 11.28,9.98l113.15 0c1.59,0 2.88,1.3 2.88,2.88l0 0c0,1.59 -1.3,2.88 -2.88,2.88l-140.18 -0c-8.69,0 -15.74,-7.05 -15.74,-15.74 0,-8.69 7.05,-15.74 15.74,-15.74zm0 5.76c5.51,0 9.98,4.47 9.98,9.98 0,5.51 -4.47,9.98 -9.98,9.98 -5.51,0 -9.98,-4.47 -9.98,-9.98 0,-5.51 4.47,-9.98 9.98,-9.98z"/>
   <path class="fil1" d="M9.95 18.66c-0.02,0.26 -0.07,0.66 -0.14,0.88 -0.05,0.16 -0.04,0.29 0.08,0.37 0.04,0.03 0.11,0.07 0.16,0.09 0.05,0.03 0.11,0.06 0.15,0.1 -0.45,0.57 -0.09,0.52 0.13,0.85 0.31,0.45 -0.16,1.61 1.28,1.58 0.46,-0.01 0.92,-0.03 1.38,-0.07 0.45,-0.04 1.44,-0.11 1.84,-0.3 0.09,-0.05 0.14,-0.07 0.23,-0.13 0.62,-0.44 0.93,-1.19 1.19,-2.05 0.06,-0.18 0.11,-0.36 0.16,-0.55 0.06,-0.23 0.01,-0.41 -0.22,-0.44 -0.26,-0.03 -0.29,0.15 -0.35,0.35 -0.23,0.81 -0.57,2 -1.28,2.32 -0.45,0.2 -1.99,0.28 -2.58,0.3 -0.52,0.02 -0.91,0.14 -0.96,-0.44 -0.02,-0.26 -0,-0.38 -0.1,-0.62 -0.04,-0.11 -0.13,-0.25 -0.2,-0.34 -0.03,-0.04 -0.06,-0.06 -0.08,-0.1 0.03,-0.05 0.06,-0.07 0.1,-0.11 0.06,-0.05 0.08,-0.06 0.12,-0.1 0.14,-0.12 0.15,-0.38 -0.19,-0.54 -0.08,-0.04 -0.24,-0.11 -0.29,-0.16l0.12 -0.79c0.22,-0 0.4,-0.11 0.34,-0.35 -0.06,-0.26 -0.34,-0.2 -0.51,-0.22 -0.3,-0.05 -0.92,-0.23 -1.08,-0.38 -0.16,-0.16 0.45,-0.98 0.57,-1.17l0.42 -0.68c0.82,-1.45 -0.18,-1.14 -0.18,-2.06 -0,-0.61 0.49,-1.64 0.78,-2.14 0.18,-0.31 0.42,-0.59 0.63,-0.82 0.06,-0.07 0.11,-0.11 0.18,-0.17 1.97,-1.85 5.58,-1.46 7.6,-0.25 0.37,0.22 0.71,0.49 1.01,0.79 0.04,0.04 0.06,0.06 0.09,0.1 0.04,0.04 0.06,0.05 0.09,0.09l0.16 0.2c0.04,0.04 0.04,0.06 0.08,0.11 0.04,0.05 0.05,0.06 0.08,0.11 0.39,0.6 0.73,1.27 0.72,2.2 -0.01,1.1 -0.35,2.18 -0.99,3 -0.38,0.48 -0.81,0.88 -1.33,1.22 -0.59,0.38 -0.62,0.19 -0.59,0.86 0.04,0.99 0.27,2.16 0.61,3.04 0.05,0.12 0.17,0.42 0.23,0.49 0.13,0.15 0.41,0.05 0.47,-0.1 0.06,-0.15 -0.1,-0.41 -0.16,-0.55 -0.36,-0.89 -0.57,-2.06 -0.6,-3.05 0.12,-0.05 0.27,-0.15 0.37,-0.22l0.35 -0.25c0.27,-0.21 0.4,-0.31 0.64,-0.57 0.04,-0.05 0.1,-0.1 0.14,-0.14 0.04,-0.05 0.1,-0.11 0.14,-0.17l0.26 -0.33c0.9,-1.31 1.34,-3.14 0.74,-4.7 -0.27,-0.72 -0.71,-1.33 -1.2,-1.78 -0.22,-0.2 -0.39,-0.36 -0.65,-0.54 -1.13,-0.8 -2.52,-1.23 -4.11,-1.32 -1.52,-0.08 -3.04,0.21 -4.05,1 -0.29,0.23 -0.54,0.41 -0.79,0.71l-0.14 0.16c-0.37,0.41 -0.76,1.11 -1,1.7 -0.21,0.54 -0.5,1.34 -0.23,1.95 0.06,0.14 0.2,0.33 0.29,0.44 0.03,0.03 0.05,0.05 0.07,0.08 0.05,0.08 0.03,0.13 0,0.22 -0.39,1.13 -2.04,2.43 -0.92,3.13 0.21,0.13 0.61,0.27 0.88,0.32z"/>
   <path class="fil1" d="M13.73 14.37c-0.3,0.02 -0.68,0.01 -0.99,0 -0.15,-0 -0.27,-0.04 -0.38,-0.11 -0.68,-0.49 -0.41,-1.32 0.27,-1.42 0.15,-0.02 0.3,-0.03 0.27,-0.21 -0.02,-0.11 -0.39,-0.64 0.16,-1.06 0.55,-0.42 0.91,0.2 1.11,0.01 0.06,-0.06 0.1,-0.24 0.14,-0.33 0.3,-0.6 0.95,-0.54 1.23,-0.14 0.08,0.11 0.1,0.19 0.15,0.34 0.05,0.15 0.18,0.2 0.3,0.08 0.14,-0.14 0.29,-0.34 0.62,-0.35 0.32,-0.01 0.54,0.16 0.65,0.34 0.17,0.28 0.05,0.7 0.36,0.57 0.18,-0.08 0.4,-0.28 0.78,-0.11 0.19,0.08 0.38,0.29 0.43,0.54 0.08,0.41 -0.22,0.58 -0.21,0.75 0.01,0.25 0.37,0.08 0.66,0.33 0.43,0.37 0.31,1.06 -0.2,1.24 -0.21,0.07 -0.19,0.01 -0.37,-0.04 -0.14,-0.04 -0.3,-0.03 -0.46,-0.03 -0.33,-0 -0.66,-0.01 -0.99,-0.01 -0.59,-0.01 -1.29,-0.04 -1.63,0.33 -0.05,0.05 -0.07,0.1 -0.15,0.1 -0.14,0.01 -0.6,0 -0.7,-0.03 -0.56,-0.15 -0.66,-0.86 -0.18,-1.18 0.21,-0.14 0.58,-0.1 0.87,-0.1l1.48 -0c0.32,0 0.32,0.38 0.54,0.44 0.15,0.04 0.28,-0.04 0.33,-0.14 0.12,-0.25 -0.19,-0.56 -0.28,-0.62 0.02,-0.09 0.11,-0.18 0.16,-0.28 0.25,-0.56 -0.24,-0.73 -0.43,-0.48 -0.06,0.08 -0.13,0.51 -0.32,0.52 -0.62,0.05 -1.93,-0.11 -2.45,0.09 -0.28,0.11 -0.52,0.35 -0.64,0.63 -0.04,0.09 -0.07,0.26 -0.1,0.32zm0.1 -3.46c-0.29,-0.03 -0.41,-0.08 -0.71,0.02 -0.38,0.12 -0.68,0.4 -0.82,0.77 -0.11,0.27 -0.07,0.38 -0.07,0.67 -0.31,0.09 -0.61,0.4 -0.73,0.72 -0.15,0.41 -0.07,0.83 0.11,1.17 0.48,0.89 1.34,0.66 2.19,0.68 0.11,0.29 0.29,0.48 0.5,0.62 0.28,0.19 0.55,0.2 0.93,0.19 -0.02,0.25 -0.05,0.37 0.02,0.62 0.13,0.49 0.57,0.86 1.08,0.92 0.26,0.03 0.33,-0.01 0.54,0.14 0.12,0.08 0.22,0.2 0.27,0.39 0.05,0.22 0.1,1.02 0.19,1.13 0.11,0.15 0.34,0.16 0.46,0.01 0.1,-0.13 0.03,-0.38 0,-0.55 -0.05,-0.39 -0.07,-0.78 -0.26,-1.08 -0.44,-0.7 -1.08,-0.53 -1.35,-0.65 -0.47,-0.21 -0.61,-0.89 -0.06,-1.25 0.22,-0.15 0.92,-0.11 1.24,-0.1 0.25,0 1.14,-0.03 1.29,0.05 0.13,0.07 0.19,0.3 0.06,0.45 -0.12,0.13 -0.36,0.1 -0.57,0.1 -0.23,0 -0.45,0 -0.68,0 -0.23,0 -0.43,-0.04 -0.51,0.15 -0.08,0.2 0.04,0.38 0.22,0.41 0.18,0.02 0.47,0 0.66,0 0.44,0 0.86,0.07 1.17,-0.18 0.28,-0.22 0.39,-0.47 0.3,-0.96 0.44,-0.12 0.79,-0.64 0.81,-1.15 0.01,-0.29 -0.08,-0.56 -0.21,-0.76 -0.12,-0.17 -0.33,-0.39 -0.53,-0.44 0.05,-0.29 0.08,-0.45 -0.01,-0.73 -0.12,-0.4 -0.4,-0.69 -0.8,-0.84 -0.28,-0.1 -0.43,-0.08 -0.73,-0.05 -0.04,-0.14 -0.21,-0.35 -0.28,-0.42 -0.26,-0.25 -0.62,-0.39 -1.01,-0.36 -0.3,0.02 -0.37,0.11 -0.53,0.16 -0.06,-0.14 -0.29,-0.31 -0.45,-0.4 -0.2,-0.1 -0.44,-0.16 -0.7,-0.13 -0.53,0.05 -0.74,0.29 -1.02,0.66z"/>
   <path class="fil1" d="M13.87 13.01c0.43,0.05 0.75,0.05 1.12,-0.24 0.12,-0.09 0.15,-0.15 0.24,-0.24 0.33,0.13 0.69,0.19 1.04,0.04 0.55,-0.22 0.31,-0.63 0.04,-0.62 -0.15,0 -0.56,0.33 -0.94,0.02 -0.08,-0.06 -0.25,-0.3 -0.4,-0.17 -0.07,0.07 -0.07,0.22 -0.22,0.41 -0.16,0.22 -0.54,0.37 -0.89,0.19 -0.11,-0.05 -0.31,-0.24 -0.42,-0.1 -0.06,0.07 -0.05,0.39 -0.1,0.53 -0.07,0.2 -0.19,0.23 -0.26,0.35 -0.1,0.17 -0.01,0.36 0.14,0.41 0.3,0.11 0.58,-0.36 0.66,-0.58z"/>
   <path class="fil0" d="M45.51 19.52c0,0.5 -0.09,0.94 -0.28,1.32 -0.19,0.38 -0.44,0.69 -0.76,0.95 -0.32,0.25 -0.7,0.44 -1.13,0.57 -0.43,0.13 -0.89,0.19 -1.38,0.19 -0.33,0 -0.64,-0.03 -0.92,-0.08 -0.28,-0.06 -0.53,-0.12 -0.75,-0.2 -0.22,-0.08 -0.4,-0.16 -0.54,-0.24 -0.15,-0.09 -0.25,-0.16 -0.32,-0.22 -0.06,-0.07 -0.11,-0.16 -0.14,-0.28 -0.03,-0.12 -0.04,-0.29 -0.04,-0.52 0,-0.15 0.01,-0.28 0.02,-0.38 0.01,-0.1 0.03,-0.19 0.05,-0.25 0.02,-0.06 0.05,-0.11 0.09,-0.14 0.04,-0.03 0.08,-0.04 0.13,-0.04 0.07,0 0.17,0.04 0.29,0.12 0.13,0.08 0.29,0.17 0.48,0.27 0.2,0.1 0.43,0.19 0.71,0.27 0.27,0.08 0.59,0.12 0.95,0.12 0.24,0 0.45,-0.03 0.64,-0.08 0.19,-0.06 0.35,-0.14 0.48,-0.24 0.13,-0.1 0.23,-0.23 0.3,-0.38 0.07,-0.15 0.1,-0.32 0.1,-0.51 0,-0.22 -0.06,-0.4 -0.18,-0.56 -0.12,-0.16 -0.27,-0.29 -0.46,-0.41 -0.19,-0.12 -0.41,-0.23 -0.65,-0.34 -0.24,-0.11 -0.49,-0.22 -0.75,-0.34 -0.26,-0.12 -0.51,-0.25 -0.75,-0.4 -0.24,-0.15 -0.46,-0.33 -0.65,-0.54 -0.19,-0.21 -0.35,-0.46 -0.46,-0.74 -0.12,-0.29 -0.18,-0.63 -0.18,-1.03 0,-0.46 0.09,-0.86 0.25,-1.21 0.17,-0.35 0.4,-0.63 0.69,-0.86 0.29,-0.23 0.63,-0.4 1.02,-0.51 0.39,-0.11 0.81,-0.17 1.25,-0.17 0.22,0 0.45,0.02 0.68,0.05 0.23,0.03 0.44,0.08 0.64,0.14 0.2,0.06 0.37,0.13 0.52,0.2 0.15,0.08 0.25,0.14 0.3,0.19 0.05,0.05 0.08,0.09 0.1,0.12 0.02,0.04 0.03,0.08 0.05,0.14 0.01,0.06 0.02,0.13 0.03,0.21 0.01,0.09 0.01,0.19 0.01,0.32 0,0.14 -0,0.26 -0.01,0.36 -0.01,0.1 -0.02,0.18 -0.04,0.24 -0.02,0.06 -0.04,0.11 -0.07,0.14 -0.03,0.03 -0.08,0.05 -0.13,0.05 -0.05,0 -0.14,-0.04 -0.26,-0.1 -0.12,-0.07 -0.26,-0.14 -0.44,-0.23 -0.17,-0.08 -0.37,-0.15 -0.6,-0.22 -0.23,-0.07 -0.47,-0.1 -0.75,-0.1 -0.21,0 -0.4,0.03 -0.55,0.08 -0.16,0.05 -0.29,0.12 -0.39,0.21 -0.11,0.09 -0.19,0.2 -0.24,0.33 -0.05,0.13 -0.08,0.26 -0.08,0.41 0,0.21 0.06,0.4 0.17,0.55 0.12,0.16 0.27,0.3 0.47,0.42 0.19,0.12 0.42,0.23 0.66,0.34 0.24,0.11 0.5,0.22 0.75,0.34 0.26,0.12 0.51,0.25 0.75,0.4 0.25,0.15 0.47,0.33 0.66,0.54 0.19,0.21 0.35,0.45 0.47,0.74 0.12,0.28 0.18,0.62 0.18,1zm32.27 0c0,0.5 -0.09,0.94 -0.28,1.32 -0.19,0.38 -0.44,0.69 -0.76,0.95 -0.32,0.25 -0.7,0.44 -1.13,0.57 -0.43,0.13 -0.89,0.19 -1.38,0.19 -0.33,0 -0.64,-0.03 -0.92,-0.08 -0.28,-0.06 -0.53,-0.12 -0.75,-0.2 -0.22,-0.08 -0.4,-0.16 -0.54,-0.24 -0.15,-0.09 -0.25,-0.16 -0.32,-0.22 -0.06,-0.07 -0.11,-0.16 -0.14,-0.28 -0.03,-0.12 -0.04,-0.29 -0.04,-0.52 0,-0.15 0.01,-0.28 0.02,-0.38 0.01,-0.1 0.03,-0.19 0.05,-0.25 0.02,-0.06 0.05,-0.11 0.09,-0.14 0.04,-0.03 0.08,-0.04 0.13,-0.04 0.07,0 0.17,0.04 0.29,0.12 0.13,0.08 0.29,0.17 0.48,0.27 0.2,0.1 0.43,0.19 0.71,0.27 0.27,0.08 0.59,0.12 0.95,0.12 0.24,0 0.45,-0.03 0.64,-0.08 0.19,-0.06 0.35,-0.14 0.48,-0.24 0.13,-0.1 0.23,-0.23 0.3,-0.38 0.07,-0.15 0.1,-0.32 0.1,-0.51 0,-0.22 -0.06,-0.4 -0.18,-0.56 -0.12,-0.16 -0.27,-0.29 -0.46,-0.41 -0.19,-0.12 -0.41,-0.23 -0.65,-0.34 -0.24,-0.11 -0.49,-0.22 -0.75,-0.34 -0.26,-0.12 -0.51,-0.25 -0.75,-0.4 -0.24,-0.15 -0.46,-0.33 -0.65,-0.54 -0.19,-0.21 -0.35,-0.46 -0.46,-0.74 -0.12,-0.29 -0.18,-0.63 -0.18,-1.03 0,-0.46 0.09,-0.86 0.25,-1.21 0.17,-0.35 0.4,-0.63 0.69,-0.86 0.29,-0.23 0.63,-0.4 1.02,-0.51 0.39,-0.11 0.81,-0.17 1.25,-0.17 0.22,0 0.45,0.02 0.68,0.05 0.23,0.03 0.44,0.08 0.64,0.14 0.2,0.06 0.37,0.13 0.52,0.2 0.15,0.08 0.25,0.14 0.3,0.19 0.05,0.05 0.08,0.09 0.1,0.12 0.02,0.04 0.03,0.08 0.05,0.14 0.01,0.06 0.02,0.13 0.03,0.21 0.01,0.09 0.01,0.19 0.01,0.32 0,0.14 -0,0.26 -0.01,0.36 -0.01,0.1 -0.02,0.18 -0.04,0.24 -0.02,0.06 -0.04,0.11 -0.07,0.14 -0.03,0.03 -0.08,0.05 -0.13,0.05 -0.05,0 -0.14,-0.04 -0.26,-0.1 -0.12,-0.07 -0.26,-0.14 -0.44,-0.23 -0.17,-0.08 -0.37,-0.15 -0.6,-0.22 -0.23,-0.07 -0.47,-0.1 -0.75,-0.1 -0.21,0 -0.4,0.03 -0.55,0.08 -0.16,0.05 -0.29,0.12 -0.39,0.21 -0.11,0.09 -0.19,0.2 -0.24,0.33 -0.05,0.13 -0.08,0.26 -0.08,0.41 0,0.21 0.06,0.4 0.17,0.55 0.12,0.16 0.27,0.3 0.47,0.42 0.19,0.12 0.42,0.23 0.66,0.34 0.24,0.11 0.5,0.22 0.75,0.34 0.26,0.12 0.51,0.25 0.75,0.4 0.25,0.15 0.47,0.33 0.66,0.54 0.19,0.21 0.35,0.45 0.47,0.74 0.12,0.28 0.18,0.62 0.18,1zm-6.82 2.06c0,0.15 -0.01,0.27 -0.02,0.37 -0.01,0.1 -0.03,0.18 -0.06,0.25 -0.03,0.07 -0.06,0.12 -0.09,0.14 -0.04,0.03 -0.08,0.05 -0.13,0.05l-4.38 0c-0.16,0 -0.3,-0.05 -0.41,-0.14 -0.11,-0.1 -0.17,-0.25 -0.17,-0.47l0 -8.69c0,-0.05 0.02,-0.09 0.05,-0.13 0.03,-0.04 0.09,-0.07 0.16,-0.1 0.07,-0.03 0.17,-0.04 0.3,-0.06 0.13,-0.02 0.28,-0.02 0.47,-0.02 0.19,0 0.35,0.01 0.47,0.02 0.12,0.02 0.22,0.03 0.3,0.06 0.07,0.03 0.13,0.06 0.16,0.1 0.03,0.04 0.05,0.09 0.05,0.13l0 7.7 3 0c0.05,0 0.09,0.01 0.13,0.04 0.04,0.03 0.07,0.07 0.09,0.13 0.03,0.06 0.04,0.14 0.06,0.24 0.01,0.1 0.02,0.22 0.02,0.37zm-6.4 0c0,0.15 -0.01,0.27 -0.02,0.37 -0.01,0.1 -0.03,0.18 -0.06,0.25 -0.03,0.07 -0.06,0.12 -0.09,0.14 -0.04,0.03 -0.08,0.05 -0.13,0.05l-4.38 0c-0.16,0 -0.3,-0.05 -0.41,-0.14 -0.11,-0.1 -0.17,-0.25 -0.17,-0.47l0 -8.69c0,-0.05 0.02,-0.09 0.05,-0.13 0.03,-0.04 0.09,-0.07 0.16,-0.1 0.07,-0.03 0.17,-0.04 0.3,-0.06 0.13,-0.02 0.28,-0.02 0.47,-0.02 0.19,0 0.35,0.01 0.47,0.02 0.12,0.02 0.22,0.03 0.3,0.06 0.07,0.03 0.13,0.06 0.16,0.1 0.03,0.04 0.05,0.09 0.05,0.13l0 7.7 3 0c0.05,0 0.09,0.01 0.13,0.04 0.04,0.03 0.07,0.07 0.09,0.13 0.03,0.06 0.04,0.14 0.06,0.24 0.01,0.1 0.02,0.22 0.02,0.37zm-7.34 0.55c0,0.05 -0.02,0.09 -0.05,0.13 -0.03,0.04 -0.09,0.07 -0.16,0.1 -0.07,0.02 -0.17,0.04 -0.3,0.06 -0.12,0.02 -0.28,0.02 -0.47,0.02 -0.19,0 -0.34,-0.01 -0.47,-0.02 -0.13,-0.02 -0.23,-0.04 -0.3,-0.06 -0.07,-0.03 -0.13,-0.06 -0.16,-0.1 -0.03,-0.04 -0.05,-0.09 -0.05,-0.13l0 -9.04c0,-0.05 0.02,-0.09 0.05,-0.13 0.03,-0.04 0.09,-0.07 0.16,-0.1 0.08,-0.03 0.17,-0.04 0.3,-0.06 0.12,-0.02 0.28,-0.02 0.47,-0.02 0.19,0 0.35,0.01 0.47,0.02 0.12,0.02 0.22,0.03 0.3,0.06 0.07,0.03 0.13,0.06 0.16,0.1 0.03,0.04 0.05,0.09 0.05,0.13l0 9.04zm-3.25 -0.02c0,0.06 -0.01,0.1 -0.04,0.14 -0.03,0.04 -0.08,0.08 -0.16,0.1 -0.08,0.03 -0.18,0.05 -0.31,0.06 -0.13,0.02 -0.3,0.02 -0.5,0.02 -0.32,0 -0.55,-0.01 -0.69,-0.04 -0.14,-0.02 -0.24,-0.06 -0.3,-0.11 -0.06,-0.05 -0.11,-0.11 -0.14,-0.18l-2.89 -4.54 0 4.54c0,0.05 -0.02,0.1 -0.05,0.14 -0.03,0.04 -0.08,0.07 -0.15,0.1 -0.07,0.03 -0.17,0.05 -0.3,0.06 -0.12,0.02 -0.28,0.02 -0.47,0.02 -0.19,0 -0.34,-0.01 -0.47,-0.02 -0.13,-0.02 -0.22,-0.04 -0.3,-0.06 -0.07,-0.03 -0.13,-0.06 -0.16,-0.1 -0.03,-0.04 -0.05,-0.09 -0.05,-0.14l0 -9.01c0,-0.06 0.02,-0.1 0.05,-0.14 0.03,-0.04 0.09,-0.07 0.16,-0.1 0.07,-0.03 0.17,-0.04 0.3,-0.06 0.13,-0.02 0.28,-0.02 0.47,-0.02 0.19,0 0.35,0.01 0.47,0.02 0.12,0.02 0.22,0.03 0.3,0.06 0.07,0.03 0.13,0.06 0.15,0.1 0.03,0.04 0.05,0.09 0.05,0.14l0 4.07 2.8 -4.07c0.04,-0.06 0.08,-0.12 0.13,-0.16 0.05,-0.04 0.11,-0.08 0.19,-0.1 0.08,-0.02 0.18,-0.04 0.3,-0.05 0.12,-0.01 0.28,-0.02 0.47,-0.02 0.2,0 0.36,0.01 0.49,0.02 0.13,0.02 0.23,0.04 0.31,0.06 0.08,0.03 0.13,0.06 0.16,0.1 0.03,0.04 0.05,0.08 0.05,0.13 0,0.08 -0.02,0.17 -0.07,0.26 -0.05,0.09 -0.13,0.23 -0.25,0.42l-2.62 3.44 2.86 4.32c0.11,0.2 0.17,0.34 0.2,0.4 0.02,0.07 0.03,0.12 0.03,0.16z"/>
  </g>
 </g>
</svg>
