<?xml version="1.0" encoding="UTF-8"?>
<!DOCTYPE svg PUBLIC "-//W3C//DTD SVG 1.1//EN" "http://www.w3.org/Graphics/SVG/1.1/DTD/svg11.dtd">
<!-- Creator: CorelDRAW 2021 (64-Bit) -->
<svg xmlns="http://www.w3.org/2000/svg" xml:space="preserve" width="5.76084in" height="0.462102in" version="1.1" style="shape-rendering:geometricPrecision; text-rendering:geometricPrecision; image-rendering:optimizeQuality; fill-rule:evenodd; clip-rule:evenodd"
viewBox="0 0 596.17 47.82"
 xmlns:xlink="http://www.w3.org/1999/xlink"
 xmlns:xodm="http://www.corel.com/coreldraw/odm/2003">
 <defs>
  <style type="text/css">
   <![CDATA[
    .fil1 {fill:#FEFEFE}
    .fil2 {fill:#4B4B4D}
    .fil0 {fill:#F79421}
   ]]>
  </style>
 </defs>
 <g id="Layer_x0020_1">
  <metadata id="CorelCorpID_0Corel-Layer"/>
  <g id="_2180122370272">
   <path class="fil0" d="M23.91 0c13.21,0 23.91,10.7 23.91,23.91 0.58,10.16 11.71,14.93 17.14,15.15l526.84 0c2.41,0 4.38,1.97 4.38,4.38l0 0c0,2.41 -1.97,4.38 -4.38,4.38l-567.89 -0c-13.21,0 -23.91,-10.7 -23.91,-23.91 0,-13.21 10.7,-23.91 23.91,-23.91zm0 8.76c8.37,0 15.15,6.78 15.15,15.15 0,8.37 -6.78,15.15 -15.15,15.15 -8.37,0 -15.15,-6.78 -15.15,-15.15 0,-8.37 6.78,-15.15 15.15,-15.15z"/>
   <path class="fil1" d="M15.12 28.35c-0.04,0.39 -0.1,1 -0.22,1.34 -0.08,0.24 -0.05,0.44 0.12,0.56 0.06,0.05 0.17,0.1 0.25,0.14 0.08,0.04 0.17,0.09 0.23,0.15 -0.68,0.86 -0.14,0.79 0.2,1.29 0.48,0.69 -0.24,2.45 1.94,2.4 0.7,-0.02 1.4,-0.05 2.09,-0.11 0.69,-0.05 2.18,-0.16 2.79,-0.46 0.14,-0.07 0.22,-0.11 0.34,-0.2 0.94,-0.66 1.41,-1.8 1.81,-3.11 0.09,-0.28 0.17,-0.55 0.25,-0.84 0.1,-0.34 0.02,-0.63 -0.33,-0.67 -0.39,-0.05 -0.44,0.23 -0.53,0.54 -0.36,1.24 -0.87,3.04 -1.95,3.52 -0.69,0.3 -3.02,0.42 -3.91,0.45 -0.79,0.03 -1.38,0.21 -1.45,-0.67 -0.03,-0.39 -0,-0.58 -0.15,-0.94 -0.07,-0.17 -0.19,-0.38 -0.31,-0.52 -0.05,-0.06 -0.08,-0.09 -0.13,-0.15 0.05,-0.08 0.09,-0.11 0.16,-0.17 0.09,-0.08 0.12,-0.09 0.19,-0.15 0.22,-0.18 0.22,-0.58 -0.29,-0.83 -0.13,-0.06 -0.36,-0.16 -0.44,-0.25l0.18 -1.2c0.34,-0 0.61,-0.17 0.52,-0.54 -0.09,-0.4 -0.51,-0.3 -0.77,-0.34 -0.45,-0.08 -1.4,-0.35 -1.64,-0.58 -0.24,-0.24 0.68,-1.49 0.86,-1.78l0.64 -1.04c1.25,-2.21 -0.27,-1.73 -0.27,-3.13 -0,-0.92 0.74,-2.49 1.19,-3.25 0.28,-0.47 0.64,-0.89 0.95,-1.24 0.1,-0.11 0.17,-0.17 0.28,-0.26 2.99,-2.81 8.47,-2.22 11.54,-0.39 0.56,0.33 1.08,0.74 1.53,1.2 0.05,0.05 0.09,0.09 0.14,0.15 0.06,0.06 0.09,0.08 0.14,0.14l0.24 0.3c0.06,0.07 0.06,0.1 0.12,0.16 0.06,0.07 0.07,0.08 0.12,0.16 0.6,0.9 1.1,1.94 1.09,3.34 -0.02,1.68 -0.53,3.31 -1.5,4.55 -0.57,0.73 -1.24,1.34 -2.02,1.85 -0.9,0.58 -0.94,0.29 -0.9,1.31 0.06,1.51 0.41,3.28 0.93,4.61 0.07,0.18 0.26,0.64 0.35,0.74 0.2,0.22 0.62,0.08 0.71,-0.15 0.1,-0.23 -0.15,-0.63 -0.24,-0.84 -0.54,-1.36 -0.87,-3.13 -0.91,-4.64 0.18,-0.08 0.4,-0.23 0.56,-0.34l0.53 -0.37c0.4,-0.32 0.61,-0.47 0.97,-0.86 0.07,-0.07 0.15,-0.15 0.22,-0.22 0.06,-0.07 0.16,-0.17 0.21,-0.25l0.39 -0.51c1.37,-1.98 2.04,-4.76 1.13,-7.14 -0.42,-1.09 -1.08,-2.01 -1.83,-2.71 -0.33,-0.31 -0.6,-0.55 -0.98,-0.82 -1.72,-1.21 -3.82,-1.87 -6.24,-2.01 -2.3,-0.12 -4.62,0.33 -6.16,1.52 -0.44,0.34 -0.83,0.62 -1.2,1.07l-0.22 0.25c-0.56,0.63 -1.16,1.68 -1.51,2.59 -0.32,0.83 -0.76,2.04 -0.34,2.96 0.09,0.21 0.3,0.5 0.44,0.67 0.04,0.05 0.07,0.08 0.1,0.13 0.08,0.12 0.05,0.19 0,0.34 -0.6,1.72 -3.1,3.69 -1.4,4.75 0.32,0.2 0.92,0.42 1.34,0.49z"/>
   <path class="fil1" d="M20.86 21.82c-0.45,0.03 -1.03,0.01 -1.5,0 -0.23,-0 -0.41,-0.06 -0.57,-0.17 -1.04,-0.75 -0.62,-2.01 0.41,-2.16 0.22,-0.03 0.45,-0.04 0.41,-0.31 -0.02,-0.17 -0.59,-0.97 0.25,-1.61 0.83,-0.64 1.38,0.3 1.69,0.01 0.09,-0.09 0.15,-0.37 0.21,-0.51 0.45,-0.92 1.44,-0.82 1.87,-0.21 0.12,0.17 0.15,0.3 0.22,0.52 0.08,0.23 0.28,0.3 0.45,0.12 0.21,-0.22 0.44,-0.52 0.94,-0.54 0.49,-0.02 0.82,0.25 0.98,0.52 0.26,0.43 0.08,1.07 0.55,0.87 0.28,-0.12 0.61,-0.42 1.18,-0.17 0.29,0.13 0.58,0.44 0.65,0.82 0.12,0.62 -0.33,0.89 -0.33,1.15 0.01,0.39 0.56,0.12 1,0.51 0.66,0.56 0.48,1.61 -0.31,1.88 -0.33,0.11 -0.28,0.01 -0.55,-0.06 -0.22,-0.06 -0.46,-0.04 -0.7,-0.04 -0.5,-0 -1,-0.01 -1.5,-0.02 -0.9,-0.01 -1.96,-0.06 -2.48,0.5 -0.07,0.07 -0.1,0.15 -0.23,0.16 -0.21,0.02 -0.9,0 -1.07,-0.04 -0.84,-0.23 -1.01,-1.3 -0.27,-1.79 0.32,-0.22 0.88,-0.15 1.32,-0.15l2.25 -0c0.49,0 0.48,0.58 0.82,0.67 0.22,0.06 0.43,-0.06 0.5,-0.21 0.18,-0.37 -0.28,-0.85 -0.43,-0.95 0.03,-0.13 0.16,-0.27 0.24,-0.43 0.38,-0.86 -0.36,-1.1 -0.66,-0.74 -0.09,0.12 -0.2,0.77 -0.49,0.8 -0.94,0.08 -2.94,-0.17 -3.73,0.14 -0.43,0.17 -0.79,0.53 -0.97,0.96 -0.06,0.14 -0.1,0.4 -0.15,0.49zm0.15 -5.26c-0.45,-0.04 -0.62,-0.12 -1.09,0.03 -0.58,0.18 -1.03,0.61 -1.25,1.17 -0.16,0.41 -0.11,0.58 -0.11,1.02 -0.48,0.14 -0.93,0.61 -1.1,1.1 -0.22,0.62 -0.1,1.26 0.17,1.77 0.73,1.35 2.04,1 3.32,1.04 0.16,0.44 0.44,0.74 0.75,0.95 0.43,0.29 0.83,0.3 1.42,0.29 -0.03,0.39 -0.08,0.56 0.03,0.95 0.2,0.74 0.86,1.31 1.64,1.4 0.4,0.05 0.5,-0.01 0.82,0.21 0.18,0.12 0.34,0.31 0.41,0.6 0.08,0.34 0.16,1.54 0.29,1.72 0.17,0.23 0.52,0.24 0.7,0.01 0.15,-0.2 0.04,-0.58 0.01,-0.84 -0.08,-0.6 -0.1,-1.19 -0.39,-1.64 -0.67,-1.06 -1.64,-0.8 -2.06,-0.99 -0.71,-0.32 -0.92,-1.35 -0.1,-1.9 0.34,-0.23 1.4,-0.16 1.88,-0.16 0.38,0 1.73,-0.05 1.96,0.08 0.2,0.11 0.29,0.46 0.09,0.68 -0.18,0.2 -0.54,0.15 -0.86,0.15 -0.34,0 -0.69,0 -1.03,0 -0.35,0 -0.65,-0.05 -0.77,0.23 -0.13,0.3 0.06,0.58 0.33,0.62 0.27,0.03 0.72,0 1.01,0 0.66,0 1.31,0.1 1.78,-0.27 0.43,-0.33 0.6,-0.71 0.46,-1.45 0.68,-0.19 1.2,-0.98 1.23,-1.74 0.02,-0.45 -0.12,-0.85 -0.32,-1.15 -0.17,-0.26 -0.5,-0.59 -0.81,-0.67 0.07,-0.43 0.12,-0.68 -0.01,-1.11 -0.19,-0.61 -0.61,-1.05 -1.21,-1.27 -0.43,-0.16 -0.66,-0.12 -1.11,-0.07 -0.06,-0.21 -0.32,-0.53 -0.43,-0.63 -0.4,-0.38 -0.94,-0.59 -1.53,-0.54 -0.45,0.04 -0.56,0.17 -0.8,0.24 -0.09,-0.21 -0.44,-0.47 -0.69,-0.6 -0.3,-0.16 -0.67,-0.24 -1.06,-0.2 -0.8,0.07 -1.12,0.44 -1.55,1.01z"/>
   <path class="fil1" d="M21.08 19.77c0.65,0.08 1.14,0.08 1.7,-0.37 0.18,-0.14 0.23,-0.23 0.36,-0.36 0.49,0.2 1.05,0.28 1.59,0.06 0.83,-0.34 0.47,-0.95 0.07,-0.95 -0.22,0 -0.85,0.51 -1.43,0.02 -0.12,-0.1 -0.38,-0.46 -0.61,-0.25 -0.11,0.1 -0.11,0.34 -0.33,0.62 -0.24,0.33 -0.81,0.55 -1.35,0.29 -0.17,-0.08 -0.47,-0.36 -0.65,-0.15 -0.09,0.11 -0.07,0.59 -0.15,0.8 -0.11,0.3 -0.29,0.35 -0.39,0.54 -0.15,0.26 -0.01,0.54 0.21,0.62 0.46,0.16 0.88,-0.54 1,-0.88z"/>
   <path class="fil2" d="M70.47 23.9c0,0.82 -0.13,1.54 -0.38,2.17 -0.25,0.63 -0.62,1.16 -1.12,1.59 -0.49,0.43 -1.08,0.76 -1.79,0.99 -0.71,0.23 -1.54,0.34 -2.51,0.34l-1.22 0 0 4.63c0,0.08 -0.02,0.14 -0.07,0.2 -0.05,0.06 -0.13,0.11 -0.24,0.15 -0.11,0.04 -0.26,0.07 -0.45,0.09 -0.18,0.02 -0.43,0.03 -0.71,0.03 -0.28,0 -0.52,-0.01 -0.71,-0.03 -0.19,-0.02 -0.34,-0.05 -0.45,-0.09 -0.11,-0.04 -0.19,-0.09 -0.23,-0.15 -0.05,-0.06 -0.07,-0.13 -0.07,-0.2l0 -13.07c0,-0.35 0.09,-0.62 0.28,-0.79 0.18,-0.18 0.43,-0.26 0.72,-0.26l3.43 0c0.35,0 0.67,0.01 0.99,0.04 0.31,0.03 0.68,0.08 1.12,0.17 0.43,0.09 0.87,0.25 1.32,0.48 0.44,0.23 0.83,0.53 1.14,0.88 0.31,0.36 0.56,0.77 0.72,1.25 0.16,0.48 0.25,1.01 0.25,1.6zm237.94 4.6l0 5.11c0,0.07 -0.02,0.14 -0.07,0.2 -0.05,0.06 -0.13,0.11 -0.24,0.15 -0.11,0.03 -0.26,0.07 -0.46,0.09 -0.19,0.02 -0.43,0.03 -0.71,0.03 -0.29,0 -0.53,-0.01 -0.72,-0.03 -0.18,-0.02 -0.34,-0.05 -0.45,-0.09 -0.12,-0.04 -0.2,-0.09 -0.24,-0.15 -0.05,-0.06 -0.07,-0.13 -0.07,-0.2l0 -5.11 -3.98 -7.92c-0.14,-0.28 -0.23,-0.49 -0.28,-0.65 -0.04,-0.15 -0.02,-0.27 0.07,-0.35 0.08,-0.08 0.25,-0.13 0.48,-0.15 0.23,-0.02 0.55,-0.03 0.96,-0.03 0.34,0 0.62,0.01 0.82,0.02 0.21,0.02 0.37,0.04 0.49,0.08 0.12,0.04 0.21,0.1 0.26,0.16 0.05,0.07 0.11,0.15 0.16,0.26l1.63 3.57c0.16,0.35 0.31,0.71 0.47,1.09 0.16,0.38 0.31,0.78 0.47,1.2l0.02 0c0.14,-0.41 0.29,-0.8 0.44,-1.18 0.15,-0.38 0.3,-0.74 0.44,-1.09l1.6 -3.55c0.04,-0.12 0.08,-0.22 0.14,-0.29 0.05,-0.07 0.14,-0.13 0.25,-0.18 0.11,-0.04 0.26,-0.07 0.46,-0.09 0.19,-0.02 0.45,-0.02 0.77,-0.02 0.43,0 0.76,0.01 0.99,0.03 0.24,0.02 0.4,0.07 0.48,0.15 0.09,0.08 0.11,0.2 0.06,0.36 -0.04,0.16 -0.13,0.37 -0.27,0.64l-3.98 7.92zm-7.6 5.14c0,0.08 -0.02,0.15 -0.05,0.21 -0.03,0.06 -0.1,0.1 -0.21,0.14 -0.12,0.03 -0.28,0.06 -0.49,0.08 -0.22,0.02 -0.51,0.02 -0.89,0.02 -0.31,0 -0.56,-0.01 -0.75,-0.02 -0.19,-0.02 -0.34,-0.04 -0.44,-0.08 -0.11,-0.04 -0.18,-0.09 -0.23,-0.16 -0.04,-0.07 -0.08,-0.14 -0.11,-0.23l-1.31 -3.25c-0.16,-0.37 -0.31,-0.7 -0.46,-0.98 -0.15,-0.29 -0.32,-0.53 -0.5,-0.72 -0.18,-0.19 -0.4,-0.33 -0.64,-0.43 -0.24,-0.1 -0.52,-0.15 -0.83,-0.15l-0.92 0 0 5.55c0,0.07 -0.02,0.14 -0.07,0.2 -0.05,0.06 -0.13,0.11 -0.24,0.15 -0.11,0.03 -0.26,0.07 -0.45,0.09 -0.18,0.02 -0.43,0.03 -0.71,0.03 -0.28,0 -0.52,-0.01 -0.71,-0.03 -0.19,-0.02 -0.34,-0.05 -0.45,-0.09 -0.11,-0.04 -0.19,-0.09 -0.23,-0.15 -0.05,-0.06 -0.07,-0.13 -0.07,-0.2l0 -13.2c0,-0.33 0.08,-0.57 0.25,-0.71 0.17,-0.15 0.38,-0.22 0.62,-0.22l3.76 0c0.38,0 0.7,0.01 0.94,0.02 0.25,0.02 0.47,0.03 0.67,0.05 0.58,0.08 1.11,0.23 1.58,0.43 0.47,0.2 0.87,0.46 1.19,0.79 0.33,0.33 0.58,0.71 0.75,1.15 0.17,0.44 0.26,0.95 0.26,1.53 0,0.48 -0.06,0.93 -0.18,1.33 -0.13,0.4 -0.31,0.76 -0.55,1.07 -0.24,0.31 -0.53,0.59 -0.89,0.82 -0.35,0.23 -0.75,0.42 -1.2,0.56 0.22,0.1 0.42,0.23 0.61,0.38 0.19,0.15 0.37,0.33 0.54,0.55 0.17,0.21 0.33,0.46 0.48,0.73 0.15,0.27 0.29,0.58 0.44,0.93l1.23 2.87c0.11,0.28 0.19,0.49 0.22,0.62 0.04,0.13 0.06,0.23 0.06,0.31zm-3.82 -9.87c0,-0.48 -0.11,-0.89 -0.33,-1.21 -0.22,-0.33 -0.58,-0.56 -1.07,-0.7 -0.15,-0.04 -0.32,-0.07 -0.51,-0.09 -0.19,-0.02 -0.46,-0.03 -0.79,-0.03l-1.33 0 0 4.12 1.51 0c0.42,0 0.79,-0.05 1.1,-0.15 0.32,-0.1 0.58,-0.24 0.79,-0.43 0.21,-0.18 0.37,-0.4 0.47,-0.66 0.1,-0.25 0.16,-0.54 0.16,-0.85zm-9 9.15c0.09,0.27 0.15,0.48 0.17,0.64 0.02,0.16 -0.01,0.28 -0.09,0.36 -0.08,0.08 -0.23,0.13 -0.44,0.15 -0.21,0.02 -0.5,0.03 -0.86,0.03 -0.38,0 -0.68,-0 -0.89,-0.02 -0.21,-0.01 -0.38,-0.03 -0.49,-0.07 -0.11,-0.03 -0.19,-0.08 -0.23,-0.14 -0.05,-0.06 -0.08,-0.14 -0.11,-0.23l-0.95 -2.92 -5.48 0 -0.92 2.84c-0.03,0.11 -0.07,0.2 -0.12,0.26 -0.05,0.07 -0.13,0.13 -0.23,0.17 -0.11,0.04 -0.26,0.07 -0.46,0.08 -0.2,0.02 -0.46,0.02 -0.78,0.02 -0.35,0 -0.61,-0.01 -0.81,-0.03 -0.2,-0.02 -0.33,-0.08 -0.4,-0.16 -0.08,-0.09 -0.1,-0.21 -0.08,-0.37 0.02,-0.16 0.08,-0.36 0.17,-0.63l4.48 -12.9c0.04,-0.13 0.1,-0.23 0.16,-0.31 0.06,-0.08 0.15,-0.14 0.28,-0.18 0.13,-0.04 0.31,-0.07 0.55,-0.08 0.23,-0.01 0.54,-0.02 0.92,-0.02 0.44,0 0.79,0 1.05,0.02 0.26,0.01 0.47,0.04 0.61,0.08 0.15,0.04 0.25,0.1 0.31,0.18 0.06,0.08 0.12,0.2 0.16,0.34l4.49 12.89zm-6.67 -10.67l-0.01 0 -2.02 6.18 4.08 0 -2.04 -6.18zm-8.41 11.37c0,0.07 -0.02,0.14 -0.06,0.2 -0.04,0.06 -0.12,0.11 -0.23,0.15 -0.11,0.03 -0.25,0.07 -0.43,0.09 -0.18,0.02 -0.41,0.03 -0.69,0.03 -0.27,0 -0.5,-0.01 -0.68,-0.03 -0.18,-0.02 -0.32,-0.05 -0.43,-0.09 -0.1,-0.04 -0.18,-0.09 -0.22,-0.15 -0.05,-0.06 -0.07,-0.13 -0.07,-0.2l0 -11.83 -0.02 0 -4.2 11.82c-0.03,0.1 -0.08,0.18 -0.15,0.24 -0.07,0.07 -0.16,0.11 -0.28,0.15 -0.11,0.03 -0.26,0.06 -0.44,0.07 -0.18,0.01 -0.4,0.02 -0.65,0.02 -0.26,0 -0.47,-0.01 -0.65,-0.03 -0.18,-0.02 -0.33,-0.05 -0.44,-0.09 -0.11,-0.04 -0.21,-0.09 -0.28,-0.15 -0.07,-0.06 -0.11,-0.13 -0.13,-0.21l-4.05 -11.82 -0.02 0 0 11.83c0,0.07 -0.02,0.14 -0.06,0.2 -0.04,0.06 -0.12,0.11 -0.23,0.15 -0.11,0.03 -0.26,0.07 -0.44,0.09 -0.18,0.02 -0.4,0.03 -0.68,0.03 -0.27,0 -0.5,-0.01 -0.68,-0.03 -0.18,-0.02 -0.33,-0.05 -0.43,-0.09 -0.11,-0.04 -0.18,-0.09 -0.23,-0.15 -0.04,-0.06 -0.06,-0.13 -0.06,-0.2l0 -12.95c0,-0.38 0.1,-0.67 0.3,-0.88 0.2,-0.2 0.47,-0.3 0.81,-0.3l1.93 0c0.35,0 0.64,0.03 0.89,0.08 0.25,0.06 0.46,0.15 0.64,0.28 0.18,0.13 0.33,0.3 0.45,0.52 0.12,0.21 0.23,0.48 0.31,0.79l3.13 8.66 0.05 0 3.24 -8.64c0.1,-0.31 0.2,-0.58 0.32,-0.8 0.12,-0.21 0.25,-0.39 0.41,-0.53 0.15,-0.13 0.34,-0.23 0.54,-0.29 0.21,-0.06 0.46,-0.08 0.73,-0.08l1.99 0c0.2,0 0.38,0.03 0.52,0.08 0.15,0.05 0.27,0.13 0.36,0.23 0.1,0.1 0.16,0.22 0.21,0.37 0.05,0.15 0.07,0.31 0.07,0.5l0 12.95zm-20.1 0c0,0.07 -0.02,0.14 -0.06,0.2 -0.04,0.06 -0.12,0.11 -0.23,0.15 -0.11,0.03 -0.25,0.07 -0.43,0.09 -0.18,0.02 -0.41,0.03 -0.69,0.03 -0.27,0 -0.5,-0.01 -0.68,-0.03 -0.18,-0.02 -0.32,-0.05 -0.43,-0.09 -0.1,-0.04 -0.18,-0.09 -0.22,-0.15 -0.05,-0.06 -0.07,-0.13 -0.07,-0.2l0 -11.83 -0.02 0 -4.2 11.82c-0.03,0.1 -0.08,0.18 -0.15,0.24 -0.07,0.07 -0.16,0.11 -0.28,0.15 -0.11,0.03 -0.26,0.06 -0.44,0.07 -0.18,0.01 -0.4,0.02 -0.65,0.02 -0.26,0 -0.47,-0.01 -0.65,-0.03 -0.18,-0.02 -0.33,-0.05 -0.44,-0.09 -0.11,-0.04 -0.21,-0.09 -0.28,-0.15 -0.07,-0.06 -0.11,-0.13 -0.13,-0.21l-4.05 -11.82 -0.02 0 0 11.83c0,0.07 -0.02,0.14 -0.06,0.2 -0.04,0.06 -0.12,0.11 -0.23,0.15 -0.11,0.03 -0.26,0.07 -0.44,0.09 -0.18,0.02 -0.4,0.03 -0.68,0.03 -0.27,0 -0.5,-0.01 -0.68,-0.03 -0.18,-0.02 -0.33,-0.05 -0.43,-0.09 -0.11,-0.04 -0.18,-0.09 -0.23,-0.15 -0.04,-0.06 -0.06,-0.13 -0.06,-0.2l0 -12.95c0,-0.38 0.1,-0.67 0.3,-0.88 0.2,-0.2 0.47,-0.3 0.81,-0.3l1.93 0c0.35,0 0.64,0.03 0.89,0.08 0.25,0.06 0.46,0.15 0.64,0.28 0.18,0.13 0.33,0.3 0.45,0.52 0.12,0.21 0.23,0.48 0.31,0.79l3.13 8.66 0.05 0 3.24 -8.64c0.1,-0.31 0.2,-0.58 0.32,-0.8 0.12,-0.21 0.25,-0.39 0.41,-0.53 0.15,-0.13 0.34,-0.23 0.54,-0.29 0.21,-0.06 0.46,-0.08 0.73,-0.08l1.99 0c0.2,0 0.38,0.03 0.52,0.08 0.15,0.05 0.27,0.13 0.36,0.23 0.1,0.1 0.16,0.22 0.21,0.37 0.05,0.15 0.07,0.31 0.07,0.5l0 12.95zm-20.1 -5.01c0,0.89 -0.13,1.69 -0.39,2.39 -0.26,0.71 -0.64,1.3 -1.15,1.79 -0.51,0.49 -1.14,0.86 -1.89,1.11 -0.75,0.26 -1.61,0.38 -2.58,0.38 -0.91,0 -1.73,-0.11 -2.46,-0.34 -0.73,-0.23 -1.34,-0.57 -1.84,-1.04 -0.5,-0.46 -0.89,-1.04 -1.15,-1.74 -0.26,-0.69 -0.4,-1.5 -0.4,-2.43l0 -8.84c0,-0.07 0.02,-0.14 0.07,-0.2 0.04,-0.06 0.12,-0.11 0.24,-0.15 0.11,-0.04 0.27,-0.07 0.46,-0.09 0.18,-0.02 0.43,-0.03 0.72,-0.03 0.28,0 0.52,0.01 0.7,0.03 0.19,0.02 0.34,0.05 0.45,0.09 0.11,0.04 0.19,0.09 0.24,0.15 0.05,0.06 0.07,0.13 0.07,0.2l0 8.59c0,0.58 0.07,1.08 0.21,1.5 0.14,0.42 0.34,0.77 0.61,1.05 0.26,0.28 0.58,0.49 0.95,0.62 0.37,0.14 0.79,0.21 1.24,0.21 0.46,0 0.88,-0.07 1.25,-0.21 0.37,-0.14 0.68,-0.35 0.94,-0.62 0.25,-0.28 0.45,-0.61 0.59,-1.01 0.14,-0.4 0.21,-0.86 0.21,-1.37l0 -8.75c0,-0.07 0.02,-0.14 0.07,-0.2 0.04,-0.06 0.12,-0.11 0.23,-0.15 0.11,-0.04 0.26,-0.07 0.46,-0.09 0.19,-0.02 0.43,-0.03 0.71,-0.03 0.28,0 0.52,0.01 0.7,0.03 0.18,0.02 0.33,0.05 0.44,0.09 0.11,0.04 0.19,0.09 0.23,0.15 0.05,0.06 0.07,0.13 0.07,0.2l0 8.72zm-14.09 1.05c0,0.77 -0.14,1.43 -0.43,2.01 -0.29,0.57 -0.67,1.05 -1.16,1.44 -0.49,0.38 -1.06,0.67 -1.71,0.87 -0.65,0.2 -1.35,0.29 -2.09,0.29 -0.5,0 -0.97,-0.04 -1.4,-0.13 -0.43,-0.08 -0.81,-0.18 -1.14,-0.3 -0.33,-0.11 -0.61,-0.24 -0.83,-0.37 -0.22,-0.13 -0.38,-0.25 -0.48,-0.34 -0.1,-0.1 -0.16,-0.24 -0.21,-0.43 -0.04,-0.18 -0.06,-0.44 -0.06,-0.79 0,-0.23 0.01,-0.43 0.02,-0.58 0.02,-0.16 0.04,-0.28 0.07,-0.38 0.03,-0.1 0.08,-0.16 0.13,-0.21 0.06,-0.04 0.12,-0.06 0.2,-0.06 0.1,0 0.25,0.06 0.44,0.19 0.19,0.12 0.44,0.26 0.74,0.41 0.3,0.15 0.66,0.29 1.08,0.41 0.41,0.13 0.9,0.19 1.45,0.19 0.36,0 0.68,-0.04 0.97,-0.13 0.29,-0.09 0.53,-0.21 0.73,-0.36 0.2,-0.16 0.35,-0.35 0.46,-0.58 0.1,-0.23 0.16,-0.49 0.16,-0.77 0,-0.33 -0.09,-0.61 -0.27,-0.85 -0.18,-0.24 -0.41,-0.44 -0.71,-0.63 -0.29,-0.18 -0.62,-0.36 -0.99,-0.52 -0.36,-0.16 -0.74,-0.33 -1.13,-0.51 -0.39,-0.18 -0.77,-0.38 -1.13,-0.61 -0.37,-0.23 -0.7,-0.5 -0.99,-0.82 -0.29,-0.32 -0.53,-0.69 -0.71,-1.13 -0.18,-0.43 -0.27,-0.95 -0.27,-1.56 0,-0.69 0.13,-1.31 0.39,-1.84 0.26,-0.53 0.61,-0.96 1.04,-1.31 0.44,-0.35 0.95,-0.61 1.55,-0.78 0.59,-0.17 1.23,-0.26 1.89,-0.26 0.34,0 0.69,0.03 1.03,0.08 0.35,0.05 0.67,0.12 0.97,0.21 0.3,0.09 0.56,0.19 0.8,0.3 0.23,0.11 0.38,0.21 0.46,0.28 0.07,0.07 0.12,0.14 0.15,0.19 0.03,0.05 0.05,0.12 0.07,0.21 0.02,0.08 0.03,0.19 0.04,0.33 0.01,0.13 0.01,0.29 0.01,0.49 0,0.21 -0,0.4 -0.02,0.55 -0.01,0.15 -0.03,0.27 -0.06,0.37 -0.03,0.1 -0.07,0.17 -0.11,0.21 -0.05,0.05 -0.11,0.07 -0.2,0.07 -0.08,0 -0.21,-0.05 -0.39,-0.16 -0.18,-0.1 -0.4,-0.22 -0.66,-0.34 -0.26,-0.12 -0.57,-0.23 -0.91,-0.33 -0.35,-0.1 -0.72,-0.15 -1.13,-0.15 -0.32,0 -0.6,0.04 -0.84,0.12 -0.24,0.08 -0.44,0.19 -0.6,0.33 -0.16,0.14 -0.28,0.3 -0.36,0.5 -0.08,0.2 -0.12,0.4 -0.12,0.62 0,0.32 0.09,0.6 0.26,0.84 0.18,0.24 0.41,0.45 0.71,0.63 0.29,0.18 0.63,0.35 1.01,0.51 0.37,0.16 0.75,0.33 1.15,0.51 0.39,0.18 0.77,0.38 1.15,0.61 0.38,0.23 0.71,0.5 1,0.82 0.29,0.32 0.53,0.69 0.71,1.12 0.18,0.43 0.27,0.94 0.27,1.52zm-15.56 3.13c0,0.22 -0.01,0.41 -0.03,0.57 -0.02,0.15 -0.05,0.28 -0.08,0.38 -0.04,0.1 -0.08,0.18 -0.14,0.22 -0.06,0.05 -0.12,0.07 -0.2,0.07l-6.66 0c-0.25,0 -0.45,-0.07 -0.62,-0.22 -0.17,-0.15 -0.25,-0.38 -0.25,-0.71l0 -13.2c0,-0.07 0.02,-0.14 0.07,-0.2 0.05,-0.06 0.13,-0.11 0.24,-0.15 0.11,-0.04 0.26,-0.07 0.46,-0.09 0.19,-0.02 0.43,-0.03 0.71,-0.03 0.29,0 0.53,0.01 0.72,0.03 0.18,0.02 0.34,0.05 0.45,0.09 0.11,0.04 0.19,0.09 0.24,0.15 0.05,0.06 0.07,0.13 0.07,0.2l0 11.69 4.56 0c0.07,0 0.14,0.02 0.2,0.06 0.06,0.04 0.1,0.11 0.14,0.2 0.04,0.09 0.07,0.21 0.08,0.37 0.02,0.15 0.03,0.34 0.03,0.57zm-10.02 0.13c0.09,0.27 0.15,0.48 0.17,0.64 0.02,0.16 -0.01,0.28 -0.09,0.36 -0.08,0.08 -0.23,0.13 -0.44,0.15 -0.21,0.02 -0.5,0.03 -0.86,0.03 -0.38,0 -0.68,-0 -0.89,-0.02 -0.21,-0.01 -0.38,-0.03 -0.49,-0.07 -0.11,-0.03 -0.19,-0.08 -0.23,-0.14 -0.05,-0.06 -0.08,-0.14 -0.11,-0.23l-0.95 -2.92 -5.48 0 -0.92 2.84c-0.03,0.11 -0.07,0.2 -0.12,0.26 -0.05,0.07 -0.13,0.13 -0.23,0.17 -0.11,0.04 -0.26,0.07 -0.46,0.08 -0.2,0.02 -0.46,0.02 -0.78,0.02 -0.35,0 -0.61,-0.01 -0.81,-0.03 -0.2,-0.02 -0.33,-0.08 -0.4,-0.16 -0.08,-0.09 -0.1,-0.21 -0.08,-0.37 0.02,-0.16 0.08,-0.36 0.17,-0.63l4.48 -12.9c0.04,-0.13 0.1,-0.23 0.16,-0.31 0.06,-0.08 0.15,-0.14 0.28,-0.18 0.13,-0.04 0.31,-0.07 0.55,-0.08 0.23,-0.01 0.54,-0.02 0.92,-0.02 0.44,0 0.79,0 1.05,0.02 0.26,0.01 0.47,0.04 0.61,0.08 0.15,0.04 0.25,0.1 0.31,0.18 0.06,0.08 0.12,0.2 0.16,0.34l4.49 12.89zm-6.67 -10.67l-0.01 0 -2.02 6.18 4.08 0 -2.04 -6.18zm-8.4 10.74c0,0.17 -0.03,0.33 -0.09,0.46 -0.06,0.13 -0.14,0.25 -0.25,0.34 -0.1,0.09 -0.22,0.15 -0.36,0.2 -0.14,0.04 -0.28,0.06 -0.42,0.06l-1.26 0c-0.26,0 -0.49,-0.03 -0.68,-0.08 -0.19,-0.05 -0.36,-0.15 -0.52,-0.29 -0.17,-0.14 -0.32,-0.33 -0.47,-0.56 -0.15,-0.23 -0.32,-0.54 -0.51,-0.92l-3.61 -6.8c-0.21,-0.41 -0.42,-0.84 -0.64,-1.31 -0.22,-0.47 -0.41,-0.92 -0.58,-1.36l-0.02 0c0.03,0.54 0.05,1.08 0.07,1.61 0.02,0.53 0.02,1.09 0.02,1.66l0 7.61c0,0.07 -0.02,0.14 -0.06,0.2 -0.04,0.06 -0.12,0.11 -0.21,0.15 -0.1,0.04 -0.24,0.07 -0.41,0.1 -0.17,0.02 -0.39,0.03 -0.66,0.03 -0.26,0 -0.48,-0.01 -0.66,-0.03 -0.17,-0.02 -0.31,-0.05 -0.4,-0.1 -0.1,-0.04 -0.17,-0.09 -0.2,-0.15 -0.04,-0.06 -0.06,-0.13 -0.06,-0.2l0 -13.06c0,-0.35 0.1,-0.62 0.31,-0.79 0.2,-0.18 0.46,-0.26 0.76,-0.26l1.58 0c0.28,0 0.52,0.02 0.72,0.07 0.2,0.05 0.37,0.13 0.52,0.24 0.15,0.11 0.3,0.27 0.43,0.47 0.13,0.2 0.27,0.44 0.41,0.74l2.82 5.32c0.16,0.32 0.33,0.64 0.49,0.95 0.16,0.31 0.32,0.62 0.46,0.93 0.15,0.31 0.29,0.62 0.44,0.92 0.15,0.3 0.28,0.6 0.42,0.9l0.01 0c-0.02,-0.53 -0.04,-1.07 -0.05,-1.64 -0.01,-0.57 -0.02,-1.12 -0.02,-1.63l0 -6.82c0,-0.07 0.02,-0.14 0.07,-0.2 0.04,-0.06 0.12,-0.11 0.22,-0.16 0.11,-0.05 0.25,-0.08 0.42,-0.1 0.17,-0.02 0.39,-0.03 0.66,-0.03 0.26,0 0.47,0.01 0.64,0.03 0.17,0.02 0.3,0.05 0.4,0.1 0.09,0.05 0.16,0.1 0.2,0.16 0.04,0.06 0.06,0.13 0.06,0.2l0 13.06zm-14.47 -6.4c0,1.2 -0.15,2.28 -0.45,3.23 -0.3,0.95 -0.74,1.76 -1.34,2.42 -0.59,0.66 -1.32,1.17 -2.19,1.52 -0.87,0.35 -1.88,0.52 -3.03,0.52 -1.13,0 -2.12,-0.15 -2.96,-0.44 -0.84,-0.3 -1.54,-0.74 -2.11,-1.35 -0.56,-0.61 -0.98,-1.38 -1.26,-2.31 -0.28,-0.94 -0.42,-2.04 -0.42,-3.32 0,-1.17 0.15,-2.23 0.45,-3.17 0.3,-0.94 0.74,-1.74 1.34,-2.4 0.59,-0.66 1.32,-1.17 2.19,-1.51 0.87,-0.35 1.89,-0.53 3.04,-0.53 1.1,0 2.07,0.15 2.91,0.44 0.84,0.29 1.54,0.74 2.11,1.35 0.57,0.61 0.99,1.37 1.28,2.29 0.29,0.93 0.43,2.02 0.43,3.27zm-3.1 0.15c0,-0.76 -0.06,-1.46 -0.18,-2.08 -0.12,-0.62 -0.32,-1.16 -0.61,-1.61 -0.29,-0.44 -0.67,-0.79 -1.15,-1.03 -0.48,-0.24 -1.08,-0.36 -1.79,-0.36 -0.72,0 -1.33,0.14 -1.81,0.41 -0.49,0.27 -0.88,0.64 -1.18,1.1 -0.3,0.46 -0.51,0.99 -0.63,1.6 -0.12,0.61 -0.18,1.26 -0.18,1.94 0,0.79 0.06,1.51 0.18,2.14 0.12,0.63 0.32,1.17 0.61,1.63 0.28,0.45 0.66,0.79 1.14,1.03 0.48,0.23 1.08,0.35 1.81,0.35 0.72,0 1.33,-0.13 1.81,-0.41 0.49,-0.27 0.88,-0.64 1.18,-1.1 0.3,-0.46 0.51,-1 0.63,-1.62 0.12,-0.62 0.18,-1.28 0.18,-1.97zm-13.12 6.88c0,0.07 -0.02,0.14 -0.07,0.2 -0.05,0.06 -0.13,0.11 -0.24,0.15 -0.11,0.03 -0.26,0.07 -0.45,0.09 -0.19,0.02 -0.43,0.03 -0.72,0.03 -0.28,0 -0.52,-0.01 -0.71,-0.03 -0.19,-0.02 -0.35,-0.05 -0.46,-0.09 -0.11,-0.04 -0.19,-0.09 -0.24,-0.15 -0.05,-0.06 -0.07,-0.13 -0.07,-0.2l0 -13.73c0,-0.07 0.02,-0.14 0.07,-0.2 0.05,-0.06 0.13,-0.11 0.25,-0.15 0.11,-0.04 0.26,-0.07 0.45,-0.09 0.19,-0.02 0.43,-0.03 0.71,-0.03 0.29,0 0.53,0.01 0.72,0.03 0.18,0.02 0.34,0.05 0.45,0.09 0.11,0.04 0.19,0.09 0.24,0.15 0.05,0.06 0.07,0.13 0.07,0.2l0 13.73zm-5.21 -3.96c0,0.77 -0.14,1.43 -0.43,2.01 -0.29,0.57 -0.67,1.05 -1.16,1.44 -0.49,0.38 -1.06,0.67 -1.71,0.87 -0.65,0.2 -1.35,0.29 -2.09,0.29 -0.5,0 -0.97,-0.04 -1.4,-0.13 -0.43,-0.08 -0.81,-0.18 -1.14,-0.3 -0.33,-0.11 -0.61,-0.24 -0.83,-0.37 -0.22,-0.13 -0.38,-0.25 -0.48,-0.34 -0.1,-0.1 -0.16,-0.24 -0.21,-0.43 -0.04,-0.18 -0.06,-0.44 -0.06,-0.79 0,-0.23 0.01,-0.43 0.02,-0.58 0.02,-0.16 0.04,-0.28 0.07,-0.38 0.03,-0.1 0.08,-0.16 0.13,-0.21 0.06,-0.04 0.12,-0.06 0.2,-0.06 0.1,0 0.25,0.06 0.44,0.19 0.19,0.12 0.44,0.26 0.74,0.41 0.3,0.15 0.66,0.29 1.08,0.41 0.41,0.13 0.9,0.19 1.45,0.19 0.36,0 0.68,-0.04 0.97,-0.13 0.29,-0.09 0.53,-0.21 0.73,-0.36 0.2,-0.16 0.35,-0.35 0.46,-0.58 0.1,-0.23 0.16,-0.49 0.16,-0.77 0,-0.33 -0.09,-0.61 -0.27,-0.85 -0.18,-0.24 -0.41,-0.44 -0.71,-0.63 -0.29,-0.18 -0.62,-0.36 -0.99,-0.52 -0.36,-0.16 -0.74,-0.33 -1.13,-0.51 -0.39,-0.18 -0.77,-0.38 -1.13,-0.61 -0.37,-0.23 -0.7,-0.5 -0.99,-0.82 -0.29,-0.32 -0.53,-0.69 -0.71,-1.13 -0.18,-0.43 -0.27,-0.95 -0.27,-1.56 0,-0.69 0.13,-1.31 0.39,-1.84 0.26,-0.53 0.61,-0.96 1.04,-1.31 0.44,-0.35 0.95,-0.61 1.55,-0.78 0.59,-0.17 1.23,-0.26 1.89,-0.26 0.34,0 0.69,0.03 1.03,0.08 0.35,0.05 0.67,0.12 0.97,0.21 0.3,0.09 0.56,0.19 0.8,0.3 0.23,0.11 0.38,0.21 0.46,0.28 0.07,0.07 0.12,0.14 0.15,0.19 0.03,0.05 0.05,0.12 0.07,0.21 0.02,0.08 0.03,0.19 0.04,0.33 0.01,0.13 0.01,0.29 0.01,0.49 0,0.21 -0,0.4 -0.02,0.55 -0.01,0.15 -0.03,0.27 -0.06,0.37 -0.03,0.1 -0.07,0.17 -0.11,0.21 -0.05,0.05 -0.11,0.07 -0.2,0.07 -0.08,0 -0.21,-0.05 -0.39,-0.16 -0.18,-0.1 -0.4,-0.22 -0.66,-0.34 -0.26,-0.12 -0.57,-0.23 -0.91,-0.33 -0.35,-0.1 -0.72,-0.15 -1.13,-0.15 -0.32,0 -0.6,0.04 -0.84,0.12 -0.24,0.08 -0.44,0.19 -0.6,0.33 -0.16,0.14 -0.28,0.3 -0.36,0.5 -0.08,0.2 -0.12,0.4 -0.12,0.62 0,0.32 0.09,0.6 0.26,0.84 0.18,0.24 0.41,0.45 0.71,0.63 0.29,0.18 0.63,0.35 1.01,0.51 0.37,0.16 0.75,0.33 1.15,0.51 0.39,0.18 0.77,0.38 1.15,0.61 0.38,0.23 0.71,0.5 1,0.82 0.29,0.32 0.53,0.69 0.71,1.12 0.18,0.43 0.27,0.94 0.27,1.52zm-10.87 0c0,0.77 -0.14,1.43 -0.43,2.01 -0.29,0.57 -0.67,1.05 -1.16,1.44 -0.49,0.38 -1.06,0.67 -1.71,0.87 -0.65,0.2 -1.35,0.29 -2.09,0.29 -0.5,0 -0.97,-0.04 -1.4,-0.13 -0.43,-0.08 -0.81,-0.18 -1.14,-0.3 -0.33,-0.11 -0.61,-0.24 -0.83,-0.37 -0.22,-0.13 -0.38,-0.25 -0.48,-0.34 -0.1,-0.1 -0.16,-0.24 -0.21,-0.43 -0.04,-0.18 -0.06,-0.44 -0.06,-0.79 0,-0.23 0.01,-0.43 0.02,-0.58 0.02,-0.16 0.04,-0.28 0.07,-0.38 0.03,-0.1 0.08,-0.16 0.13,-0.21 0.06,-0.04 0.12,-0.06 0.2,-0.06 0.1,0 0.25,0.06 0.44,0.19 0.19,0.12 0.44,0.26 0.74,0.41 0.3,0.15 0.66,0.29 1.08,0.41 0.41,0.13 0.9,0.19 1.45,0.19 0.36,0 0.68,-0.04 0.97,-0.13 0.29,-0.09 0.53,-0.21 0.73,-0.36 0.2,-0.16 0.35,-0.35 0.46,-0.58 0.1,-0.23 0.16,-0.49 0.16,-0.77 0,-0.33 -0.09,-0.61 -0.27,-0.85 -0.18,-0.24 -0.41,-0.44 -0.71,-0.63 -0.29,-0.18 -0.62,-0.36 -0.99,-0.52 -0.36,-0.16 -0.74,-0.33 -1.13,-0.51 -0.39,-0.18 -0.77,-0.38 -1.13,-0.61 -0.37,-0.23 -0.7,-0.5 -0.99,-0.82 -0.29,-0.32 -0.53,-0.69 -0.71,-1.13 -0.18,-0.43 -0.27,-0.95 -0.27,-1.56 0,-0.69 0.13,-1.31 0.39,-1.84 0.26,-0.53 0.61,-0.96 1.04,-1.31 0.44,-0.35 0.95,-0.61 1.55,-0.78 0.59,-0.17 1.23,-0.26 1.89,-0.26 0.34,0 0.69,0.03 1.03,0.08 0.35,0.05 0.67,0.12 0.97,0.21 0.3,0.09 0.56,0.19 0.8,0.3 0.23,0.11 0.38,0.21 0.46,0.28 0.07,0.07 0.12,0.14 0.15,0.19 0.03,0.05 0.05,0.12 0.07,0.21 0.02,0.08 0.03,0.19 0.04,0.33 0.01,0.13 0.01,0.29 0.01,0.49 0,0.21 -0,0.4 -0.02,0.55 -0.01,0.15 -0.03,0.27 -0.06,0.37 -0.03,0.1 -0.07,0.17 -0.11,0.21 -0.05,0.05 -0.11,0.07 -0.2,0.07 -0.08,0 -0.21,-0.05 -0.39,-0.16 -0.18,-0.1 -0.4,-0.22 -0.66,-0.34 -0.26,-0.12 -0.57,-0.23 -0.91,-0.33 -0.35,-0.1 -0.72,-0.15 -1.13,-0.15 -0.32,0 -0.6,0.04 -0.84,0.12 -0.24,0.08 -0.44,0.19 -0.6,0.33 -0.16,0.14 -0.28,0.3 -0.36,0.5 -0.08,0.2 -0.12,0.4 -0.12,0.62 0,0.32 0.09,0.6 0.26,0.84 0.18,0.24 0.41,0.45 0.71,0.63 0.29,0.18 0.63,0.35 1.01,0.51 0.37,0.16 0.75,0.33 1.15,0.51 0.39,0.18 0.77,0.38 1.15,0.61 0.38,0.23 0.71,0.5 1,0.82 0.29,0.32 0.53,0.69 0.71,1.12 0.18,0.43 0.27,0.94 0.27,1.52zm-11.02 3.2c0,0.22 -0.01,0.4 -0.03,0.55 -0.02,0.15 -0.05,0.26 -0.08,0.35 -0.04,0.09 -0.08,0.16 -0.14,0.2 -0.05,0.04 -0.12,0.06 -0.18,0.06l-7.29 0c-0.25,0 -0.45,-0.07 -0.62,-0.22 -0.17,-0.15 -0.25,-0.38 -0.25,-0.71l0 -12.67c0,-0.33 0.08,-0.57 0.25,-0.71 0.17,-0.15 0.38,-0.22 0.62,-0.22l7.26 0c0.07,0 0.13,0.02 0.18,0.06 0.05,0.04 0.1,0.1 0.13,0.2 0.03,0.1 0.07,0.21 0.08,0.36 0.02,0.15 0.03,0.33 0.03,0.56 0,0.21 -0.01,0.39 -0.03,0.54 -0.02,0.15 -0.05,0.26 -0.08,0.35 -0.04,0.09 -0.08,0.16 -0.13,0.2 -0.05,0.04 -0.11,0.06 -0.18,0.06l-5.19 0 0 3.54 4.37 0c0.07,0 0.13,0.02 0.18,0.06 0.06,0.04 0.1,0.1 0.14,0.19 0.04,0.08 0.07,0.2 0.08,0.35 0.02,0.15 0.03,0.32 0.03,0.53 0,0.22 -0.01,0.4 -0.03,0.54 -0.02,0.14 -0.05,0.26 -0.08,0.34 -0.04,0.09 -0.08,0.15 -0.14,0.18 -0.05,0.04 -0.11,0.06 -0.18,0.06l-4.37 0 0 4.09 5.22 0c0.07,0 0.13,0.02 0.18,0.06 0.06,0.04 0.1,0.11 0.14,0.2 0.04,0.09 0.07,0.21 0.08,0.35 0.02,0.15 0.03,0.33 0.03,0.55zm-10.99 -12.16c0,0.23 -0.01,0.41 -0.03,0.57 -0.02,0.15 -0.05,0.28 -0.09,0.37 -0.04,0.09 -0.09,0.16 -0.14,0.2 -0.05,0.05 -0.11,0.07 -0.18,0.07l-4.76 0 0 3.91 4.47 0c0.07,0 0.13,0.02 0.18,0.06 0.05,0.03 0.1,0.1 0.14,0.19 0.04,0.09 0.07,0.21 0.09,0.36 0.02,0.15 0.03,0.34 0.03,0.56 0,0.22 -0.01,0.41 -0.03,0.56 -0.02,0.15 -0.05,0.27 -0.09,0.37 -0.04,0.1 -0.09,0.16 -0.14,0.21 -0.05,0.04 -0.11,0.06 -0.18,0.06l-4.47 0 0 5.42c0,0.08 -0.02,0.15 -0.07,0.21 -0.04,0.06 -0.12,0.11 -0.24,0.15 -0.11,0.04 -0.27,0.07 -0.45,0.1 -0.19,0.02 -0.43,0.03 -0.72,0.03 -0.28,0 -0.52,-0.01 -0.71,-0.03 -0.19,-0.02 -0.35,-0.05 -0.46,-0.1 -0.11,-0.04 -0.19,-0.09 -0.24,-0.15 -0.05,-0.06 -0.07,-0.13 -0.07,-0.21l0 -13.18c0,-0.33 0.08,-0.57 0.25,-0.71 0.17,-0.15 0.38,-0.22 0.62,-0.22l6.85 0c0.07,0 0.13,0.02 0.18,0.06 0.05,0.04 0.1,0.11 0.14,0.2 0.04,0.09 0.07,0.22 0.09,0.38 0.02,0.16 0.03,0.35 0.03,0.57zm-10.66 5.89c0,1.2 -0.15,2.28 -0.45,3.23 -0.3,0.95 -0.74,1.76 -1.34,2.42 -0.59,0.66 -1.32,1.17 -2.19,1.52 -0.87,0.35 -1.88,0.52 -3.03,0.52 -1.13,0 -2.12,-0.15 -2.96,-0.44 -0.84,-0.3 -1.54,-0.74 -2.11,-1.35 -0.56,-0.61 -0.98,-1.38 -1.26,-2.31 -0.28,-0.94 -0.42,-2.04 -0.42,-3.32 0,-1.17 0.15,-2.23 0.45,-3.17 0.3,-0.94 0.74,-1.74 1.34,-2.4 0.59,-0.66 1.32,-1.17 2.19,-1.51 0.87,-0.35 1.89,-0.53 3.04,-0.53 1.1,0 2.07,0.15 2.91,0.44 0.84,0.29 1.54,0.74 2.11,1.35 0.57,0.61 0.99,1.37 1.28,2.29 0.29,0.93 0.43,2.02 0.43,3.27zm-3.1 0.15c0,-0.76 -0.06,-1.46 -0.18,-2.08 -0.12,-0.62 -0.32,-1.16 -0.61,-1.61 -0.29,-0.44 -0.67,-0.79 -1.15,-1.03 -0.48,-0.24 -1.08,-0.36 -1.79,-0.36 -0.72,0 -1.33,0.14 -1.81,0.41 -0.49,0.27 -0.88,0.64 -1.18,1.1 -0.3,0.46 -0.51,0.99 -0.63,1.6 -0.12,0.61 -0.18,1.26 -0.18,1.94 0,0.79 0.06,1.51 0.18,2.14 0.12,0.63 0.32,1.17 0.61,1.63 0.28,0.45 0.66,0.79 1.14,1.03 0.48,0.23 1.08,0.35 1.81,0.35 0.72,0 1.33,-0.13 1.81,-0.41 0.49,-0.27 0.88,-0.64 1.18,-1.1 0.3,-0.46 0.51,-1 0.63,-1.62 0.12,-0.62 0.18,-1.28 0.18,-1.97zm-11.89 6.91c0,0.08 -0.02,0.15 -0.05,0.21 -0.03,0.06 -0.1,0.1 -0.21,0.14 -0.12,0.03 -0.28,0.06 -0.49,0.08 -0.22,0.02 -0.51,0.02 -0.89,0.02 -0.31,0 -0.56,-0.01 -0.75,-0.02 -0.19,-0.02 -0.34,-0.04 -0.44,-0.08 -0.11,-0.04 -0.18,-0.09 -0.23,-0.16 -0.04,-0.07 -0.08,-0.14 -0.11,-0.23l-1.31 -3.25c-0.16,-0.37 -0.31,-0.7 -0.46,-0.98 -0.15,-0.29 -0.32,-0.53 -0.5,-0.72 -0.18,-0.19 -0.4,-0.33 -0.64,-0.43 -0.24,-0.1 -0.52,-0.15 -0.83,-0.15l-0.92 0 0 5.55c0,0.07 -0.02,0.14 -0.07,0.2 -0.05,0.06 -0.13,0.11 -0.24,0.15 -0.11,0.03 -0.26,0.07 -0.45,0.09 -0.18,0.02 -0.43,0.03 -0.71,0.03 -0.28,0 -0.52,-0.01 -0.71,-0.03 -0.19,-0.02 -0.34,-0.05 -0.45,-0.09 -0.11,-0.04 -0.19,-0.09 -0.23,-0.15 -0.05,-0.06 -0.07,-0.13 -0.07,-0.2l0 -13.2c0,-0.33 0.08,-0.57 0.25,-0.71 0.17,-0.15 0.38,-0.22 0.62,-0.22l3.76 0c0.38,0 0.7,0.01 0.94,0.02 0.25,0.02 0.47,0.03 0.67,0.05 0.58,0.08 1.11,0.23 1.58,0.43 0.47,0.2 0.87,0.46 1.19,0.79 0.33,0.33 0.58,0.71 0.75,1.15 0.17,0.44 0.26,0.95 0.26,1.53 0,0.48 -0.06,0.93 -0.18,1.33 -0.13,0.4 -0.31,0.76 -0.55,1.07 -0.24,0.31 -0.53,0.59 -0.89,0.82 -0.35,0.23 -0.75,0.42 -1.2,0.56 0.22,0.1 0.42,0.23 0.61,0.38 0.19,0.15 0.37,0.33 0.54,0.55 0.17,0.21 0.33,0.46 0.48,0.73 0.15,0.27 0.29,0.58 0.44,0.93l1.23 2.87c0.11,0.28 0.19,0.49 0.22,0.62 0.04,0.13 0.06,0.23 0.06,0.31zm-3.82 -9.87c0,-0.48 -0.11,-0.89 -0.33,-1.21 -0.22,-0.33 -0.58,-0.56 -1.07,-0.7 -0.15,-0.04 -0.32,-0.07 -0.51,-0.09 -0.19,-0.02 -0.46,-0.03 -0.79,-0.03l-1.33 0 0 4.12 1.51 0c0.42,0 0.79,-0.05 1.1,-0.15 0.32,-0.1 0.58,-0.24 0.79,-0.43 0.21,-0.18 0.37,-0.4 0.47,-0.66 0.1,-0.25 0.16,-0.54 0.16,-0.85zm-12.33 0.34c0,-0.51 -0.09,-0.93 -0.27,-1.26 -0.18,-0.33 -0.4,-0.57 -0.67,-0.73 -0.26,-0.16 -0.54,-0.26 -0.83,-0.3 -0.29,-0.04 -0.59,-0.06 -0.9,-0.06l-1.27 0 0 4.94 1.33 0c0.48,0 0.87,-0.07 1.19,-0.19 0.32,-0.13 0.58,-0.31 0.79,-0.54 0.2,-0.23 0.36,-0.5 0.46,-0.82 0.1,-0.32 0.16,-0.67 0.16,-1.04z"/>
   <g>
    <path class="fil2" d="M28.86 27.8l-0.49 -0.47 3.17 -3.21 0.03 0.41 -0 0.3 0 0.2 -2.72 2.77zm-0.61 -1.58l-9.79 0 0 0.95 9.14 0c-0.03,0.33 -0.25,0.67 -0.39,1.01 -0.34,0.82 -0.29,0.94 -0.76,0.94l-8 0 0.03 0.96 10.61 -0 0.05 -0.95 -1.56 -0.01c2.42,-1.27 1.07,-0.07 3.46,-2.49 0.07,-0.07 0.13,-0.14 0.2,-0.2 0.2,-0.18 0.11,-0.11 0.34,-0.23l0 7.03c-0.02,0.88 -0.33,1.24 -1.23,1.24l-13.09 0c-0.9,0 -1.24,-0.34 -1.24,-1.24l0 -17.89c0,-0.91 0.34,-1.24 1.24,-1.24l8.49 0c-0.01,1.01 -0,2.02 -0,3.03 0,2.12 -0.07,3.27 2.7,3.26 0.92,-0 2.3,-0.11 3.16,0.07l-0.04 2.67c-0.33,0.14 -1.28,1.19 -1.6,1.52 -0.36,0.36 -1.32,1.45 -1.72,1.57zm2.67 -6.82c-0.67,0.07 -1.49,0.03 -2.17,0.03 -0.72,0 -1.51,0.13 -1.84,-0.36 -0.4,-0.58 -0.2,-3.09 -0.22,-4.1 0.38,0.22 3.71,3.91 4.23,4.43zm-15.87 -4.74l0 19.22c0.19,0.32 0.34,0.73 0.57,0.96 0.25,0.25 0.63,0.37 0.96,0.57l14.42 0c0.37,-0.23 1.29,-0.51 1.48,-1.56 0.17,-0.94 -0.1,-8.36 0.06,-8.74l3.4 -3.39c-0.15,-0.33 -0.17,-0.23 -0.38,-0.51 -0.56,0.24 -2.22,2.21 -3.04,2.88l-0.01 -0.87c0.37,-0.75 2.09,-1.88 2.43,-2.62l-0.51 -0.39c-0.54,0.44 -1.46,1.52 -1.92,1.83l-0.02 -2.12c-0.28,-0.24 -0.51,-0.6 -0.76,-0.9 -0.74,-0.88 -4.9,-5.28 -5.32,-5.9l-9.83 0c-0.32,0.19 -0.73,0.34 -0.96,0.57 -0.23,0.23 -0.38,0.64 -0.57,0.96z"/>
    <path class="fil2" d="M18.45 24.13l0.05 0.13 4.75 0 0.04 -0.43 0 -0.1 0 -0.36c-1.06,-0.19 -3.62,-0.06 -4.84,-0.06l0 0.81z"/>
    <polygon class="fil2" points="18.45,21.36 23.3,21.36 23.3,20.93 23.3,20.83 23.3,20.41 23.45,20.41 18.25,20.41 18.45,20.41 "/>
    <path class="fil2" d="M36.05 19.63c0.31,-0.32 0.35,-0.41 0.8,-0.23 0.05,0.45 -0.07,0.52 -0.3,0.73l-0.5 -0.5zm-1.02 0c0.14,0.3 1.22,1.37 1.51,1.51 0.41,-0.35 1.66,-1.39 0.76,-2.27 -0.9,-0.89 -1.93,0.34 -2.28,0.76z"/>
   </g>
  </g>
 </g>
</svg>
