<?xml version="1.0" encoding="UTF-8"?>
<!DOCTYPE svg PUBLIC "-//W3C//DTD SVG 1.1//EN" "http://www.w3.org/Graphics/SVG/1.1/DTD/svg11.dtd">
<!-- Creator: CorelDRAW 2021 (64-Bit) -->
<svg xmlns="http://www.w3.org/2000/svg" xml:space="preserve" width="5.76084in" height="0.462102in" version="1.1" style="shape-rendering:geometricPrecision; text-rendering:geometricPrecision; image-rendering:optimizeQuality; fill-rule:evenodd; clip-rule:evenodd"
viewBox="0 0 596.17 47.82"
 xmlns:xlink="http://www.w3.org/1999/xlink"
 xmlns:xodm="http://www.corel.com/coreldraw/odm/2003">
 <defs>
  <style type="text/css">
   <![CDATA[
    .fil1 {fill:#4B4B4D}
    .fil2 {fill:#4C4C4D}
    .fil0 {fill:#F79421}
   ]]>
  </style>
 </defs>
 <g id="Layer_x0020_1">
  <metadata id="CorelCorpID_0Corel-Layer"/>
  <g id="_2180502224080">
   <path class="fil0" d="M23.91 0c13.21,0 23.91,10.7 23.91,23.91 0.58,10.16 11.71,14.93 17.14,15.15l526.84 0c2.41,0 4.38,1.97 4.38,4.38l0 0c0,2.41 -1.97,4.38 -4.38,4.38l-567.89 -0c-13.21,0 -23.91,-10.7 -23.91,-23.91 0,-13.21 10.7,-23.91 23.91,-23.91zm0 8.76c8.37,0 15.15,6.78 15.15,15.15 0,8.37 -6.78,15.15 -15.15,15.15 -8.37,0 -15.15,-6.78 -15.15,-15.15 0,-8.37 6.78,-15.15 15.15,-15.15z"/>
   <path class="fil1" d="M75.8 33.27c-0.05,0.18 -0.11,0.33 -0.19,0.43 -0.08,0.11 -0.2,0.19 -0.35,0.25 -0.16,0.06 -0.36,0.1 -0.61,0.11 -0.25,0.02 -0.56,0.03 -0.94,0.03 -0.43,0 -0.77,-0.01 -1.03,-0.03 -0.26,-0.02 -0.46,-0.06 -0.61,-0.11 -0.15,-0.05 -0.26,-0.14 -0.33,-0.25 -0.07,-0.11 -0.12,-0.25 -0.16,-0.43l-2.33 -9.21 -0.02 0 -2.2 9.21c-0.04,0.17 -0.09,0.31 -0.16,0.42 -0.07,0.11 -0.17,0.19 -0.32,0.25 -0.15,0.06 -0.35,0.1 -0.59,0.12 -0.25,0.02 -0.58,0.03 -0.99,0.03 -0.44,0 -0.78,-0.01 -1.04,-0.03 -0.26,-0.02 -0.46,-0.06 -0.61,-0.11 -0.15,-0.05 -0.26,-0.14 -0.33,-0.25 -0.07,-0.11 -0.12,-0.25 -0.17,-0.43l-3.3 -12.68c-0.07,-0.27 -0.1,-0.48 -0.11,-0.64 -0.01,-0.15 0.03,-0.27 0.13,-0.35 0.1,-0.08 0.25,-0.13 0.46,-0.15 0.21,-0.02 0.51,-0.03 0.89,-0.03 0.35,0 0.63,0 0.84,0.02 0.21,0.01 0.36,0.04 0.46,0.08 0.1,0.04 0.18,0.1 0.21,0.18 0.03,0.08 0.07,0.19 0.09,0.33l2.55 11.13 0.01 0 2.65 -11.05c0.03,-0.14 0.07,-0.26 0.12,-0.35 0.05,-0.09 0.13,-0.16 0.25,-0.21 0.11,-0.05 0.28,-0.08 0.48,-0.1 0.2,-0.02 0.47,-0.03 0.81,-0.03 0.36,0 0.64,0.01 0.86,0.02 0.21,0.02 0.38,0.05 0.49,0.1 0.12,0.05 0.2,0.12 0.25,0.21 0.05,0.09 0.09,0.21 0.12,0.36l2.74 11.05 0.02 0 2.53 -11.1c0.02,-0.12 0.05,-0.22 0.09,-0.31 0.04,-0.08 0.11,-0.15 0.21,-0.2 0.11,-0.05 0.26,-0.08 0.45,-0.1 0.2,-0.02 0.47,-0.03 0.82,-0.03 0.33,0 0.59,0.01 0.77,0.03 0.18,0.02 0.31,0.07 0.4,0.15 0.08,0.08 0.12,0.2 0.11,0.36 -0.01,0.16 -0.05,0.38 -0.12,0.66l-3.33 12.65zm165.11 -0.41c0,0.22 -0.01,0.4 -0.03,0.55 -0.02,0.15 -0.05,0.26 -0.08,0.35 -0.04,0.09 -0.08,0.16 -0.14,0.2 -0.05,0.04 -0.12,0.06 -0.18,0.06l-7.29 0c-0.25,0 -0.45,-0.07 -0.62,-0.22 -0.17,-0.15 -0.25,-0.38 -0.25,-0.71l0 -12.67c0,-0.33 0.08,-0.57 0.25,-0.71 0.17,-0.15 0.38,-0.22 0.62,-0.22l7.26 0c0.07,0 0.13,0.02 0.18,0.06 0.05,0.04 0.1,0.1 0.13,0.2 0.03,0.1 0.07,0.21 0.08,0.36 0.02,0.15 0.03,0.33 0.03,0.56 0,0.21 -0.01,0.39 -0.03,0.54 -0.02,0.15 -0.05,0.26 -0.08,0.35 -0.04,0.09 -0.08,0.16 -0.13,0.2 -0.05,0.04 -0.11,0.06 -0.18,0.06l-5.19 0 0 3.54 4.37 0c0.07,0 0.13,0.02 0.18,0.06 0.06,0.04 0.1,0.1 0.14,0.19 0.04,0.08 0.07,0.2 0.08,0.35 0.02,0.15 0.03,0.32 0.03,0.53 0,0.22 -0.01,0.4 -0.03,0.54 -0.02,0.14 -0.05,0.26 -0.08,0.34 -0.04,0.09 -0.08,0.15 -0.14,0.18 -0.05,0.04 -0.11,0.06 -0.18,0.06l-4.37 0 0 4.09 5.22 0c0.07,0 0.13,0.02 0.18,0.06 0.06,0.04 0.1,0.11 0.14,0.2 0.04,0.09 0.07,0.21 0.08,0.35 0.02,0.15 0.03,0.33 0.03,0.55zm-10.72 -1.03c0,0.19 -0,0.35 -0.02,0.48 -0.01,0.13 -0.03,0.25 -0.05,0.34 -0.02,0.1 -0.05,0.18 -0.09,0.25 -0.04,0.07 -0.1,0.14 -0.18,0.23 -0.08,0.08 -0.24,0.2 -0.48,0.33 -0.24,0.13 -0.52,0.26 -0.87,0.38 -0.34,0.12 -0.73,0.22 -1.17,0.3 -0.44,0.08 -0.91,0.12 -1.42,0.12 -0.99,0 -1.89,-0.15 -2.69,-0.46 -0.8,-0.31 -1.48,-0.77 -2.04,-1.38 -0.56,-0.61 -0.99,-1.37 -1.29,-2.28 -0.3,-0.91 -0.45,-1.97 -0.45,-3.19 0,-1.23 0.17,-2.33 0.49,-3.29 0.33,-0.96 0.79,-1.76 1.38,-2.41 0.59,-0.65 1.3,-1.14 2.13,-1.48 0.82,-0.34 1.74,-0.51 2.73,-0.51 0.4,0 0.79,0.03 1.17,0.1 0.38,0.07 0.72,0.15 1.04,0.26 0.32,0.11 0.6,0.23 0.86,0.38 0.25,0.15 0.43,0.27 0.53,0.37 0.1,0.1 0.17,0.19 0.21,0.25 0.04,0.07 0.07,0.15 0.09,0.26 0.02,0.11 0.04,0.23 0.05,0.37 0.01,0.14 0.02,0.31 0.02,0.53 0,0.22 -0.01,0.41 -0.02,0.57 -0.02,0.16 -0.04,0.28 -0.08,0.38 -0.04,0.1 -0.08,0.17 -0.13,0.21 -0.05,0.05 -0.11,0.07 -0.18,0.07 -0.11,0 -0.25,-0.07 -0.43,-0.2 -0.17,-0.13 -0.39,-0.28 -0.67,-0.44 -0.27,-0.16 -0.6,-0.31 -0.98,-0.44 -0.38,-0.13 -0.82,-0.2 -1.35,-0.2 -0.57,0 -1.09,0.12 -1.54,0.35 -0.45,0.24 -0.84,0.57 -1.15,1.01 -0.32,0.44 -0.56,0.97 -0.72,1.59 -0.16,0.62 -0.25,1.32 -0.25,2.1 0,0.85 0.09,1.59 0.26,2.22 0.18,0.62 0.43,1.14 0.75,1.54 0.32,0.4 0.72,0.7 1.18,0.9 0.46,0.2 0.98,0.3 1.55,0.3 0.52,0 0.97,-0.06 1.36,-0.18 0.38,-0.12 0.71,-0.26 0.98,-0.41 0.28,-0.15 0.5,-0.28 0.67,-0.4 0.18,-0.12 0.31,-0.18 0.41,-0.18 0.07,0 0.13,0.02 0.18,0.05 0.05,0.03 0.08,0.09 0.11,0.18 0.03,0.09 0.05,0.21 0.07,0.38 0.02,0.17 0.02,0.38 0.02,0.65zm-13.22 1.16c0,0.17 -0.03,0.33 -0.09,0.46 -0.06,0.13 -0.14,0.25 -0.25,0.34 -0.1,0.09 -0.22,0.15 -0.36,0.2 -0.14,0.04 -0.28,0.06 -0.42,0.06l-1.26 0c-0.26,0 -0.49,-0.03 -0.68,-0.08 -0.19,-0.05 -0.36,-0.15 -0.52,-0.29 -0.17,-0.14 -0.32,-0.33 -0.47,-0.56 -0.15,-0.23 -0.32,-0.54 -0.51,-0.92l-3.61 -6.8c-0.21,-0.41 -0.42,-0.84 -0.64,-1.31 -0.22,-0.47 -0.41,-0.92 -0.58,-1.36l-0.02 0c0.03,0.54 0.05,1.08 0.07,1.61 0.02,0.53 0.02,1.09 0.02,1.66l0 7.61c0,0.07 -0.02,0.14 -0.06,0.2 -0.04,0.06 -0.12,0.11 -0.21,0.15 -0.1,0.04 -0.24,0.07 -0.41,0.1 -0.17,0.02 -0.39,0.03 -0.66,0.03 -0.26,0 -0.48,-0.01 -0.66,-0.03 -0.17,-0.02 -0.31,-0.05 -0.4,-0.1 -0.1,-0.04 -0.17,-0.09 -0.2,-0.15 -0.04,-0.06 -0.06,-0.13 -0.06,-0.2l0 -13.06c0,-0.35 0.1,-0.62 0.31,-0.79 0.2,-0.18 0.46,-0.26 0.76,-0.26l1.58 0c0.28,0 0.52,0.02 0.72,0.07 0.2,0.05 0.37,0.13 0.52,0.24 0.15,0.11 0.3,0.27 0.43,0.47 0.13,0.2 0.27,0.44 0.41,0.74l2.82 5.32c0.16,0.32 0.33,0.64 0.49,0.95 0.16,0.31 0.32,0.62 0.46,0.93 0.15,0.31 0.29,0.62 0.44,0.92 0.15,0.3 0.28,0.6 0.42,0.9l0.01 0c-0.02,-0.53 -0.04,-1.07 -0.05,-1.64 -0.01,-0.57 -0.02,-1.12 -0.02,-1.63l0 -6.82c0,-0.07 0.02,-0.14 0.07,-0.2 0.04,-0.06 0.12,-0.11 0.22,-0.16 0.11,-0.05 0.25,-0.08 0.42,-0.1 0.17,-0.02 0.39,-0.03 0.66,-0.03 0.26,0 0.47,0.01 0.64,0.03 0.17,0.02 0.3,0.05 0.4,0.1 0.09,0.05 0.16,0.1 0.2,0.16 0.04,0.06 0.06,0.13 0.06,0.2l0 13.06zm-14.6 -0.13c0,0.22 -0.01,0.4 -0.03,0.55 -0.02,0.15 -0.05,0.26 -0.08,0.35 -0.04,0.09 -0.08,0.16 -0.14,0.2 -0.05,0.04 -0.12,0.06 -0.18,0.06l-7.29 0c-0.25,0 -0.45,-0.07 -0.62,-0.22 -0.17,-0.15 -0.25,-0.38 -0.25,-0.71l0 -12.67c0,-0.33 0.08,-0.57 0.25,-0.71 0.17,-0.15 0.38,-0.22 0.62,-0.22l7.26 0c0.07,0 0.13,0.02 0.18,0.06 0.05,0.04 0.1,0.1 0.13,0.2 0.03,0.1 0.07,0.21 0.08,0.36 0.02,0.15 0.03,0.33 0.03,0.56 0,0.21 -0.01,0.39 -0.03,0.54 -0.02,0.15 -0.05,0.26 -0.08,0.35 -0.04,0.09 -0.08,0.16 -0.13,0.2 -0.05,0.04 -0.11,0.06 -0.18,0.06l-5.19 0 0 3.54 4.37 0c0.07,0 0.13,0.02 0.18,0.06 0.06,0.04 0.1,0.1 0.14,0.19 0.04,0.08 0.07,0.2 0.08,0.35 0.02,0.15 0.03,0.32 0.03,0.53 0,0.22 -0.01,0.4 -0.03,0.54 -0.02,0.14 -0.05,0.26 -0.08,0.34 -0.04,0.09 -0.08,0.15 -0.14,0.18 -0.05,0.04 -0.11,0.06 -0.18,0.06l-4.37 0 0 4.09 5.22 0c0.07,0 0.13,0.02 0.18,0.06 0.06,0.04 0.1,0.11 0.14,0.2 0.04,0.09 0.07,0.21 0.08,0.35 0.02,0.15 0.03,0.33 0.03,0.55zm-11.77 0.76c0,0.07 -0.02,0.14 -0.07,0.2 -0.05,0.06 -0.13,0.11 -0.24,0.15 -0.11,0.03 -0.26,0.07 -0.45,0.09 -0.19,0.02 -0.43,0.03 -0.72,0.03 -0.28,0 -0.52,-0.01 -0.71,-0.03 -0.19,-0.02 -0.35,-0.05 -0.46,-0.09 -0.11,-0.04 -0.19,-0.09 -0.24,-0.15 -0.05,-0.06 -0.07,-0.13 -0.07,-0.2l0 -13.73c0,-0.07 0.02,-0.14 0.07,-0.2 0.05,-0.06 0.13,-0.11 0.25,-0.15 0.11,-0.04 0.26,-0.07 0.45,-0.09 0.19,-0.02 0.43,-0.03 0.71,-0.03 0.29,0 0.53,0.01 0.72,0.03 0.18,0.02 0.34,0.05 0.45,0.09 0.11,0.04 0.19,0.09 0.24,0.15 0.05,0.06 0.07,0.13 0.07,0.2l0 13.73zm-5.13 0.02c0,0.08 -0.02,0.15 -0.05,0.21 -0.03,0.06 -0.1,0.1 -0.21,0.14 -0.12,0.03 -0.28,0.06 -0.49,0.08 -0.22,0.02 -0.51,0.02 -0.89,0.02 -0.31,0 -0.56,-0.01 -0.75,-0.02 -0.19,-0.02 -0.34,-0.04 -0.44,-0.08 -0.11,-0.04 -0.18,-0.09 -0.23,-0.16 -0.04,-0.07 -0.08,-0.14 -0.11,-0.23l-1.31 -3.25c-0.16,-0.37 -0.31,-0.7 -0.46,-0.98 -0.15,-0.29 -0.32,-0.53 -0.5,-0.72 -0.18,-0.19 -0.4,-0.33 -0.64,-0.43 -0.24,-0.1 -0.52,-0.15 -0.83,-0.15l-0.92 0 0 5.55c0,0.07 -0.02,0.14 -0.07,0.2 -0.05,0.06 -0.13,0.11 -0.24,0.15 -0.11,0.03 -0.26,0.07 -0.45,0.09 -0.18,0.02 -0.43,0.03 -0.71,0.03 -0.28,0 -0.52,-0.01 -0.71,-0.03 -0.19,-0.02 -0.34,-0.05 -0.45,-0.09 -0.11,-0.04 -0.19,-0.09 -0.23,-0.15 -0.05,-0.06 -0.07,-0.13 -0.07,-0.2l0 -13.2c0,-0.33 0.08,-0.57 0.25,-0.71 0.17,-0.15 0.38,-0.22 0.62,-0.22l3.76 0c0.38,0 0.7,0.01 0.94,0.02 0.25,0.02 0.47,0.03 0.67,0.05 0.58,0.08 1.11,0.23 1.58,0.43 0.47,0.2 0.87,0.46 1.19,0.79 0.33,0.33 0.58,0.71 0.75,1.15 0.17,0.44 0.26,0.95 0.26,1.53 0,0.48 -0.06,0.93 -0.18,1.33 -0.13,0.4 -0.31,0.76 -0.55,1.07 -0.24,0.31 -0.53,0.59 -0.89,0.82 -0.35,0.23 -0.75,0.42 -1.2,0.56 0.22,0.1 0.42,0.23 0.61,0.38 0.19,0.15 0.37,0.33 0.54,0.55 0.17,0.21 0.33,0.46 0.48,0.73 0.15,0.27 0.29,0.58 0.44,0.93l1.23 2.87c0.11,0.28 0.19,0.49 0.22,0.62 0.04,0.13 0.06,0.23 0.06,0.31zm-3.82 -9.87c0,-0.48 -0.11,-0.89 -0.33,-1.21 -0.22,-0.33 -0.58,-0.56 -1.07,-0.7 -0.15,-0.04 -0.32,-0.07 -0.51,-0.09 -0.19,-0.02 -0.46,-0.03 -0.79,-0.03l-1.33 0 0 4.12 1.51 0c0.42,0 0.79,-0.05 1.1,-0.15 0.32,-0.1 0.58,-0.24 0.79,-0.43 0.21,-0.18 0.37,-0.4 0.47,-0.66 0.1,-0.25 0.16,-0.54 0.16,-0.85zm-9.59 9.09c0,0.22 -0.01,0.4 -0.03,0.55 -0.02,0.15 -0.05,0.26 -0.08,0.35 -0.04,0.09 -0.08,0.16 -0.14,0.2 -0.05,0.04 -0.12,0.06 -0.18,0.06l-7.29 0c-0.25,0 -0.45,-0.07 -0.62,-0.22 -0.17,-0.15 -0.25,-0.38 -0.25,-0.71l0 -12.67c0,-0.33 0.08,-0.57 0.25,-0.71 0.17,-0.15 0.38,-0.22 0.62,-0.22l7.26 0c0.07,0 0.13,0.02 0.18,0.06 0.05,0.04 0.1,0.1 0.13,0.2 0.03,0.1 0.07,0.21 0.08,0.36 0.02,0.15 0.03,0.33 0.03,0.56 0,0.21 -0.01,0.39 -0.03,0.54 -0.02,0.15 -0.05,0.26 -0.08,0.35 -0.04,0.09 -0.08,0.16 -0.13,0.2 -0.05,0.04 -0.11,0.06 -0.18,0.06l-5.19 0 0 3.54 4.37 0c0.07,0 0.13,0.02 0.18,0.06 0.06,0.04 0.1,0.1 0.14,0.19 0.04,0.08 0.07,0.2 0.08,0.35 0.02,0.15 0.03,0.32 0.03,0.53 0,0.22 -0.01,0.4 -0.03,0.54 -0.02,0.14 -0.05,0.26 -0.08,0.34 -0.04,0.09 -0.08,0.15 -0.14,0.18 -0.05,0.04 -0.11,0.06 -0.18,0.06l-4.37 0 0 4.09 5.22 0c0.07,0 0.13,0.02 0.18,0.06 0.06,0.04 0.1,0.11 0.14,0.2 0.04,0.09 0.07,0.21 0.08,0.35 0.02,0.15 0.03,0.33 0.03,0.55zm-10.88 -8.96c0,0.82 -0.13,1.54 -0.38,2.17 -0.25,0.63 -0.62,1.16 -1.12,1.59 -0.49,0.43 -1.08,0.76 -1.79,0.99 -0.71,0.23 -1.54,0.34 -2.51,0.34l-1.22 0 0 4.63c0,0.08 -0.02,0.14 -0.07,0.2 -0.05,0.06 -0.13,0.11 -0.24,0.15 -0.11,0.04 -0.26,0.07 -0.45,0.09 -0.18,0.02 -0.43,0.03 -0.71,0.03 -0.28,0 -0.52,-0.01 -0.71,-0.03 -0.19,-0.02 -0.34,-0.05 -0.45,-0.09 -0.11,-0.04 -0.19,-0.09 -0.23,-0.15 -0.05,-0.06 -0.07,-0.13 -0.07,-0.2l0 -13.07c0,-0.35 0.09,-0.62 0.28,-0.79 0.18,-0.18 0.43,-0.26 0.72,-0.26l3.43 0c0.35,0 0.67,0.01 0.99,0.04 0.31,0.03 0.68,0.08 1.12,0.17 0.43,0.09 0.87,0.25 1.32,0.48 0.44,0.23 0.83,0.53 1.14,0.88 0.31,0.36 0.56,0.77 0.72,1.25 0.16,0.48 0.25,1.01 0.25,1.6zm-3.08 0.21c0,-0.51 -0.09,-0.93 -0.27,-1.26 -0.18,-0.33 -0.4,-0.57 -0.67,-0.73 -0.26,-0.16 -0.54,-0.26 -0.83,-0.3 -0.29,-0.04 -0.59,-0.06 -0.9,-0.06l-1.27 0 0 4.94 1.33 0c0.48,0 0.87,-0.07 1.19,-0.19 0.32,-0.13 0.58,-0.31 0.79,-0.54 0.2,-0.23 0.36,-0.5 0.46,-0.82 0.1,-0.32 0.16,-0.67 0.16,-1.04zm-9.18 8.79c0.13,0.26 0.22,0.47 0.26,0.63 0.04,0.16 0.02,0.28 -0.07,0.36 -0.09,0.08 -0.25,0.13 -0.49,0.16 -0.24,0.02 -0.56,0.03 -0.98,0.03 -0.35,0 -0.63,-0.01 -0.83,-0.02 -0.2,-0.02 -0.36,-0.04 -0.48,-0.07 -0.12,-0.03 -0.2,-0.08 -0.25,-0.14 -0.05,-0.06 -0.1,-0.13 -0.13,-0.22l-2.74 -5.25 -2.71 5.25c-0.05,0.09 -0.09,0.17 -0.15,0.22 -0.05,0.06 -0.14,0.11 -0.25,0.14 -0.12,0.03 -0.28,0.06 -0.49,0.07 -0.21,0.02 -0.48,0.02 -0.82,0.02 -0.39,0 -0.69,-0.01 -0.91,-0.03 -0.21,-0.02 -0.36,-0.07 -0.43,-0.16 -0.07,-0.08 -0.09,-0.2 -0.04,-0.36 0.04,-0.16 0.14,-0.36 0.28,-0.63l3.48 -6.35 -3.23 -5.96c-0.13,-0.27 -0.23,-0.49 -0.28,-0.65 -0.05,-0.16 -0.03,-0.28 0.06,-0.36 0.08,-0.08 0.25,-0.13 0.48,-0.15 0.23,-0.02 0.56,-0.03 0.99,-0.03 0.35,0 0.63,0.01 0.84,0.02 0.21,0.02 0.37,0.04 0.49,0.07 0.12,0.03 0.21,0.08 0.25,0.14 0.05,0.06 0.1,0.13 0.14,0.22l2.56 4.81 2.47 -4.81c0.05,-0.09 0.09,-0.17 0.14,-0.22 0.05,-0.06 0.13,-0.11 0.23,-0.14 0.11,-0.03 0.26,-0.06 0.45,-0.07 0.19,-0.02 0.46,-0.02 0.79,-0.02 0.37,0 0.67,0.01 0.89,0.03 0.21,0.02 0.36,0.07 0.45,0.15 0.08,0.08 0.1,0.2 0.06,0.36 -0.04,0.16 -0.13,0.37 -0.25,0.64l-3.23 5.93 3.45 6.38zm-12.98 -0.05c0,0.22 -0.01,0.4 -0.03,0.55 -0.02,0.15 -0.05,0.26 -0.08,0.35 -0.04,0.09 -0.08,0.16 -0.14,0.2 -0.05,0.04 -0.12,0.06 -0.18,0.06l-7.29 0c-0.25,0 -0.45,-0.07 -0.62,-0.22 -0.17,-0.15 -0.25,-0.38 -0.25,-0.71l0 -12.67c0,-0.33 0.08,-0.57 0.25,-0.71 0.17,-0.15 0.38,-0.22 0.62,-0.22l7.26 0c0.07,0 0.13,0.02 0.18,0.06 0.05,0.04 0.1,0.1 0.13,0.2 0.03,0.1 0.07,0.21 0.08,0.36 0.02,0.15 0.03,0.33 0.03,0.56 0,0.21 -0.01,0.39 -0.03,0.54 -0.02,0.15 -0.05,0.26 -0.08,0.35 -0.04,0.09 -0.08,0.16 -0.13,0.2 -0.05,0.04 -0.11,0.06 -0.18,0.06l-5.19 0 0 3.54 4.37 0c0.07,0 0.13,0.02 0.18,0.06 0.06,0.04 0.1,0.1 0.14,0.19 0.04,0.08 0.07,0.2 0.08,0.35 0.02,0.15 0.03,0.32 0.03,0.53 0,0.22 -0.01,0.4 -0.03,0.54 -0.02,0.14 -0.05,0.26 -0.08,0.34 -0.04,0.09 -0.08,0.15 -0.14,0.18 -0.05,0.04 -0.11,0.06 -0.18,0.06l-4.37 0 0 4.09 5.22 0c0.07,0 0.13,0.02 0.18,0.06 0.06,0.04 0.1,0.11 0.14,0.2 0.04,0.09 0.07,0.21 0.08,0.35 0.02,0.15 0.03,0.33 0.03,0.55zm-15.77 0.72c0,0.08 -0.02,0.16 -0.06,0.22 -0.04,0.07 -0.12,0.11 -0.24,0.16 -0.12,0.04 -0.27,0.07 -0.48,0.1 -0.2,0.02 -0.46,0.03 -0.76,0.03 -0.49,0 -0.84,-0.02 -1.05,-0.06 -0.21,-0.03 -0.37,-0.09 -0.46,-0.17 -0.09,-0.07 -0.16,-0.16 -0.22,-0.27l-4.39 -6.9 0 6.9c0,0.08 -0.02,0.15 -0.07,0.21 -0.04,0.06 -0.12,0.11 -0.23,0.15 -0.11,0.04 -0.26,0.07 -0.45,0.1 -0.18,0.02 -0.43,0.03 -0.71,0.03 -0.28,0 -0.52,-0.01 -0.71,-0.03 -0.19,-0.02 -0.34,-0.05 -0.45,-0.1 -0.11,-0.04 -0.19,-0.09 -0.24,-0.15 -0.05,-0.06 -0.07,-0.13 -0.07,-0.21l0 -13.69c0,-0.08 0.02,-0.15 0.07,-0.21 0.05,-0.06 0.13,-0.11 0.24,-0.15 0.11,-0.04 0.26,-0.07 0.45,-0.09 0.19,-0.02 0.43,-0.03 0.71,-0.03 0.29,0 0.53,0.01 0.71,0.03 0.19,0.02 0.34,0.05 0.45,0.09 0.11,0.04 0.19,0.09 0.23,0.15 0.05,0.06 0.07,0.13 0.07,0.21l0 6.19 4.25 -6.18c0.05,-0.1 0.11,-0.18 0.19,-0.24 0.07,-0.07 0.17,-0.11 0.29,-0.15 0.12,-0.03 0.27,-0.06 0.46,-0.08 0.19,-0.02 0.43,-0.02 0.72,-0.02 0.3,0 0.54,0.01 0.74,0.03 0.2,0.02 0.35,0.05 0.47,0.1 0.12,0.04 0.2,0.09 0.24,0.15 0.05,0.06 0.07,0.13 0.07,0.2 0,0.13 -0.03,0.26 -0.1,0.39 -0.07,0.13 -0.2,0.35 -0.38,0.64l-3.98 5.22 4.34 6.57c0.17,0.31 0.26,0.51 0.3,0.61 0.03,0.1 0.05,0.18 0.05,0.24zm-12.76 0.06c0,0.08 -0.02,0.15 -0.05,0.21 -0.03,0.06 -0.1,0.1 -0.21,0.14 -0.12,0.03 -0.28,0.06 -0.49,0.08 -0.22,0.02 -0.51,0.02 -0.89,0.02 -0.31,0 -0.56,-0.01 -0.75,-0.02 -0.19,-0.02 -0.34,-0.04 -0.44,-0.08 -0.11,-0.04 -0.18,-0.09 -0.23,-0.16 -0.04,-0.07 -0.08,-0.14 -0.11,-0.23l-1.31 -3.25c-0.16,-0.37 -0.31,-0.7 -0.46,-0.98 -0.15,-0.29 -0.32,-0.53 -0.5,-0.72 -0.18,-0.19 -0.4,-0.33 -0.64,-0.43 -0.24,-0.1 -0.52,-0.15 -0.83,-0.15l-0.92 0 0 5.55c0,0.07 -0.02,0.14 -0.07,0.2 -0.05,0.06 -0.13,0.11 -0.24,0.15 -0.11,0.03 -0.26,0.07 -0.45,0.09 -0.18,0.02 -0.43,0.03 -0.71,0.03 -0.28,0 -0.52,-0.01 -0.71,-0.03 -0.19,-0.02 -0.34,-0.05 -0.45,-0.09 -0.11,-0.04 -0.19,-0.09 -0.23,-0.15 -0.05,-0.06 -0.07,-0.13 -0.07,-0.2l0 -13.2c0,-0.33 0.08,-0.57 0.25,-0.71 0.17,-0.15 0.38,-0.22 0.62,-0.22l3.76 0c0.38,0 0.7,0.01 0.94,0.02 0.25,0.02 0.47,0.03 0.67,0.05 0.58,0.08 1.11,0.23 1.58,0.43 0.47,0.2 0.87,0.46 1.19,0.79 0.33,0.33 0.58,0.71 0.75,1.15 0.17,0.44 0.26,0.95 0.26,1.53 0,0.48 -0.06,0.93 -0.18,1.33 -0.13,0.4 -0.31,0.76 -0.55,1.07 -0.24,0.31 -0.53,0.59 -0.89,0.82 -0.35,0.23 -0.75,0.42 -1.2,0.56 0.22,0.1 0.42,0.23 0.61,0.38 0.19,0.15 0.37,0.33 0.54,0.55 0.17,0.21 0.33,0.46 0.48,0.73 0.15,0.27 0.29,0.58 0.44,0.93l1.23 2.87c0.11,0.28 0.19,0.49 0.22,0.62 0.04,0.13 0.06,0.23 0.06,0.31zm-3.82 -9.87c0,-0.48 -0.11,-0.89 -0.33,-1.21 -0.22,-0.33 -0.58,-0.56 -1.07,-0.7 -0.15,-0.04 -0.32,-0.07 -0.51,-0.09 -0.19,-0.02 -0.46,-0.03 -0.79,-0.03l-1.33 0 0 4.12 1.51 0c0.42,0 0.79,-0.05 1.1,-0.15 0.32,-0.1 0.58,-0.24 0.79,-0.43 0.21,-0.18 0.37,-0.4 0.47,-0.66 0.1,-0.25 0.16,-0.54 0.16,-0.85zm-9.46 2.81c0,1.2 -0.15,2.28 -0.45,3.23 -0.3,0.95 -0.74,1.76 -1.34,2.42 -0.59,0.66 -1.32,1.17 -2.19,1.52 -0.87,0.35 -1.88,0.52 -3.03,0.52 -1.13,0 -2.12,-0.15 -2.96,-0.44 -0.84,-0.3 -1.54,-0.74 -2.11,-1.35 -0.56,-0.61 -0.98,-1.38 -1.26,-2.31 -0.28,-0.94 -0.42,-2.04 -0.42,-3.32 0,-1.17 0.15,-2.23 0.45,-3.17 0.3,-0.94 0.74,-1.74 1.34,-2.4 0.59,-0.66 1.32,-1.17 2.19,-1.51 0.87,-0.35 1.89,-0.53 3.04,-0.53 1.1,0 2.07,0.15 2.91,0.44 0.84,0.29 1.54,0.74 2.11,1.35 0.57,0.61 0.99,1.37 1.28,2.29 0.29,0.93 0.43,2.02 0.43,3.27zm-3.1 0.15c0,-0.76 -0.06,-1.46 -0.18,-2.08 -0.12,-0.62 -0.32,-1.16 -0.61,-1.61 -0.29,-0.44 -0.67,-0.79 -1.15,-1.03 -0.48,-0.24 -1.08,-0.36 -1.79,-0.36 -0.72,0 -1.33,0.14 -1.81,0.41 -0.49,0.27 -0.88,0.64 -1.18,1.1 -0.3,0.46 -0.51,0.99 -0.63,1.6 -0.12,0.61 -0.18,1.26 -0.18,1.94 0,0.79 0.06,1.51 0.18,2.14 0.12,0.63 0.32,1.17 0.61,1.63 0.28,0.45 0.66,0.79 1.14,1.03 0.48,0.23 1.08,0.35 1.81,0.35 0.72,0 1.33,-0.13 1.81,-0.41 0.49,-0.27 0.88,-0.64 1.18,-1.1 0.3,-0.46 0.51,-1 0.63,-1.62 0.12,-0.62 0.18,-1.28 0.18,-1.97z"/>
   <path class="fil2" d="M15.2 20.97l17.98 -0.03 -0.01 1.28 -2.56 -0c0,3.58 0.34,3.83 -1.23,3.83 -1.66,-0 -1.34,0.02 -1.34,-3.83l-7.68 0c0,0.6 0.08,2.88 -0.02,3.29 -0.2,0.81 -1.95,0.62 -2.47,0.32 -0.17,-0.8 -0.08,-2.65 -0.08,-3.61l-2.58 -0 -0.01 -1.25zm5.14 -5.09l0.48 -0.03 6.79 0 0.44 -0 0 1.29 -0.13 0 -7.58 -0.06 0 -1.2zm-1.23 1.29c-0.82,-0.09 -3.12,-0.11 -3.93,-0.03 -1.34,0.14 -1.25,1.21 -1.25,2.57l0.01 11.49c0.15,1.34 1.37,1.18 2.7,1.18l15.35 0c1.38,0 2.41,0.1 2.46,-1.39 0.1,-3.3 -0,-8.08 0,-11.49 0,-1.41 0.11,-2.33 -1.41,-2.37 -0.96,-0.03 -2.9,0.12 -3.72,-0.05 0,-3.03 -0.38,-2.49 -5.16,-2.49 -4.05,0 -5.38,-0.68 -5.05,2.58z"/>
  </g>
 </g>
</svg>
